<?xml version="1.0" encoding="UTF-8"?>
<svg width="121px" height="110px" viewBox="0 0 121 110" version="1.1" xmlns="http://www.w3.org/2000/svg" xmlns:xlink="http://www.w3.org/1999/xlink">
    <title>Group</title>
    <g id="Page-1" stroke="none" stroke-width="1" fill="none" fill-rule="evenodd">
        <g id="iPhone-13-mini" transform="translate(-218, -1085)">
            <g id="Group" transform="translate(219, 1086)">
                <g id="Path" stroke="#B9B9BA" stroke-width="2">
                    <path d="M18.2802112,84.6299253 C18.3612327,81.4066504 18.4017435,78.1450032 18.5637866,74.9217283 C18.6853189,72.3507828 17.9156142,70.1251882 16.2546723,68.0914553 C12.1630839,63.1414259 8.15251695,58.1530243 4.18246082,53.1646227 C2.68356207,51.284379 1.50874954,49.2122737 0.698534005,46.9483068 C-1.00291862,42.1133944 0.414958567,38.1994178 4.83063325,35.3214937 C7.58536607,33.5179947 10.6641851,32.481942 13.8240257,31.5993787 C19.6170668,29.9877412 25.4506187,28.3761038 31.2436598,26.726094 C33.7148172,26.0353922 35.3352482,24.3853825 36.7531254,22.3900218 C40.3585846,17.3248755 44.0045545,12.2981016 47.7315459,7.30969993 C49.351977,5.12247768 51.2559835,3.20386166 53.6461194,1.74571349 C57.6161755,-0.710115005 61.707764,-0.556625724 65.5562878,2.09106438 C68.5135745,4.12479735 70.6606457,6.84923209 72.6861845,9.68878379 C75.9675574,14.2550899 79.2894411,18.8597683 82.6113248,23.4260744 C83.8671589,25.1144565 85.5686115,26.2272538 87.6751719,26.8028386 C94.3189393,28.64471 100.962707,30.5249537 107.606474,32.4435697 C110.118142,33.1726438 112.467767,34.2854411 114.574328,35.8203339 C118.34183,38.583141 119.557153,42.4587453 118.058255,46.7564452 C117.045485,49.6727415 115.344033,52.2053147 113.399515,54.5843985 C109.632013,59.2658216 105.824,63.9088723 102.015987,68.5902954 C100.59811,70.3170498 99.9904481,72.2740382 100.07147,74.4612604 C100.274024,80.4089701 100.436067,86.3183074 100.59811,92.266017 C100.679131,94.9904518 100.476577,97.7148865 99.6663619,100.362577 C98.1674631,105.350978 94.4809824,107.960296 88.9715168,107.845179 C85.48759,107.768434 82.2062171,106.809126 78.9653549,105.696329 C73.5774216,103.854458 68.1894883,102.050959 62.8015549,100.209087 C60.4114191,99.4032686 58.1023048,99.4800132 55.712169,100.285832 C49.5140201,102.39631 43.356382,104.468415 37.1177224,106.502148 C34.4035004,107.384711 31.6082568,107.883551 28.7319916,107.806807 C23.8706984,107.614945 20.4272823,105.005627 19.0904267,100.554438 C18.2802112,97.7532588 18.0776573,94.9137071 18.1181681,92.0357831 C18.1586788,89.5799546 18.1181681,87.1241261 18.1181681,84.6682976 C18.1586788,84.6299253 18.2397004,84.6299253 18.2802112,84.6299253 Z"></path>
                </g>
                <path d="M88.931006,59.4960555 C88.931006,46.7948175 76.4941975,36.4726633 61.1811239,36.4726633 C49.6355525,36.4726633 39.7104121,42.3436283 35.5378021,50.6704218 L31.7297891,50.6704218 C29.9878257,50.6704218 28.5699485,52.0134531 28.5699485,53.6634628 L28.5699485,63.7553831 C28.5699485,65.4053928 29.9878257,66.748424 31.7297891,66.748424 L34.8491189,66.748424 C36.4290392,70.7391453 39.3053044,74.1926542 43.0322958,76.8787166 L42.7082096,76.7252273 L42.7082096,83.1717771 C42.7082096,84.0543405 43.4779144,84.7834146 44.4096622,84.7834146 L48.3392076,84.7834146 C49.2709555,84.7834146 50.0406602,84.0543405 50.0406602,83.1717771 L50.0406602,80.524087 L50.0001495,80.524087 C53.4030547,81.7903736 57.2110677,82.4810754 61.1811239,82.4810754 C65.15118,82.4810754 68.9186822,81.7903736 72.3620983,80.524087 L72.3215875,80.524087 L72.3215875,83.1717771 C72.3215875,84.0543405 73.0912923,84.7834146 74.0230401,84.7834146 L77.9525855,84.7834146 C78.8843334,84.7834146 79.6540381,84.0543405 79.6540381,83.1717771 L79.6540381,76.7252273 L79.3299519,76.8787166 C85.2040145,72.6961337 88.931006,66.4798178 88.931006,59.4960555 Z" id="Path" fill="#EBEBED" fill-rule="nonzero"></path>
                <path d="M47.2049058,80.6008317 L47.2049058,83.2485218 C47.2049058,84.1310851 46.4352011,84.8601592 45.5034532,84.8601592 L41.5739079,84.8601592 C40.64216,84.8601592 39.8724552,84.1310851 39.8724552,83.2485218 L39.8724552,76.801972" id="Path" stroke="#B9B9BA" stroke-width="2"></path>
                <path d="M69.4858331,80.6008317 L69.4858331,83.2485218 C69.4858331,84.1310851 70.2555379,84.8601592 71.1872858,84.8601592 L75.1168311,84.8601592 C76.048579,84.8601592 76.8182837,84.1310851 76.8182837,83.2485218 L76.8182837,76.801972" id="Path" stroke="#B9B9BA" stroke-width="2"></path>
                <path d="M53.2815224,36.8563865 C43.9640437,38.2761624 36.2669961,43.5715426 32.7020477,50.6704218 L28.8940347,50.6704218 C27.1520713,50.6704218 25.7341941,52.0134531 25.7341941,53.6634628 L25.7341941,63.7553831 C25.7341941,65.4053928 27.1520713,66.748424 28.8940347,66.748424 L32.0133645,66.748424 C35.6998452,75.8810363 46.0706041,82.4810754 58.3453695,82.4810754 C73.6584431,82.4810754 86.0952516,72.1589212 86.0952516,59.4576832 C86.0952516,48.5215719 76.8993053,39.3505874 64.5840291,37.0098758" id="Path" stroke="#B9B9BA" stroke-width="2"></path>
                <path d="M48.8253369,42.6122346 C53.6866301,39.9261722 62.1128717,40.0796614 67.865402,42.6122346" id="Path" stroke="#B9B9BA" stroke-width="2"></path>
                <path d="M43.9640437,66.4030732 C42.3031018,69.0891356 37.2392547,69.2809972 35.2542267,66.748424" id="Path" stroke="#B9B9BA" stroke-width="2"></path>
                <path d="M41.1282893,64.8681803 C42.9107635,65.4053928 44.5717054,66.2112116 45.5844748,68.3216892" id="Path" stroke="#B9B9BA" stroke-width="2"></path>
                <ellipse id="Oval" fill="#FFFFFF" fill-rule="nonzero" cx="45.3819209" cy="50.8622834" rx="2.14707117" ry="2.03373297"></ellipse>
                <ellipse id="Oval" fill="#B9B9BA" fill-rule="nonzero" cx="44.1665976" cy="50.8622834" rx="2.14707117" ry="2.03373297"></ellipse>
                <path d="M86.0952516,59.8797787 C86.0952516,58.7286091 86.5408702,57.1937163 87.5536396,56.2727806 C87.9182366,55.9274297 88.4043659,55.6588235 88.8904952,55.6971958 C89.7007108,55.7739404 90.1058185,56.6565038 90.3083724,57.3855779 C90.5109263,58.1913966 90.6324586,59.0355877 90.6729694,59.8797787 C90.7134802,60.6472251 90.6324586,61.4146715 90.3488832,62.1437456 C90.0653078,62.8728197 89.4981569,63.4867768 88.7689629,63.7937554 C88.6069198,63.8321277 88.4853875,63.9088723 88.3233444,63.8705 C88.0397689,63.8321277 87.7967043,63.5635215 87.7561935,63.2949152 C87.6751719,63.026309 87.7561935,62.7193304 87.837215,62.4507242 C88.6474306,59.5728001 90.9970556,57.1169717 93.9543424,56.080919" id="Path" stroke="#B9B9BA" stroke-width="2"></path>
                <ellipse id="Oval" fill="#FFFFFF" fill-rule="nonzero" cx="61.7887855" cy="29.9493689" rx="9.52003256" ry="9.01749526"></ellipse>
                <ellipse id="Oval" stroke="#B9B9BA" stroke-width="2" cx="59.155585" cy="29.7575073" rx="9.52003256" ry="9.01749526"></ellipse>
                <path d="M64.1384106,24.9609673 C65.7993524,26.5342324 66.609568,28.8365716 66.0829279,31.1772831 C65.2727123,34.7842813 61.4646993,37.0866205 57.6566863,36.3191741 C53.8486733,35.5517277 51.4180266,31.9447296 52.2282422,28.3377314" id="Path" stroke="#B9B9BA" stroke-width="2"></path>
                <path d="M60.6544838,23.1958405 C61.4646993,23.3493298 62.2344041,23.6563084 62.8825765,24.0400316" id="Path" stroke="#B9B9BA" stroke-width="2"></path>
            </g>
        </g>
    </g>
</svg>