<?xml version="1.0" encoding="UTF-8"?>
<svg width="121px" height="110px" viewBox="0 0 121 110" version="1.1" xmlns="http://www.w3.org/2000/svg" xmlns:xlink="http://www.w3.org/1999/xlink">
    <title>Group 29</title>
    <g id="Page-1" stroke="none" stroke-width="1" fill="none" fill-rule="evenodd">
        <g id="iPhone-13-mini" transform="translate(-42, -917)">
            <g id="Group-29" transform="translate(43, 918)">
                <g id="Group" stroke="#B9B9BA" stroke-width="2">
                    <path d="M18.2802112,84.6299253 C18.3612327,81.4066504 18.4017435,78.1450032 18.5637866,74.9217283 C18.6853189,72.3507828 17.9156142,70.1251882 16.2546723,68.0914553 C12.1630839,63.1414259 8.15251695,58.1530243 4.18246082,53.1646227 C2.68356207,51.284379 1.50874954,49.2122737 0.698534005,46.9483068 C-1.00291862,42.1133944 0.414958567,38.1994178 4.83063325,35.3214937 C7.58536607,33.5179947 10.6641851,32.481942 13.8240257,31.5993787 C19.6170668,29.9877412 25.4506187,28.3761038 31.2436598,26.726094 C33.7148172,26.0353922 35.3352482,24.3853825 36.7531254,22.3900218 C40.3585846,17.3248755 44.0045545,12.2981016 47.7315459,7.30969993 C49.351977,5.12247768 51.2559835,3.20386166 53.6461194,1.74571349 C57.6161755,-0.710115005 61.707764,-0.556625724 65.5562878,2.09106438 C68.5135745,4.12479735 70.6606457,6.84923209 72.6861845,9.68878379 C75.9675574,14.2550899 79.2894411,18.8597683 82.6113248,23.4260744 C83.8671589,25.1144565 85.5686115,26.2272538 87.6751719,26.8028386 C94.3189393,28.64471 100.962707,30.5249537 107.606474,32.4435697 C110.118142,33.1726438 112.467767,34.2854411 114.574328,35.8203339 C118.34183,38.583141 119.557153,42.4587453 118.058255,46.7564452 C117.045485,49.6727415 115.344033,52.2053147 113.399515,54.5843985 C109.632013,59.2658216 105.824,63.9088723 102.015987,68.5902954 C100.59811,70.3170498 99.9904481,72.2740382 100.07147,74.4612604 C100.274024,80.4089701 100.436067,86.3183074 100.59811,92.266017 C100.679131,94.9904518 100.476577,97.7148865 99.6663619,100.362577 C98.1674631,105.350978 94.4809824,107.960296 88.9715168,107.845179 C85.48759,107.768434 82.2062171,106.809126 78.9653549,105.696329 C73.5774216,103.854458 68.1894883,102.050959 62.8015549,100.209087 C60.4114191,99.4032686 58.1023048,99.4800132 55.712169,100.285832 C49.5140201,102.39631 43.356382,104.468415 37.1177224,106.502148 C34.4035004,107.384711 31.6082568,107.883551 28.7319916,107.806807 C23.8706984,107.614945 20.4272823,105.005627 19.0904267,100.554438 C18.2802112,97.7532588 18.0776573,94.9137071 18.1181681,92.0357831 C18.1586788,89.5799546 18.1181681,87.1241261 18.1181681,84.6682976 C18.1586788,84.6299253 18.2397004,84.6299253 18.2802112,84.6299253 Z" id="Path"></path>
                </g>
                <path d="M48.2176753,91.4601983 C47.8530783,91.306709 47.7315459,90.9997305 47.7315459,90.6160073 C47.7315459,88.8125082 47.7315459,87.0090091 47.7315459,85.1671378 C47.7315459,84.5531806 47.9746106,84.361319 48.622783,84.361319 C57.5351539,84.361319 66.4070141,84.361319 75.319385,84.361319 C75.9675574,84.361319 76.2106221,84.591553 76.2106221,85.1671378 C76.2106221,86.9706368 76.2106221,88.7741359 76.2106221,90.6160073 C76.2106221,90.9997305 76.0890898,91.2683367 75.7244928,91.4601983 C66.5285464,91.4601983 57.3731108,91.4601983 48.2176753,91.4601983 Z" id="Path" fill="#EBEBED" fill-rule="nonzero"></path>
                <path d="M91.483185,40.8471079 C91.483185,41.3075757 91.483185,41.8064159 91.483185,42.2668837 C91.483185,42.3436283 91.4426742,42.420373 91.4426742,42.4971176 C91.2806311,43.3029364 91.1996095,44.0703828 90.9970556,44.8378292 C90.2273509,47.6773809 88.7689629,50.2483263 86.945978,52.6274102 C83.5430727,57.0785993 79.2894411,60.5704805 74.0230401,62.9495643 C73.9015078,62.9879367 73.8204862,63.0646813 73.7394647,63.1797983 C72.1190336,65.2902759 70.1745163,67.0554026 67.7438697,68.3600615 C67.5008051,68.4751785 67.5008051,68.782157 67.7438697,68.9356463 C68.7566391,69.4728588 69.2427685,70.3170498 69.1617469,71.4298471 C69.0807254,72.4658998 68.5135745,73.1566015 67.5413158,73.6170694 C67.4602943,73.6554417 67.3792727,73.7705587 67.3792727,73.808931 C67.3387619,74.3845158 67.3792727,74.9601006 67.7438697,75.4589407 C67.8248913,75.5356854 67.865402,75.6508023 67.9464236,75.7659193 C69.2022577,77.8763969 70.7011564,79.7566406 72.7266953,81.2915334 C73.0507815,81.5217673 73.3343569,81.7520013 73.1723138,82.1740968 C73.0102707,82.5961923 72.6456737,82.5961923 72.240566,82.5961923 C65.5967985,82.5961923 58.9530311,82.5961923 52.3497745,82.5961923 C52.268753,82.5961923 52.1877314,82.5961923 52.1067098,82.5961923 C51.7826236,82.5961923 51.539559,82.442703 51.4585374,82.1740968 C51.3775159,81.9054905 51.4585374,81.6368843 51.7016021,81.4450227 C53.889184,79.8333853 55.4691043,77.7996523 56.80596,75.5740577 C57.1300462,75.0368452 57.2920893,74.4996327 57.2515785,73.8856756 C57.2515785,73.7321863 57.170557,73.6554417 57.0490246,73.6170694 C56.076766,73.1949738 55.5501259,72.4658998 55.4691043,71.4298471 C55.3880828,70.3554221 55.8742121,69.5112311 56.8869815,68.9740186 C57.1300462,68.8205293 57.170557,68.5519231 56.8869815,68.3984338 C54.4968457,67.0937749 52.5523284,65.3286482 50.9318973,63.2565429 C50.8508758,63.1414259 50.7293434,63.0646813 50.6483219,63.026309 C45.8680502,60.8390867 41.8574833,57.7309288 38.5761104,53.7402075 C36.5100608,51.2460066 34.8491189,48.5215719 33.8768603,45.4901586 C33.3097094,43.6482872 32.9856232,41.7680435 33.3907309,39.8494275 C33.917371,37.3552267 35.4567806,35.7052169 38.0899811,35.0528875 C39.7104121,34.630792 41.3308432,34.7842813 42.9917851,35.0912598 C43.2753605,35.1296321 43.5184252,35.2063768 43.8425114,35.2447491 C43.8425114,34.5924196 43.8425114,33.9400902 43.8425114,33.3261331 C43.8425114,32.6738036 44.085576,32.481942 44.7742592,32.481942 C56.4818737,32.481942 68.229999,32.481942 79.9376136,32.481942 C80.0186351,32.481942 80.1401674,32.481942 80.221189,32.481942 C80.5452752,32.5203144 80.7478291,32.6738036 80.8288506,32.9807822 C80.8693614,33.0958992 80.8693614,33.2493884 80.8693614,33.4028777 C80.8693614,34.0168348 80.8693614,34.630792 80.8693614,35.2447491 C81.0314045,35.2063768 81.1124261,35.2063768 81.1934476,35.1680045 C82.6923464,34.8610259 84.1507343,34.7075366 85.6901439,34.8610259 C88.4448767,35.1680045 90.5109263,36.8563865 91.1996095,39.427332 C91.3616526,39.8877998 91.4021634,40.38664 91.483185,40.8471079 Z M47.0833735,56.2344083 C47.0833735,56.2344083 47.1238843,56.196036 47.1238843,56.196036 C47.1238843,56.1576636 47.0833735,56.080919 47.0833735,56.0425467 C45.6654963,52.243687 44.81477,48.291338 44.3691515,44.3006167 C44.2071084,42.7273515 44.085576,41.1924587 43.9640437,39.6191936 C43.9640437,39.542449 43.8830221,39.3889597 43.8020006,39.3889597 C42.4246342,39.0052365 41.0472678,38.6598856 39.5888798,38.8133749 C38.4950888,38.9284918 37.8469164,39.427332 37.6038517,40.3482677 C37.4012978,40.9622248 37.4012978,41.6145543 37.4823194,42.2668837 C37.6848733,43.8785212 38.2520242,45.413414 38.9812181,46.8715621 C40.5206277,49.8646031 42.7082096,52.4355486 45.2603886,54.7378878 C45.8275394,55.236728 46.4757119,55.7355681 47.0833735,56.2344083 Z M77.5879885,56.2727806 C77.7500316,56.1576636 77.8310532,56.1192913 77.9120747,56.0425467 C79.5730166,54.7762601 81.0719153,53.3948566 82.4087709,51.8599638 C84.1102236,49.9029754 85.5281008,47.7541255 86.5003594,45.3750416 C87.0269995,44.0320104 87.3915965,42.6506069 87.3510857,41.1924587 C87.2700642,39.6959382 86.5408702,38.9284918 84.9609499,38.8133749 C83.5835835,38.6982579 82.2872386,39.0052365 80.9908938,39.3889597 C80.9098722,39.427332 80.8693614,39.542449 80.8693614,39.6575659 C80.7478291,41.9215328 80.5047644,44.1854997 80.1806782,46.4494666 C79.7755704,49.135529 79.2084196,51.7832191 78.3576933,54.3541646 C78.033607,54.9297494 77.8310532,55.5437065 77.5879885,56.2727806 Z" id="Shape" fill="#EBEBED" fill-rule="nonzero"></path>
                <path d="M88.6474306,40.8471079 C88.6474306,41.3075757 88.6474306,41.8064159 88.6474306,42.2668837 C88.6474306,42.3436283 88.6069198,42.420373 88.6069198,42.4971176 C88.4448767,43.3029364 88.3638551,44.0703828 88.1613013,44.8378292 C87.3915965,47.6773809 85.9332085,50.2483263 84.1102236,52.6274102 C80.7073183,57.0785993 76.4536867,60.5704805 71.1872858,62.9495643 C71.0657534,62.9879367 70.9847319,63.0646813 70.9037103,63.1797983 C69.2832792,65.2902759 67.3387619,67.0554026 64.9081153,68.3600615 C64.6650507,68.4751785 64.6650507,68.782157 64.9081153,68.9356463 C65.9208848,69.4728588 66.4070141,70.3170498 66.3259925,71.4298471 C66.244971,72.4658998 65.6778201,73.1566015 64.7055615,73.6170694 C64.6245399,73.6554417 64.5435183,73.7705587 64.5435183,73.808931 C64.5030076,74.3845158 64.5435183,74.9601006 64.9081153,75.4589407 C64.9891369,75.5356854 65.0296477,75.6508023 65.1106692,75.7659193 C66.3665033,77.8763969 67.865402,79.7566406 69.8909409,81.2915334 C70.2150271,81.5217673 70.4986025,81.7520013 70.3365594,82.1740968 C70.1745163,82.5961923 69.8099193,82.5961923 69.4048116,82.5961923 C62.7610442,82.5961923 56.1172768,82.5961923 49.5140201,82.5961923 C49.4329986,82.5961923 49.351977,82.5961923 49.2709555,82.5961923 C48.9468693,82.5961923 48.7038046,82.442703 48.622783,82.1740968 C48.5417615,81.9054905 48.622783,81.6368843 48.8658477,81.4450227 C51.0534296,79.8333853 52.6333499,77.7996523 53.9702056,75.5740577 C54.2942918,75.0368452 54.4563349,74.4996327 54.4158241,73.8856756 C54.4158241,73.7321863 54.3348026,73.6554417 54.2132702,73.6170694 C53.2410116,73.1949738 52.7143715,72.4658998 52.6333499,71.4298471 C52.5523284,70.3554221 53.0384577,69.5112311 54.0512271,68.9740186 C54.2942918,68.8205293 54.3348026,68.5519231 54.0512271,68.3984338 C51.6610913,67.0937749 49.716574,65.3286482 48.0961429,63.2565429 C48.0151214,63.1414259 47.8935891,63.0646813 47.8125675,63.026309 C43.0322958,60.8390867 39.0217289,57.7309288 35.740356,53.7402075 C33.6743064,51.2460066 32.0133645,48.5215719 31.0411059,45.4901586 C30.473955,43.6482872 30.1498688,41.7680435 30.5549766,39.8494275 C31.0816167,37.3552267 32.6210262,35.7052169 35.2542267,35.0528875 C36.8746577,34.630792 38.4950888,34.7842813 40.1560307,35.0912598 C40.4396061,35.1296321 40.6826708,35.2063768 41.006757,35.2447491 C41.006757,34.5924196 41.006757,33.9400902 41.006757,33.3261331 C41.006757,32.6738036 41.2498216,32.481942 41.9385049,32.481942 C53.6461194,32.481942 65.3942447,32.481942 77.1018592,32.481942 C77.1828807,32.481942 77.3044131,32.481942 77.3854346,32.481942 C77.7095208,32.5203144 77.9120747,32.6738036 77.9930963,32.9807822 C78.033607,33.0958992 78.033607,33.2493884 78.033607,33.4028777 C78.033607,34.0168348 78.033607,34.630792 78.033607,35.2447491 C78.1956501,35.2063768 78.2766717,35.2063768 78.3576933,35.1680045 C79.856592,34.8610259 81.31498,34.7075366 82.8543895,34.8610259 C85.6091223,35.1680045 87.6751719,36.8563865 88.3638551,39.427332 C88.5258983,39.8877998 88.566409,40.38664 88.6474306,40.8471079 Z M44.2476191,56.2344083 C44.2476191,56.2344083 44.2881299,56.196036 44.2881299,56.196036 C44.2881299,56.1576636 44.2476191,56.080919 44.2476191,56.0425467 C42.8297419,52.243687 41.9790156,48.291338 41.5333971,44.3006167 C41.371354,42.7273515 41.2498216,41.1924587 41.1282893,39.6191936 C41.1282893,39.542449 41.0472678,39.3889597 40.9662462,39.3889597 C39.5888798,39.0052365 38.2115134,38.6598856 36.7531254,38.8133749 C35.6593344,38.9284918 35.011162,39.427332 34.7680973,40.3482677 C34.5655435,40.9622248 34.5655435,41.6145543 34.646565,42.2668837 C34.8491189,43.8785212 35.4162698,45.413414 36.1454638,46.8715621 C37.6848733,49.8646031 39.8724552,52.4355486 42.4246342,54.7378878 C42.9917851,55.236728 43.6399575,55.7355681 44.2476191,56.2344083 Z M74.7522341,56.2727806 C74.9142772,56.1576636 74.9952988,56.1192913 75.0763203,56.0425467 C76.7372622,54.7762601 78.2361609,53.3948566 79.5730166,51.8599638 C81.2744692,49.9029754 82.6923464,47.7541255 83.664605,45.3750416 C84.1912451,44.0320104 84.5558421,42.6506069 84.5153313,41.1924587 C84.4343098,39.6959382 83.7051158,38.9284918 82.1251955,38.8133749 C80.7478291,38.6982579 79.4514842,39.0052365 78.1551394,39.3889597 C78.0741178,39.427332 78.033607,39.542449 78.033607,39.6575659 C77.9120747,41.9215328 77.6690101,44.1854997 77.3449238,46.4494666 C76.9398161,49.135529 76.3726652,51.7832191 75.5219389,54.3541646 C75.1978527,54.9297494 74.9952988,55.5437065 74.7522341,56.2727806 Z" id="Shape" stroke="#B9B9BA" stroke-width="2"></path>
                <path d="M45.7870287,91.4601983 C45.4224317,91.306709 45.3008993,90.9997305 45.3008993,90.6160073 C45.3008993,88.8125082 45.3008993,87.0090091 45.3008993,85.1671378 C45.3008993,84.5531806 45.543964,84.361319 46.1921364,84.361319 C55.1045073,84.361319 63.9763675,84.361319 72.8887384,84.361319 C73.5369108,84.361319 73.7799755,84.591553 73.7799755,85.1671378 C73.7799755,86.9706368 73.7799755,88.7741359 73.7799755,90.6160073 C73.7799755,90.9997305 73.6584431,91.2683367 73.2938461,91.4601983 C64.0978998,91.4601983 54.9424642,91.4601983 45.7870287,91.4601983 Z" id="Path" stroke="#B9B9BA" stroke-width="2"></path>
                <g id="Group" transform="translate(51.3775, 42.0366)">
                    <ellipse id="Oval" fill="#FFFFFF" fill-rule="nonzero" cx="10.532802" cy="7.98144262" rx="8.26419848" ry="7.82795334"></ellipse>
                    <ellipse id="Oval" stroke="#B9B9BA" stroke-width="2" cx="8.26419848" cy="7.82795334" rx="8.26419848" ry="7.82795334"></ellipse>
                    <path d="M12.5583408,3.68374275 C14.0167288,5.02677396 14.705412,7.06050693 14.2597935,9.05586759 C13.5305995,12.2023978 10.2492265,14.1977585 6.96785362,13.5070567 C3.68648069,12.816355 1.53940952,9.70819703 2.2686035,6.60003909" id="Path" stroke="#B9B9BA" stroke-width="2"></path>
                    <path d="M9.56054334,2.11047762 C10.2492265,2.2639669 10.9379098,2.49420082 11.5050606,2.8395517" id="Path" stroke="#B9B9BA" stroke-width="2"></path>
                </g>
            </g>
        </g>
    </g>
</svg>