<?xml version="1.0" encoding="UTF-8"?>
<svg width="118px" height="108px" viewBox="0 0 129 110" version="1.1" xmlns="http://www.w3.org/2000/svg" xmlns:xlink="http://www.w3.org/1999/xlink">
    <title>Group 26</title>
    <g id="Page-1" stroke="none" stroke-width="1" fill="none" fill-rule="evenodd">
        <g id="Group-26" transform="translate(1, 1)">
            <g id="Group">
                <path d="M27.5976898,85.7810949 C27.6787114,82.55782 27.7192222,79.2961728 27.8812653,76.0728979 C28.0027976,73.5019524 27.2330929,71.2763578 25.572151,69.2426249 C21.4805625,64.2925955 17.4699956,59.3041939 13.4999395,54.3157923 C12.0010408,52.4355486 10.8262282,50.3634433 10.0160127,48.0994764 C8.31456006,43.264564 9.73243725,39.3505874 14.1481119,36.4726633 C16.9028448,34.6691643 19.9816638,33.6331116 23.1415044,32.7505483 C28.9345455,31.1389108 34.7680973,29.5272734 40.5611384,27.8772636 C43.0322958,27.1865618 44.6527269,25.5365521 46.0706041,23.5411914 C49.6760632,18.4760451 53.3220332,13.4492712 57.0490246,8.46086954 C58.6694557,6.27364729 60.5734622,4.35503127 62.963598,2.8968831 C66.9336542,0.441054604 71.0252426,0.594543885 74.8737664,3.24223398 C77.8310532,5.27596696 79.9781243,8.0004017 82.0036632,10.8399534 C85.2850361,15.4062595 88.6069198,20.0109379 91.9288035,24.5772441 C93.1846376,26.2656261 94.8860902,27.3784234 96.9926506,27.9540082 C103.636418,29.7958796 110.280185,31.6761233 116.923953,33.5947393 C119.435621,34.3238134 121.785246,35.4366107 123.891806,36.9715035 C127.659309,39.7343106 128.874632,43.6099149 127.375733,47.9076148 C126.362964,50.8239111 124.661511,53.3564843 122.716994,55.7355681 C118.949492,60.4169912 115.141479,65.0600419 111.333466,69.741465 C109.915588,71.4682194 109.307927,73.4252078 109.388948,75.61243 C109.591502,81.5601397 109.753545,87.469477 109.915588,93.4171866 C109.99661,96.1416214 109.794056,98.8660561 108.983841,101.513746 C107.484942,106.502148 103.798461,109.111466 98.2889955,108.996349 C94.8050687,108.919604 91.5236957,107.960296 88.2828336,106.847499 C82.8949003,105.005627 77.5069669,103.202128 72.1190336,101.360257 C69.7288978,100.554438 67.4197835,100.631183 65.0296477,101.437002 C58.8314988,103.547479 52.6738607,105.619584 46.4352011,107.653317 C43.720979,108.535881 40.9257354,109.034721 38.0494703,108.957976 C33.1881771,108.766115 29.744761,106.156797 28.4079054,101.705608 C27.5976898,98.9044284 27.395136,96.0648767 27.4356467,93.1869527 C27.4761575,90.7311242 27.4356467,88.2752957 27.4356467,85.8194672 C27.4761575,85.7810949 27.5571791,85.7810949 27.5976898,85.7810949 Z" id="Path" fill="#E6F0F5" fill-rule="nonzero"></path>
                <path d="M18.2802112,84.6299253 C18.3612327,81.4066504 18.4017435,78.1450032 18.5637866,74.9217283 C18.6853189,72.3507828 17.9156142,70.1251882 16.2546723,68.0914553 C12.1630839,63.1414259 8.15251695,58.1530243 4.18246082,53.1646227 C2.68356207,51.284379 1.50874954,49.2122737 0.698534005,46.9483068 C-1.00291862,42.1133944 0.414958567,38.1994178 4.83063325,35.3214937 C7.58536607,33.5179947 10.6641851,32.481942 13.8240257,31.5993787 C19.6170668,29.9877412 25.4506187,28.3761038 31.2436598,26.726094 C33.7148172,26.0353922 35.3352482,24.3853825 36.7531254,22.3900218 C40.3585846,17.3248755 44.0045545,12.2981016 47.7315459,7.30969993 C49.351977,5.12247768 51.2559835,3.20386166 53.6461194,1.74571349 C57.6161755,-0.710115005 61.707764,-0.556625724 65.5562878,2.09106438 C68.5135745,4.12479735 70.6606457,6.84923209 72.6861845,9.68878379 C75.9675574,14.2550899 79.2894411,18.8597683 82.6113248,23.4260744 C83.8671589,25.1144565 85.5686115,26.2272538 87.6751719,26.8028386 C94.3189393,28.64471 100.962707,30.5249537 107.606474,32.4435697 C110.118142,33.1726438 112.467767,34.2854411 114.574328,35.8203339 C118.34183,38.583141 119.557153,42.4587453 118.058255,46.7564452 C117.045485,49.6727415 115.344033,52.2053147 113.399515,54.5843985 C109.632013,59.2658216 105.824,63.9088723 102.015987,68.5902954 C100.59811,70.3170498 99.9904481,72.2740382 100.07147,74.4612604 C100.274024,80.4089701 100.436067,86.3183074 100.59811,92.266017 C100.679131,94.9904518 100.476577,97.7148865 99.6663619,100.362577 C98.1674631,105.350978 94.4809824,107.960296 88.9715168,107.845179 C85.48759,107.768434 82.2062171,106.809126 78.9653549,105.696329 C73.5774216,103.854458 68.1894883,102.050959 62.8015549,100.209087 C60.4114191,99.4032686 58.1023048,99.4800132 55.712169,100.285832 C49.5140201,102.39631 43.356382,104.468415 37.1177224,106.502148 C34.4035004,107.384711 31.6082568,107.883551 28.7319916,107.806807 C23.8706984,107.614945 20.4272823,105.005627 19.0904267,100.554438 C18.2802112,97.7532588 18.0776573,94.9137071 18.1181681,92.0357831 C18.1586788,89.5799546 18.1181681,87.1241261 18.1181681,84.6682976 C18.1586788,84.6299253 18.2397004,84.6299253 18.2802112,84.6299253 Z" id="Path" stroke="#4E4E4E" stroke-width="2"></path>
            </g>
            <path d="M65.6373093,74.2693988 L58.1833264,74.2693988 L58.1833264,47.6773809 C55.4691043,50.094837 52.268753,51.8599638 48.5822723,53.0111334 L48.5822723,46.6413282 C50.5267895,46.0273711 52.6333499,44.9145738 54.9019535,43.2261917 C57.170557,41.5378096 58.7504773,39.5808213 59.6012036,37.3552267 L65.6373093,37.3552267 L65.6373093,74.2693988 L65.6373093,74.2693988 Z" id="Path" fill="#35D2AB" fill-rule="nonzero"></path>
            <path d="M62.3964472,74.2693988 L54.9424642,74.2693988 L54.9424642,47.6773809 C52.2282422,50.094837 49.0278908,51.8599638 45.3414101,53.0111334 L45.3414101,46.6413282 C47.2859274,46.0273711 49.3924878,44.9145738 51.6610913,43.2261917 C53.9296948,41.5378096 55.5096151,39.5808213 56.3603414,37.3552267 L62.3964472,37.3552267 L62.3964472,74.2693988 L62.3964472,74.2693988 Z" id="Path" stroke="#4E4E4E" stroke-width="2" stroke-linejoin="round"></path>
            <g id="Group" transform="translate(22.9021, 38.9669)">
                <path d="M61.7347928,8.78726134 C63.1931808,12.0489086 64.0033963,15.6175344 64.0033963,19.3780217 C64.0033963,34.4199713 51.1209693,46.6223691 35.2407448,46.6223691 C19.3605202,46.6223691 6.47809318,34.4199713 6.47809318,19.3780217 C6.47809318,16.2698638 7.04524406,13.2768228 8.0175027,10.5140158" id="Path" stroke="#4E4E4E" stroke-width="2"></path>
                <g transform="translate(6.4113, 0.3837)" id="Path">
                    <path d="M7.23722144,6.52329445 C6.4270059,9.55470775 3.02410064,11.3582068 3.02410064,11.3582068 C3.02410064,11.3582068 0.958051022,8.25004886 1.76826656,5.21863556 C2.5784821,2.18722226 5.98138735,0.383723203 5.98138735,0.383723203 C5.98138735,0.383723203 8.04743697,3.49188115 7.23722144,6.52329445 Z" fill="#FD7699" fill-rule="nonzero"></path>
                    <path d="M5.65730114,6.13957124 C4.8470856,9.17098455 1.44418034,10.9744836 1.44418034,10.9744836 C1.44418034,10.9744836 -0.621869276,7.86632566 0.188346262,4.83491235 C0.998561799,1.80349905 4.40146706,0 4.40146706,0 C4.40146706,0 6.50802745,3.10815794 5.65730114,6.13957124 Z" stroke="#4E4E4E" stroke-width="2"></path>
                </g>
                <g transform="translate(0, 11.857)" id="Path">
                    <path d="M7.20728717,3.56862579 C8.86822902,6.2546882 7.73392727,9.82331399 7.73392727,9.82331399 C7.73392727,9.82331399 3.92591424,8.97912294 2.30548317,6.2546882 C0.644541314,3.56862579 1.77884307,0 1.77884307,0 C1.77884307,0 5.54634532,0.882563366 7.20728717,3.56862579 Z" fill="#FD7699" fill-rule="nonzero"></path>
                    <path d="M5.78940998,4.33607219 C7.45035183,7.02213461 6.31605008,10.5907604 6.31605008,10.5907604 C6.31605008,10.5907604 2.50803705,9.74656935 0.887605976,7.02213461 C-0.732825099,4.29769987 0.360965876,0.767446406 0.360965876,0.767446406 C0.360965876,0.767446406 4.12846812,1.65000977 5.78940998,4.33607219 Z" stroke="#4E4E4E" stroke-width="2"></path>
                </g>
                <g transform="translate(8.2593, 19.378)" id="Path">
                    <path d="M7.21223066,6.86864533 C5.87537503,9.74656935 2.18889433,10.9744836 2.18889433,10.9744836 C2.18889433,10.9744836 0.689995589,7.55934709 1.98634045,4.71979539 C3.32319608,1.84187137 7.00967678,0.613957124 7.00967678,0.613957124 C7.00967678,0.613957124 8.5490863,3.99072131 7.21223066,6.86864533 Z" fill="#FD7699" fill-rule="nonzero"></path>
                    <path d="M5.7538427,6.2546882 C4.41698706,9.13261223 0.730506365,10.3605265 0.730506365,10.3605265 C0.730506365,10.3605265 -0.768392379,6.94538997 0.527952481,4.10583827 C1.86480812,1.22791425 5.55128881,0 5.55128881,0 C5.55128881,0 7.09069833,3.37676418 5.7538427,6.2546882 Z" stroke="#4E4E4E" stroke-width="2"></path>
                </g>
                <g transform="translate(2.1434, 32.4155)" id="Path">
                    <path d="M7.0083644,0.23938464 C10.168205,1.12194801 11.9101684,4.42196755 11.9101684,4.42196755 C11.9101684,4.42196755 8.54777392,6.26383892 5.38793332,5.38127556 C2.22809273,4.49871219 0.486129322,1.19869265 0.486129322,1.19869265 C0.486129322,1.19869265 3.8485238,-0.643178726 7.0083644,0.23938464 Z" fill="#FD7699" fill-rule="nonzero"></path>
                    <path d="M6.52223508,1.73590513 C9.68207567,2.6184685 11.4240391,5.91848804 11.4240391,5.91848804 C11.4240391,5.91848804 8.0616446,7.76035941 4.901804,6.87779605 C1.74196341,5.99523268 0,2.69521314 0,2.69521314 C0,2.69521314 3.36239448,0.814969444 6.52223508,1.73590513 Z" stroke="#4E4E4E" stroke-width="2"></path>
                </g>
                <g transform="translate(16.6058, 30.3141)" id="Path">
                    <path d="M7.29193984,5.6791034 C7.29193984,8.78726134 4.45618546,11.3582068 4.45618546,11.3582068 C4.45618546,11.3582068 1.62043107,8.82563366 1.62043107,5.6791034 C1.62043107,2.53257314 4.45618546,0 4.45618546,0 C4.45618546,0 7.29193984,2.53257314 7.29193984,5.6791034 Z" fill="#FD7699" fill-rule="nonzero"></path>
                    <path d="M5.67150876,5.6791034 C5.67150876,8.78726134 2.83575438,11.3582068 2.83575438,11.3582068 C2.83575438,11.3582068 0,8.82563366 0,5.6791034 C0,2.53257314 2.83575438,0 2.83575438,0 C2.83575438,0 5.67150876,2.53257314 5.67150876,5.6791034 Z" stroke="#4E4E4E" stroke-width="2"></path>
                </g>
                <g transform="translate(14.2562, 42.8381)" id="Path">
                    <path d="M5.22589022,0.138865455 C8.46675236,-0.55183631 11.6671037,1.55864131 11.6671037,1.55864131 C11.6671037,1.55864131 9.68207567,4.74354389 6.44121352,5.39587333 C3.20035137,6.0865751 0,3.97609748 0,3.97609748 C0,3.97609748 1.98502807,0.7911949 5.22589022,0.138865455 Z" fill="#FD7699" fill-rule="nonzero"></path>
                    <path d="M5.54997643,1.63538595 C8.79083858,0.944684181 11.99119,3.0551618 11.99119,3.0551618 C11.99119,3.0551618 10.0061619,6.24006438 6.76529974,6.89239382 C3.52443759,7.58309559 0.324086215,5.47261797 0.324086215,5.47261797 C0.324086215,5.47261797 2.34962506,2.28771539 5.54997643,1.63538595 Z" stroke="#4E4E4E" stroke-width="2"></path>
                </g>
                <g transform="translate(44.1531, 0)" id="Path">
                    <g transform="translate(12.4105, 0)">
                        <path d="M0.188346262,6.52329445 C0.998561799,9.55470775 4.40146706,11.3582068 4.40146706,11.3582068 C4.40146706,11.3582068 6.46751668,8.25004886 5.65730114,5.21863556 C4.8470856,2.18722226 1.44418034,0.383723203 1.44418034,0.383723203 C1.44418034,0.383723203 -0.621869276,3.49188115 0.188346262,6.52329445 Z" fill="#FD7699" fill-rule="nonzero"></path>
                        <path d="M1.76826656,6.13957124 C2.5784821,9.17098455 5.98138735,10.9744836 5.98138735,10.9744836 C5.98138735,10.9744836 8.04743697,7.86632566 7.23722144,4.83491235 C6.4270059,1.80349905 3.02410064,0 3.02410064,0 C3.02410064,0 0.917540245,3.10815794 1.76826656,6.13957124 Z" stroke="#4E4E4E" stroke-width="2"></path>
                    </g>
                    <g transform="translate(18.1354, 11.4733)">
                        <path d="M0.904700498,3.56862579 C-0.756241353,6.2546882 0.378060399,9.82331399 0.378060399,9.82331399 C0.378060399,9.82331399 4.18607342,8.97912294 5.8065045,6.2546882 C7.46744635,3.56862579 6.3331446,0 6.3331446,0 C6.3331446,0 2.56564235,0.882563366 0.904700498,3.56862579 Z" fill="#FD7699" fill-rule="nonzero"></path>
                        <path d="M2.32257769,4.33607219 C0.661635837,7.02213461 1.79593759,10.5907604 1.79593759,10.5907604 C1.79593759,10.5907604 5.60395061,9.74656935 7.22438169,7.02213461 C8.88532354,4.33607219 7.75102179,0.767446406 7.75102179,0.767446406 C7.75102179,0.767446406 3.98351954,1.65000977 2.32257769,4.33607219 Z" stroke="#4E4E4E" stroke-width="2"></path>
                    </g>
                    <g transform="translate(10.23, 18.9943)">
                        <path d="M0.545836772,6.86864533 C1.88269241,9.74656935 5.5691731,10.9744836 5.5691731,10.9744836 C5.5691731,10.9744836 7.06807185,7.55934709 5.77172699,4.71979539 C4.43487135,1.84187137 0.748390657,0.613957124 0.748390657,0.613957124 C0.748390657,0.613957124 -0.791018864,3.99072131 0.545836772,6.86864533 Z" fill="#FD7699" fill-rule="nonzero"></path>
                        <path d="M2.00422474,6.2546882 C3.34108038,9.13261223 7.02756107,10.3605265 7.02756107,10.3605265 C7.02756107,10.3605265 8.52645981,6.94538997 7.23011496,4.10583827 C5.89325932,1.22791425 2.20677862,0 2.20677862,0 C2.20677862,0 0.667369103,3.37676418 2.00422474,6.2546882 Z" stroke="#4E4E4E" stroke-width="2"></path>
                    </g>
                    <g transform="translate(12.1937, 32.0317)">
                        <path d="M4.901804,0.23938464 C1.74196341,1.12194801 0,4.42196755 0,4.42196755 C0,4.42196755 3.36239448,6.26383892 6.52223508,5.38127556 C9.68207567,4.49871219 11.4240391,1.19869265 11.4240391,1.19869265 C11.4240391,1.19869265 8.0616446,-0.643178726 4.901804,0.23938464 Z" fill="#FD7699" fill-rule="nonzero"></path>
                        <path d="M5.38793332,1.73590513 C2.22809273,2.6184685 0.486129322,5.91848804 0.486129322,5.91848804 C0.486129322,5.91848804 3.8485238,7.76035941 7.0083644,6.87779605 C10.168205,5.99523268 11.9101684,2.69521314 11.9101684,2.69521314 C11.9101684,2.69521314 8.54777392,0.814969444 5.38793332,1.73590513 Z" stroke="#4E4E4E" stroke-width="2"></path>
                    </g>
                    <g transform="translate(2.3496, 29.9304)">
                        <path d="M0,5.6791034 C0,8.78726134 2.83575438,11.3582068 2.83575438,11.3582068 C2.83575438,11.3582068 5.67150876,8.82563366 5.67150876,5.6791034 C5.67150876,2.53257314 2.83575438,0 2.83575438,0 C2.83575438,0 0,2.53257314 0,5.6791034 Z" fill="#FD7699" fill-rule="nonzero"></path>
                        <path d="M1.62043107,5.6791034 C1.62043107,8.78726134 4.45618546,11.3582068 4.45618546,11.3582068 C4.45618546,11.3582068 7.29193984,8.82563366 7.29193984,5.6791034 C7.29193984,2.53257314 4.45618546,0 4.45618546,0 C4.45618546,0 1.62043107,2.53257314 1.62043107,5.6791034 Z" stroke="#4E4E4E" stroke-width="2"></path>
                    </g>
                    <g transform="translate(0, 42.4544)">
                        <path d="M6.76529974,0.138865455 C3.52443759,-0.55183631 0.324086215,1.55864131 0.324086215,1.55864131 C0.324086215,1.55864131 2.30911428,4.74354389 5.54997643,5.39587333 C8.79083858,6.0865751 11.99119,3.97609748 11.99119,3.97609748 C11.99119,3.97609748 10.0061619,0.7911949 6.76529974,0.138865455 Z" fill="#FD7699" fill-rule="nonzero"></path>
                        <path d="M6.44121352,1.63538595 C3.20035137,0.944684181 0,3.0551618 0,3.0551618 C0,3.0551618 1.98502807,6.24006438 5.22589022,6.89239382 C8.46675236,7.58309559 11.6671037,5.47261797 11.6671037,5.47261797 C11.6671037,5.47261797 9.64156489,2.28771539 6.44121352,1.63538595 Z" stroke="#4E4E4E" stroke-width="2"></path>
                    </g>
                </g>
            </g>
        </g>
    </g>
</svg>