<?xml version="1.0" encoding="UTF-8"?>
<svg width="129px" height="110px" viewBox="0 0 129 110" version="1.1" xmlns="http://www.w3.org/2000/svg" xmlns:xlink="http://www.w3.org/1999/xlink">
    <title>Group</title>
    <g id="Page-1" stroke="none" stroke-width="1" fill="none" fill-rule="evenodd">
        <g id="Group" transform="translate(1, 1)">
            <path d="M27.5976898,85.7810949 C27.6787114,82.55782 27.7192222,79.2961728 27.8812653,76.0728979 C28.0027976,73.5019524 27.2330929,71.2763578 25.572151,69.2426249 C21.4805625,64.2925955 17.4699956,59.3041939 13.4999395,54.3157923 C12.0010408,52.4355486 10.8262282,50.3634433 10.0160127,48.0994764 C8.31456006,43.264564 9.73243725,39.3505874 14.1481119,36.4726633 C16.9028448,34.6691643 19.9816638,33.6331116 23.1415044,32.7505483 C28.9345455,31.1389108 34.7680973,29.5272734 40.5611384,27.8772636 C43.0322958,27.1865618 44.6527269,25.5365521 46.0706041,23.5411914 C49.6760632,18.4760451 53.3220332,13.4492712 57.0490246,8.46086954 C58.6694557,6.27364729 60.5734622,4.35503127 62.963598,2.8968831 C66.9336542,0.441054604 71.0252426,0.594543885 74.8737664,3.24223398 C77.8310532,5.27596696 79.9781243,8.0004017 82.0036632,10.8399534 C85.2850361,15.4062595 88.6069198,20.0109379 91.9288035,24.5772441 C93.1846376,26.2656261 94.8860902,27.3784234 96.9926506,27.9540082 C103.636418,29.7958796 110.280185,31.6761233 116.923953,33.5947393 C119.435621,34.3238134 121.785246,35.4366107 123.891806,36.9715035 C127.659309,39.7343106 128.874632,43.6099149 127.375733,47.9076148 C126.362964,50.8239111 124.661511,53.3564843 122.716994,55.7355681 C118.949492,60.4169912 115.141479,65.0600419 111.333466,69.741465 C109.915588,71.4682194 109.307927,73.4252078 109.388948,75.61243 C109.591502,81.5601397 109.753545,87.469477 109.915588,93.4171866 C109.99661,96.1416214 109.794056,98.8660561 108.983841,101.513746 C107.484942,106.502148 103.798461,109.111466 98.2889955,108.996349 C94.8050687,108.919604 91.5236957,107.960296 88.2828336,106.847499 C82.8949003,105.005627 77.5069669,103.202128 72.1190336,101.360257 C69.7288978,100.554438 67.4197835,100.631183 65.0296477,101.437002 C58.8314988,103.547479 52.6738607,105.619584 46.4352011,107.653317 C43.720979,108.535881 40.9257354,109.034721 38.0494703,108.957976 C33.1881771,108.766115 29.744761,106.156797 28.4079054,101.705608 C27.5976898,98.9044284 27.395136,96.0648767 27.4356467,93.1869527 C27.4761575,90.7311242 27.4356467,88.2752957 27.4356467,85.8194672 C27.4761575,85.7810949 27.5571791,85.7810949 27.5976898,85.7810949 Z" id="Path" fill="#E6F0F5" fill-rule="nonzero"></path>
            <path d="M18.2802112,84.6299253 C18.3612327,81.4066504 18.4017435,78.1450032 18.5637866,74.9217283 C18.6853189,72.3507828 17.9156142,70.1251882 16.2546723,68.0914553 C12.1630839,63.1414259 8.15251695,58.1530243 4.18246082,53.1646227 C2.68356207,51.284379 1.50874954,49.2122737 0.698534005,46.9483068 C-1.00291862,42.1133944 0.414958567,38.1994178 4.83063325,35.3214937 C7.58536607,33.5179947 10.6641851,32.481942 13.8240257,31.5993787 C19.6170668,29.9877412 25.4506187,28.3761038 31.2436598,26.726094 C33.7148172,26.0353922 35.3352482,24.3853825 36.7531254,22.3900218 C40.3585846,17.3248755 44.0045545,12.2981016 47.7315459,7.30969993 C49.351977,5.12247768 51.2559835,3.20386166 53.6461194,1.74571349 C57.6161755,-0.710115005 61.707764,-0.556625724 65.5562878,2.09106438 C68.5135745,4.12479735 70.6606457,6.84923209 72.6861845,9.68878379 C75.9675574,14.2550899 79.2894411,18.8597683 82.6113248,23.4260744 C83.8671589,25.1144565 85.5686115,26.2272538 87.6751719,26.8028386 C94.3189393,28.64471 100.962707,30.5249537 107.606474,32.4435697 C110.118142,33.1726438 112.467767,34.2854411 114.574328,35.8203339 C118.34183,38.583141 119.557153,42.4587453 118.058255,46.7564452 C117.045485,49.6727415 115.344033,52.2053147 113.399515,54.5843985 C109.632013,59.2658216 105.824,63.9088723 102.015987,68.5902954 C100.59811,70.3170498 99.9904481,72.2740382 100.07147,74.4612604 C100.274024,80.4089701 100.436067,86.3183074 100.59811,92.266017 C100.679131,94.9904518 100.476577,97.7148865 99.6663619,100.362577 C98.1674631,105.350978 94.4809824,107.960296 88.9715168,107.845179 C85.48759,107.768434 82.2062171,106.809126 78.9653549,105.696329 C73.5774216,103.854458 68.1894883,102.050959 62.8015549,100.209087 C60.4114191,99.4032686 58.1023048,99.4800132 55.712169,100.285832 C49.5140201,102.39631 43.356382,104.468415 37.1177224,106.502148 C34.4035004,107.384711 31.6082568,107.883551 28.7319916,107.806807 C23.8706984,107.614945 20.4272823,105.005627 19.0904267,100.554438 C18.2802112,97.7532588 18.0776573,94.9137071 18.1181681,92.0357831 C18.1586788,89.5799546 18.1181681,87.1241261 18.1181681,84.6682976 C18.1586788,84.6299253 18.2397004,84.6299253 18.2802112,84.6299253 Z" id="Path" stroke="#4E4E4E" stroke-width="2"></path>
            <path d="M89.2550922,87.6997109 L83.7456266,87.6997109 C82.6923464,87.6997109 81.8416201,86.8938922 81.8416201,85.8962119 L81.8416201,68.3984338 C81.8416201,67.4007535 82.6923464,66.5949348 83.7456266,66.5949348 L89.2550922,66.5949348 C90.3083724,66.5949348 91.1590987,67.4007535 91.1590987,68.3984338 L91.1590987,85.8962119 C91.1590987,86.8938922 90.3083724,87.6997109 89.2550922,87.6997109 Z" id="Path" fill="#FFFFFF" fill-rule="nonzero"></path>
            <path d="M54.0917379,79.8333853 C51.2559835,78.6822156 51.6610913,74.8449836 54.2942918,74.8449836 L63.5307489,74.8449836 C64.5030076,74.8449836 65.4752662,74.653122 66.3665033,74.2693988 L73.2128246,71.4682194 C73.9420186,71.1612409 74.7522341,70.9693793 75.5624497,70.931007 L81.8416201,70.5089114 L81.8416201,85.5892333 L77.5474777,85.5892333 C72.2810767,87.9683172 66.9336542,89.6566992 61.5052101,90.0787948 C60.0468221,90.1939117 58.5884341,90.0787948 57.170557,89.6950716 C51.2154728,88.0834341 43.2348497,83.8241066 33.9578818,77.9147692 C31.0005951,75.9961532 32.2159184,71.3914748 36.2669961,72.5426444 L54.9019535,80.2171085 L54.0917379,79.8333853 Z" id="Path" fill="#FD7699" fill-rule="nonzero"></path>
            <path d="M87.2295534,87.6997109 L81.7200877,87.6997109 C80.6668075,87.6997109 79.8160812,86.8938922 79.8160812,85.8962119 L79.8160812,68.3984338 C79.8160812,67.4007535 80.6668075,66.5949348 81.7200877,66.5949348 L87.2295534,66.5949348 C88.2828336,66.5949348 89.1335599,67.4007535 89.1335599,68.3984338 L89.1335599,85.8962119 C89.1335599,86.8938922 88.2828336,87.6997109 87.2295534,87.6997109 Z" id="Path" stroke="#4E4E4E" stroke-width="2"></path>
            <path d="M52.0661991,79.0659388 C49.2304447,77.9147692 49.6355525,74.0775372 52.268753,74.0775372 L61.5052101,74.0775372 C62.4774687,74.0775372 63.4497274,73.8856756 64.3409645,73.5019524 L71.1872858,70.700773 C71.9164797,70.3937945 72.7266953,70.2019329 73.5369108,70.1635605 L79.8160812,69.741465" id="Path" stroke="#4E4E4E" stroke-width="3"></path>
            <path d="M79.8160812,84.8217869 L75.5219389,84.8217869 C70.2555379,87.2008707 64.9081153,88.8892528 59.4796712,89.3113484 C58.0212833,89.4264653 56.5628953,89.3113484 55.1450181,88.9276252 C49.1899339,87.3159877 41.2093109,83.0566602 31.932343,77.1473228 C28.9750563,75.2287068 30.1903796,70.6240284 34.2414572,71.775198 L52.8764146,79.4496621 L63.8143244,79.4496621 C65.1916908,79.6031513 66.1639494,80.2554808 66.6500787,81.7520013" id="Path" stroke="#4E4E4E" stroke-width="3"></path>
            <path d="M52.0661991,79.0659388 C49.2304447,77.9147692 49.6355525,74.0775372 52.268753,74.0775372 L61.5052101,74.0775372 C62.4774687,74.0775372 63.4497274,73.8856756 64.3409645,73.5019524 L71.1872858,70.700773 C71.9164797,70.3937945 72.7266953,70.2019329 73.5369108,70.1635605 L79.8160812,69.741465" id="Path" stroke="#4E4E4E" stroke-width="2"></path>
            <path d="M79.8160812,84.8217869 L75.5219389,84.8217869 C70.2555379,87.2008707 64.9081153,88.8892528 59.4796712,89.3113484 C58.0212833,89.4264653 56.5628953,89.3113484 55.1450181,88.9276252 C49.1899339,87.3159877 41.2093109,83.0566602 31.932343,77.1473228 C28.9750563,75.2287068 30.1903796,70.6240284 34.2414572,71.775198 L52.8764146,79.4496621 L63.8143244,79.4496621 C65.1916908,79.6031513 66.1639494,80.2554808 66.6500787,81.7520013" id="Path" stroke="#4E4E4E" stroke-width="2"></path>
            <path d="M29.7852718,33.7098563 L35.2947374,33.7098563 C36.3480176,33.7098563 37.198744,34.515675 37.198744,35.5133553 L37.198744,53.0111334 C37.198744,54.0088137 36.3480176,54.8146324 35.2947374,54.8146324 L29.7852718,54.8146324 C28.7319916,54.8146324 27.8812653,54.0088137 27.8812653,53.0111334 L27.8812653,35.5133553 C27.8812653,34.515675 28.7319916,33.7098563 29.7852718,33.7098563 Z" id="Path" fill="#FFFFFF" fill-rule="nonzero"></path>
            <path d="M64.9486261,41.5761819 C67.7843805,42.7273515 67.3792727,46.5645836 64.7460722,46.5645836 L55.5096151,46.5645836 C54.5373565,46.5645836 53.5650978,46.7564452 52.6738607,47.1401684 L45.8275394,49.9413478 C45.0983454,50.2483263 44.2881299,50.4401879 43.4779144,50.4785602 L37.198744,50.9006558 L37.198744,35.8203339 L41.4928863,35.8203339 C46.7592873,33.44125 52.1067098,31.7528679 57.5351539,31.3307724 C58.9935419,31.2156555 60.4519299,31.3307724 61.8698071,31.7144956 C67.8248913,33.3261331 75.8055143,37.5854606 85.0824822,43.494798 C88.0397689,45.413414 86.8244456,50.0180924 82.7733679,48.8669228 L64.1384106,41.1924587 L64.9486261,41.5761819 Z" id="Path" fill="#FD7699" fill-rule="nonzero"></path>
            <path d="M31.8108106,33.7098563 L37.3202763,33.7098563 C38.3735565,33.7098563 39.2242828,34.515675 39.2242828,35.5133553 L39.2242828,53.0111334 C39.2242828,54.0088137 38.3735565,54.8146324 37.3202763,54.8146324 L31.8108106,54.8146324 C30.7575304,54.8146324 29.9068041,54.0088137 29.9068041,53.0111334 L29.9068041,35.5133553 C29.9068041,34.515675 30.7575304,33.7098563 31.8108106,33.7098563 Z" id="Path" stroke="#4E4E4E" stroke-width="2"></path>
            <path d="M66.974165,42.3436283 C69.8099193,43.494798 69.4048116,47.33203 66.7716111,47.33203 L57.5351539,47.33203 C56.5628953,47.33203 55.5906367,47.5238916 54.6993996,47.9076148 L47.8530783,50.7087942 C47.1238843,51.0157727 46.3136688,51.2076343 45.5034532,51.2460066 L39.2242828,51.6681022" id="Path" stroke="#4E4E4E" stroke-width="3"></path>
            <path d="M39.2242828,36.6261526 L43.5184252,36.6261526 C48.7848261,34.2470688 54.1322487,32.5586867 59.5606928,32.1365912 C61.0190808,32.0214742 62.4774687,32.1365912 63.8953459,32.5203144 C69.8504301,34.1319518 77.8310532,38.3912794 87.1080211,44.3006167 C90.0653078,46.2192327 88.8499845,50.8239111 84.7989068,49.6727415 L66.1639494,41.9982775 L55.2260397,41.9982775 C53.8486733,41.8447882 52.8764146,41.1924587 52.3902853,39.6959382" id="Path" stroke="#4E4E4E" stroke-width="3"></path>
            <path d="M66.974165,42.3436283 C69.8099193,43.494798 69.4048116,47.33203 66.7716111,47.33203 L57.5351539,47.33203 C56.5628953,47.33203 55.5906367,47.5238916 54.6993996,47.9076148 L47.8530783,50.7087942 C47.1238843,51.0157727 46.3136688,51.2076343 45.5034532,51.2460066 L39.2242828,51.6681022" id="Path" stroke="#4E4E4E" stroke-width="2"></path>
            <path d="M39.2242828,36.6261526 L43.5184252,36.6261526 C48.7848261,34.2470688 54.1322487,32.5586867 59.5606928,32.1365912 C61.0190808,32.0214742 62.4774687,32.1365912 63.8953459,32.5203144 C69.8504301,34.1319518 77.8310532,38.3912794 87.1080211,44.3006167 C90.0653078,46.2192327 88.8499845,50.8239111 84.7989068,49.6727415 L66.1639494,41.9982775 L55.2260397,41.9982775 C53.8486733,41.8447882 52.8764146,41.1924587 52.3902853,39.6959382" id="Path" stroke="#4E4E4E" stroke-width="2"></path>
            <ellipse id="Oval" fill="#FFFFFF" fill-rule="nonzero" cx="61.7887855" cy="61.4146715" rx="9.52003256" ry="9.01749526"></ellipse>
            <ellipse id="Oval" stroke="#4E4E4E" stroke-width="2" cx="59.155585" cy="61.2228099" rx="9.52003256" ry="9.01749526"></ellipse>
            <path d="M64.1384106,56.4262699 C65.7993524,57.999535 66.609568,60.3018742 66.0829279,62.6425858 C65.2727123,66.2495839 61.4646993,68.5519231 57.6566863,67.7844767 C53.8486733,67.0170303 51.4180266,63.4100322 52.2282422,59.8030341" id="Path" stroke="#4E4E4E" stroke-width="2"></path>
            <path d="M60.6544838,54.6611432 C61.4646993,54.8146324 62.2344041,55.121611 62.8825765,55.5053342" id="Path" stroke="#4E4E4E" stroke-width="2"></path>
        </g>
    </g>
</svg>