<?xml version="1.0" encoding="UTF-8"?>
<svg width="121px" height="110px" viewBox="0 0 121 110" version="1.1" xmlns="http://www.w3.org/2000/svg" xmlns:xlink="http://www.w3.org/1999/xlink">
    <title>Group 28</title>
    <g id="Page-1" stroke="none" stroke-width="1" fill="none" fill-rule="evenodd">
        <g id="iPhone-13-mini" transform="translate(-42, -1449)">
            <g id="Group-28" transform="translate(43, 1450)">
                <g id="Group" stroke="#B9B9BA" stroke-width="2">
                    <path d="M18.2802112,84.6299253 C18.3612327,81.4066504 18.4017435,78.1450032 18.5637866,74.9217283 C18.6853189,72.3507828 17.9156142,70.1251882 16.2546723,68.0914553 C12.1630839,63.1414259 8.15251695,58.1530243 4.18246082,53.1646227 C2.68356207,51.284379 1.50874954,49.2122737 0.698534005,46.9483068 C-1.00291862,42.1133944 0.414958567,38.1994178 4.83063325,35.3214937 C7.58536607,33.5179947 10.6641851,32.481942 13.8240257,31.5993787 C19.6170668,29.9877412 25.4506187,28.3761038 31.2436598,26.726094 C33.7148172,26.0353922 35.3352482,24.3853825 36.7531254,22.3900218 C40.3585846,17.3248755 44.0045545,12.2981016 47.7315459,7.30969993 C49.351977,5.12247768 51.2559835,3.20386166 53.6461194,1.74571349 C57.6161755,-0.710115005 61.707764,-0.556625724 65.5562878,2.09106438 C68.5135745,4.12479735 70.6606457,6.84923209 72.6861845,9.68878379 C75.9675574,14.2550899 79.2894411,18.8597683 82.6113248,23.4260744 C83.8671589,25.1144565 85.5686115,26.2272538 87.6751719,26.8028386 C94.3189393,28.64471 100.962707,30.5249537 107.606474,32.4435697 C110.118142,33.1726438 112.467767,34.2854411 114.574328,35.8203339 C118.34183,38.583141 119.557153,42.4587453 118.058255,46.7564452 C117.045485,49.6727415 115.344033,52.2053147 113.399515,54.5843985 C109.632013,59.2658216 105.824,63.9088723 102.015987,68.5902954 C100.59811,70.3170498 99.9904481,72.2740382 100.07147,74.4612604 C100.274024,80.4089701 100.436067,86.3183074 100.59811,92.266017 C100.679131,94.9904518 100.476577,97.7148865 99.6663619,100.362577 C98.1674631,105.350978 94.4809824,107.960296 88.9715168,107.845179 C85.48759,107.768434 82.2062171,106.809126 78.9653549,105.696329 C73.5774216,103.854458 68.1894883,102.050959 62.8015549,100.209087 C60.4114191,99.4032686 58.1023048,99.4800132 55.712169,100.285832 C49.5140201,102.39631 43.356382,104.468415 37.1177224,106.502148 C34.4035004,107.384711 31.6082568,107.883551 28.7319916,107.806807 C23.8706984,107.614945 20.4272823,105.005627 19.0904267,100.554438 C18.2802112,97.7532588 18.0776573,94.9137071 18.1181681,92.0357831 C18.1586788,89.5799546 18.1181681,87.1241261 18.1181681,84.6682976 C18.1586788,84.6299253 18.2397004,84.6299253 18.2802112,84.6299253 Z" id="Path"></path>
                </g>
                <g id="Group" transform="translate(30.6765, 23.311)">
                    <path d="M50.5574495,26.7838796 C50.5574495,17.5745227 42.4552942,10.1302926 32.6516862,10.4756434 C23.9013584,10.8209943 16.6904401,17.4594057 16.1638,25.7478269 C15.8802245,30.0838991 17.3791233,34.0746204 20.0528345,37.144406 C22.2809273,39.7153515 23.7393152,42.7851371 24.2659553,46.0467843 L25.4002571,53.0689189 C25.6838325,54.8340457 27.2637528,56.1387046 29.1677593,56.1387046 L37.5940009,56.1387046 C39.4980074,56.1387046 41.0779277,54.8340457 41.3615032,53.0689189 L42.3742726,46.2770183 C42.9009127,42.8618817 44.4403222,39.7153515 46.7494365,37.0676614 C49.0990616,34.266482 50.5574495,30.6978562 50.5574495,26.7838796 Z" id="Path" fill="#EBEBED" fill-rule="nonzero"></path>
                    <path d="M47.3165874,26.7838796 C47.3165874,17.5745227 39.214432,10.1302926 29.410824,10.4756434 C20.6604962,10.8209943 13.4495779,17.4594057 12.9229378,25.7478269 C12.6393624,30.0838991 14.1382611,34.0746204 16.8119724,37.144406 C19.0400651,39.7153515 20.4984531,42.7851371 21.0250932,46.0467843 L22.1593949,53.0689189 C22.4429704,54.8340457 24.0228907,56.1387046 25.9268972,56.1387046 L34.3531388,56.1387046 C36.2571453,56.1387046 37.8370656,54.8340457 38.120641,53.0689189 L39.1334105,46.2770183 C39.6600506,42.8618817 41.1994601,39.7153515 43.5085744,37.0676614 C45.8581994,34.266482 47.3165874,30.6978562 47.3165874,26.7838796 Z" id="Path" stroke="#B9B9BA" stroke-width="2"></path>
                    <path d="M39.0928997,61.5108294 L26.332005,61.5108294 C25.8458756,61.5108294 25.4002571,61.1271062 25.4002571,60.628266 L25.4002571,59.2852348 C25.4002571,58.824767 25.8053649,58.4026715 26.332005,58.4026715 L39.0928997,58.4026715 C39.579029,58.4026715 40.0246475,58.7863947 40.0246475,59.2852348 L40.0246475,60.628266 C40.0246475,61.1271062 39.6195398,61.5108294 39.0928997,61.5108294 Z" id="Path" fill="#EBEBED" fill-rule="nonzero"></path>
                    <path d="M39.0928997,66.499231 C39.0928997,70.0678568 26.332005,70.0678568 26.332005,66.499231 C25.8458756,66.499231 25.4002571,66.1155078 25.4002571,65.6166677 L25.4002571,64.2736365 C25.4002571,63.8131686 25.8053649,63.3910731 26.332005,63.3910731 L39.0928997,63.3910731 C39.579029,63.3910731 40.0246475,63.7747963 40.0246475,64.2736365 L40.0246475,65.6166677 C40.0246475,66.1155078 39.6195398,66.499231 39.0928997,66.499231 Z" id="Path" fill="#EBEBED" fill-rule="nonzero"></path>
                    <path d="M36.2571453,61.5108294 L23.4962506,61.5108294 C23.0101213,61.5108294 22.5645027,61.1271062 22.5645027,60.628266 L22.5645027,59.2852348 C22.5645027,58.824767 22.9696105,58.4026715 23.4962506,58.4026715 L36.2571453,58.4026715 C36.7432746,58.4026715 37.1888932,58.7863947 37.1888932,59.2852348 L37.1888932,60.628266 C37.1888932,61.1271062 36.7837854,61.5108294 36.2571453,61.5108294 Z" id="Path" stroke="#B9B9BA" stroke-width="2"></path>
                    <path d="M36.2571453,66.499231 C36.2571453,70.0678568 23.4962506,70.0678568 23.4962506,66.499231 C23.0101213,66.499231 22.5645027,66.1155078 22.5645027,65.6166677 L22.5645027,64.2736365 C22.5645027,63.8131686 22.9696105,63.3910731 23.4962506,63.3910731 L36.2571453,63.3910731 C36.7432746,63.3910731 37.1888932,63.7747963 37.1888932,64.2736365 L37.1888932,65.6166677 C37.1888932,66.1155078 36.7837854,66.499231 36.2571453,66.499231 Z" id="Path" stroke="#B9B9BA" stroke-width="2"></path>
                    <line x1="23.5367614" y1="66.499231" x2="30.7071689" y2="66.499231" id="Path" stroke="#B9B9BA" stroke-width="2"></line>
                    <path d="M42.0501864,26.592018 C42.0501864,20.3757021 36.8242962,15.3105558 30.3020611,15.0803219" id="Path" stroke="#B9B9BA" stroke-width="2"></path>
                    <path d="M36.5812315,25.9396885 C36.5812315,22.4861797 33.7049664,19.7233726 30.0995072,19.6082557" id="Path" stroke="#B9B9BA" stroke-width="2"></path>
                    <line x1="14.5028581" y1="39.6386068" x2="8.42624159" y2="45.3944549" id="Path" stroke="#B9B9BA" stroke-width="2"></line>
                    <line x1="49.1395723" y1="6.83027301" x2="43.0629558" y2="12.5861211" id="Path" stroke="#B9B9BA" stroke-width="2"></line>
                    <line x1="8.5882847" y1="26.0931778" x2="0" y2="26.0931778" id="Path" stroke="#B9B9BA" stroke-width="2"></line>
                    <line x1="57.5658139" y1="26.0931778" x2="48.9775292" y2="26.0931778" id="Path" stroke="#B9B9BA" stroke-width="2"></line>
                    <line x1="16.1232892" y1="13.7372907" x2="10.0466727" y2="7.98144262" id="Path" stroke="#B9B9BA" stroke-width="2"></line>
                    <line x1="50.7600034" y1="46.5456245" x2="44.6833869" y2="40.7897765" id="Path" stroke="#B9B9BA" stroke-width="2"></line>
                    <line x1="30.4235934" y1="8.1349319" x2="30.4235934" y2="0" id="Path" stroke="#B9B9BA" stroke-width="2"></line>
                </g>
            </g>
        </g>
    </g>
</svg>