<?xml version="1.0" encoding="UTF-8"?>
<svg width="129px" height="110px" viewBox="0 0 129 110" version="1.1" xmlns="http://www.w3.org/2000/svg" xmlns:xlink="http://www.w3.org/1999/xlink">
    <title>Group</title>
    <g id="Page-1" stroke="none" stroke-width="1" fill="none" fill-rule="evenodd">
        <g id="Group" transform="translate(1, 1)">
            <g id="Path">
                <path d="M27.5976898,85.7810949 C27.6787114,82.55782 27.7192222,79.2961728 27.8812653,76.0728979 C28.0027976,73.5019524 27.2330929,71.2763578 25.572151,69.2426249 C21.4805625,64.2925955 17.4699956,59.3041939 13.4999395,54.3157923 C12.0010408,52.4355486 10.8262282,50.3634433 10.0160127,48.0994764 C8.31456006,43.264564 9.73243725,39.3505874 14.1481119,36.4726633 C16.9028448,34.6691643 19.9816638,33.6331116 23.1415044,32.7505483 C28.9345455,31.1389108 34.7680973,29.5272734 40.5611384,27.8772636 C43.0322958,27.1865618 44.6527269,25.5365521 46.0706041,23.5411914 C49.6760632,18.4760451 53.3220332,13.4492712 57.0490246,8.46086954 C58.6694557,6.27364729 60.5734622,4.35503127 62.963598,2.8968831 C66.9336542,0.441054604 71.0252426,0.594543885 74.8737664,3.24223398 C77.8310532,5.27596696 79.9781243,8.0004017 82.0036632,10.8399534 C85.2850361,15.4062595 88.6069198,20.0109379 91.9288035,24.5772441 C93.1846376,26.2656261 94.8860902,27.3784234 96.9926506,27.9540082 C103.636418,29.7958796 110.280185,31.6761233 116.923953,33.5947393 C119.435621,34.3238134 121.785246,35.4366107 123.891806,36.9715035 C127.659309,39.7343106 128.874632,43.6099149 127.375733,47.9076148 C126.362964,50.8239111 124.661511,53.3564843 122.716994,55.7355681 C118.949492,60.4169912 115.141479,65.0600419 111.333466,69.741465 C109.915588,71.4682194 109.307927,73.4252078 109.388948,75.61243 C109.591502,81.5601397 109.753545,87.469477 109.915588,93.4171866 C109.99661,96.1416214 109.794056,98.8660561 108.983841,101.513746 C107.484942,106.502148 103.798461,109.111466 98.2889955,108.996349 C94.8050687,108.919604 91.5236957,107.960296 88.2828336,106.847499 C82.8949003,105.005627 77.5069669,103.202128 72.1190336,101.360257 C69.7288978,100.554438 67.4197835,100.631183 65.0296477,101.437002 C58.8314988,103.547479 52.6738607,105.619584 46.4352011,107.653317 C43.720979,108.535881 40.9257354,109.034721 38.0494703,108.957976 C33.1881771,108.766115 29.744761,106.156797 28.4079054,101.705608 C27.5976898,98.9044284 27.395136,96.0648767 27.4356467,93.1869527 C27.4761575,90.7311242 27.4356467,88.2752957 27.4356467,85.8194672 C27.4761575,85.7810949 27.5571791,85.7810949 27.5976898,85.7810949 Z" fill="#E3F5E5" fill-rule="nonzero"></path>
                <path d="M18.2802112,84.6299253 C18.3612327,81.4066504 18.4017435,78.1450032 18.5637866,74.9217283 C18.6853189,72.3507828 17.9156142,70.1251882 16.2546723,68.0914553 C12.1630839,63.1414259 8.15251695,58.1530243 4.18246082,53.1646227 C2.68356207,51.284379 1.50874954,49.2122737 0.698534005,46.9483068 C-1.00291862,42.1133944 0.414958567,38.1994178 4.83063325,35.3214937 C7.58536607,33.5179947 10.6641851,32.481942 13.8240257,31.5993787 C19.6170668,29.9877412 25.4506187,28.3761038 31.2436598,26.726094 C33.7148172,26.0353922 35.3352482,24.3853825 36.7531254,22.3900218 C40.3585846,17.3248755 44.0045545,12.2981016 47.7315459,7.30969993 C49.351977,5.12247768 51.2559835,3.20386166 53.6461194,1.74571349 C57.6161755,-0.710115005 61.707764,-0.556625724 65.5562878,2.09106438 C68.5135745,4.12479735 70.6606457,6.84923209 72.6861845,9.68878379 C75.9675574,14.2550899 79.2894411,18.8597683 82.6113248,23.4260744 C83.8671589,25.1144565 85.5686115,26.2272538 87.6751719,26.8028386 C94.3189393,28.64471 100.962707,30.5249537 107.606474,32.4435697 C110.118142,33.1726438 112.467767,34.2854411 114.574328,35.8203339 C118.34183,38.583141 119.557153,42.4587453 118.058255,46.7564452 C117.045485,49.6727415 115.344033,52.2053147 113.399515,54.5843985 C109.632013,59.2658216 105.824,63.9088723 102.015987,68.5902954 C100.59811,70.3170498 99.9904481,72.2740382 100.07147,74.4612604 C100.274024,80.4089701 100.436067,86.3183074 100.59811,92.266017 C100.679131,94.9904518 100.476577,97.7148865 99.6663619,100.362577 C98.1674631,105.350978 94.4809824,107.960296 88.9715168,107.845179 C85.48759,107.768434 82.2062171,106.809126 78.9653549,105.696329 C73.5774216,103.854458 68.1894883,102.050959 62.8015549,100.209087 C60.4114191,99.4032686 58.1023048,99.4800132 55.712169,100.285832 C49.5140201,102.39631 43.356382,104.468415 37.1177224,106.502148 C34.4035004,107.384711 31.6082568,107.883551 28.7319916,107.806807 C23.8706984,107.614945 20.4272823,105.005627 19.0904267,100.554438 C18.2802112,97.7532588 18.0776573,94.9137071 18.1181681,92.0357831 C18.1586788,89.5799546 18.1181681,87.1241261 18.1181681,84.6682976 C18.1586788,84.6299253 18.2397004,84.6299253 18.2802112,84.6299253 Z" stroke="#4E4E4E" stroke-width="2"></path>
            </g>
            <g transform="translate(35.1436, 26.7859)">
                <g transform="translate(3.1598, 0)" fill-rule="nonzero">
                    <path d="M17.6922719,15.0972606 C10.2787997,23.0019585 4.6883125,32.0578261 0.718256364,42.0730017 C-2.48209501,53.3544639 5.05290949,58.764961 22.5130543,58.727096 C37.0564232,58.764961 48.8450593,56.6544834 45.3611325,42.7637035 C42.1607811,32.4799216 36.732337,23.1554478 28.5491601,15.0972606 L28.5491601,11.797241 C31.1418498,9.22629556 32.9648347,6.38674386 33.9776042,3.27858592 C34.3016904,2.24253327 33.653518,1.20648062 32.559727,0.937874379 C27.2123044,-0.40515683 21.5813064,-0.251667549 15.7072438,1.05299134 C14.3298774,1.3599699 13.681705,2.89486271 14.5324313,3.96928768 C16.7200132,6.77046706 17.9758473,9.41815716 17.5707395,11.797241 L17.6922719,15.0972606 Z" id="Path" fill="#FD7699"></path>
                    <rect id="Rectangle" fill="#35D2AB" x="17.4086964" y="11.9507303" width="11.261996" height="2.6476901"></rect>
                </g>
                <ellipse id="Oval" fill="#FFFFFF" fill-rule="nonzero" cx="29.9670373" cy="43.1090544" rx="6.40070274" ry="6.0628266"></ellipse>
                <g transform="translate(21.8244, 36.9311)" stroke="#4E4E4E" stroke-width="2">
                    <ellipse id="Oval" cx="6.40070274" cy="6.0628266" rx="6.40070274" ry="6.0628266"></ellipse>
                    <path d="M9.15543557,3.37676418 C10.0871834,4.25932755 10.532802,5.56398644 10.2492265,6.86864533 C9.803608,8.9023783 7.65653683,10.1686649 5.54997643,9.74656935 C3.40290526,9.32447383 2.06604962,7.29074085 2.51166817,5.2953802" id="Path"></path>
                    <path d="M7.21091828,2.37908386 C7.65653683,2.4558285 8.10215537,2.6476901 8.46675236,2.8395517" id="Path"></path>
                </g>
                <ellipse id="Oval" fill="#FFFFFF" fill-rule="nonzero" cx="23.6473561" cy="36.470643" rx="6.40070274" ry="6.0628266"></ellipse>
                <g transform="translate(15.5047, 30.2543)" stroke="#4E4E4E" stroke-width="2">
                    <ellipse id="Oval" cx="6.40070274" cy="6.0628266" rx="6.40070274" ry="6.0628266"></ellipse>
                    <path d="M9.23645713,3.33839186 C10.2087158,4.22095523 10.6543343,5.56398644 10.3707589,6.90701765 C9.88462956,8.97912294 7.73755838,10.3221542 5.50946565,9.86168631 C3.3218837,9.40121847 1.90400651,7.36748549 2.39013584,5.25700788" id="Path"></path>
                    <path d="M7.25142906,2.30233922 C7.73755838,2.41745618 8.14266615,2.57094546 8.54777392,2.80117938" id="Path"></path>
                </g>
                <ellipse id="Oval" fill="#FFFFFF" fill-rule="nonzero" cx="18.3809551" cy="44.4520856" rx="6.40070274" ry="6.0628266"></ellipse>
                <g transform="translate(10.1978, 38.2741)" stroke="#4E4E4E" stroke-width="2">
                    <ellipse id="Oval" cx="6.40070274" cy="6.0628266" rx="6.40070274" ry="6.0628266"></ellipse>
                    <path d="M9.2769679,3.26164722 C10.2492265,4.18258291 10.7353559,5.4872418 10.4112697,6.86864533 C9.92514033,8.97912294 7.73755838,10.2837818 5.54997643,9.86168631 C3.3218837,9.40121847 1.94451729,7.32911317 2.39013584,5.25700788" id="Path"></path>
                    <path d="M7.29193984,2.2639669 C7.77806916,2.37908386 8.18317693,2.53257314 8.5882847,2.76280706" id="Path"></path>
                </g>
                <path d="M17.6922719,15.0972606 C10.2787997,23.0019585 4.6883125,32.0578261 0.718256364,42.0730017 C-2.48209501,53.3544639 5.05290949,58.764961 22.5130543,58.727096 C37.0564232,58.764961 48.8450593,56.6544834 45.3611325,42.7637035 C42.1607811,32.4799216 36.732337,23.1554478 28.5491601,15.0972606 L28.5491601,11.797241 C31.1418498,9.22629556 32.9648347,6.38674386 33.9776042,3.27858592 C34.3016904,2.24253327 33.653518,1.20648062 32.559727,0.937874379 C27.2123044,-0.40515683 21.5813064,-0.251667549 15.7072438,1.05299134 C14.3298774,1.3599699 13.681705,2.89486271 14.5324313,3.96928768 C16.7200132,6.77046706 17.9758473,9.41815716 17.5707395,11.797241 L17.6922719,15.0972606 Z" id="Path" stroke="#4E4E4E" stroke-width="2"></path>
                <line x1="17.7732934" y1="11.797241" x2="28.5086493" y2="11.797241" id="Path" stroke="#4E4E4E" stroke-width="3"></line>
                <line x1="17.7732934" y1="14.790282" x2="28.5086493" y2="14.790282" id="Path" stroke="#4E4E4E" stroke-width="3"></line>
                <path d="M26.3615781,12.1042196 C27.5363906,9.57164644 28.1035415,6.11813762 27.4148583,2.12741631" id="Path" stroke="#4E4E4E" stroke-width="2"></path>
                <path d="M19.3532137,5.12045729 C18.948106,3.6239368 18.6645305,2.08904399 19.3532137,0.477406536" id="Path" stroke="#4E4E4E" stroke-width="2"></path>
                <path d="M5.29597415,56.9447357 C9.0634764,59.2087026 14.937539,60.2831276 22.8371405,60.2831276 C30.4126558,60.2831276 37.2589771,59.7459151 41.5531194,57.2517143" id="Path" stroke="#4E4E4E" stroke-width="3"></path>
            </g>
        </g>
    </g>
</svg>