<?xml version="1.0" encoding="UTF-8"?>
<svg width="123px" height="112px" viewBox="0 0 123 112" version="1.1" xmlns="http://www.w3.org/2000/svg" xmlns:xlink="http://www.w3.org/1999/xlink">
    <title>Group 25</title>
    <g id="Page-1" stroke="none" stroke-width="1" fill="none" fill-rule="evenodd">
        <g id="iPhone-13-mini" transform="translate(-217, -175)">
            <g id="Group" transform="translate(219, 177)">
                <g id="Path" stroke="#B9B9BA" stroke-width="3">
                    <path d="M18.2802112,84.6299253 C18.3612327,81.4066504 18.4017435,78.1450032 18.5637866,74.9217283 C18.6853189,72.3507828 17.9156142,70.1251882 16.2546723,68.0914553 C12.1630839,63.1414259 8.15251695,58.1530243 4.18246082,53.1646227 C2.68356207,51.284379 1.50874954,49.2122737 0.698534005,46.9483068 C-1.00291862,42.1133944 0.414958567,38.1994178 4.83063325,35.3214937 C7.58536607,33.5179947 10.6641851,32.481942 13.8240257,31.5993787 C19.6170668,29.9877412 25.4506187,28.3761038 31.2436598,26.726094 C33.7148172,26.0353922 35.3352482,24.3853825 36.7531254,22.3900218 C40.3585846,17.3248755 44.0045545,12.2981016 47.7315459,7.30969993 C49.351977,5.12247768 51.2559835,3.20386166 53.6461194,1.74571349 C57.6161755,-0.710115005 61.707764,-0.556625724 65.5562878,2.09106438 C68.5135745,4.12479735 70.6606457,6.84923209 72.6861845,9.68878379 C75.9675574,14.2550899 79.2894411,18.8597683 82.6113248,23.4260744 C83.8671589,25.1144565 85.5686115,26.2272538 87.6751719,26.8028386 C94.3189393,28.64471 100.962707,30.5249537 107.606474,32.4435697 C110.118142,33.1726438 112.467767,34.2854411 114.574328,35.8203339 C118.34183,38.583141 119.557153,42.4587453 118.058255,46.7564452 C117.045485,49.6727415 115.344033,52.2053147 113.399515,54.5843985 C109.632013,59.2658216 105.824,63.9088723 102.015987,68.5902954 C100.59811,70.3170498 99.9904481,72.2740382 100.07147,74.4612604 C100.274024,80.4089701 100.436067,86.3183074 100.59811,92.266017 C100.679131,94.9904518 100.476577,97.7148865 99.6663619,100.362577 C98.1674631,105.350978 94.4809824,107.960296 88.9715168,107.845179 C85.48759,107.768434 82.2062171,106.809126 78.9653549,105.696329 C73.5774216,103.854458 68.1894883,102.050959 62.8015549,100.209087 C60.4114191,99.4032686 58.1023048,99.4800132 55.712169,100.285832 C49.5140201,102.39631 43.356382,104.468415 37.1177224,106.502148 C34.4035004,107.384711 31.6082568,107.883551 28.7319916,107.806807 C23.8706984,107.614945 20.4272823,105.005627 19.0904267,100.554438 C18.2802112,97.7532588 18.0776573,94.9137071 18.1181681,92.0357831 C18.1586788,89.5799546 18.1181681,87.1241261 18.1181681,84.6682976 C18.1586788,84.6299253 18.2397004,84.6299253 18.2802112,84.6299253 Z"></path>
                </g>
                <path d="M79.6945489,90.0020501 L44.4906838,90.0020501 C41.9385049,90.0020501 39.912966,88.0450618 39.912966,85.6659779 L39.912966,38.3145347 C39.912966,35.8970785 41.9790156,33.9784625 44.4906838,33.9784625 L79.6945489,33.9784625 C82.2467278,33.9784625 84.2722667,35.9354509 84.2722667,38.3145347 L84.2722667,85.6659779 C84.2722667,88.0450618 82.2062171,90.0020501 79.6945489,90.0020501 Z" id="Path" fill="#FFFFFF" fill-rule="nonzero"></path>
                <path d="M77.2639023,90.0020501 L42.0600372,90.0020501 C39.5078582,90.0020501 37.4823194,88.0450618 37.4823194,85.6659779 L37.4823194,38.3145347 C37.4823194,35.8970785 39.548369,33.9784625 42.0600372,33.9784625 L77.2639023,33.9784625 C79.8160812,33.9784625 81.8416201,35.9354509 81.8416201,38.3145347 L81.8416201,85.6659779 C81.8416201,88.0450618 79.7755704,90.0020501 77.2639023,90.0020501 Z" id="Path" stroke="#B9B9BA" stroke-width="3"></path>
                <rect id="Rectangle" fill="#EBEBED" fill-rule="nonzero" x="44.5717054" y="71.1996132" width="34.8392681" height="8.05818726"></rect>
                <rect id="Rectangle" fill="#EBEBED" fill-rule="nonzero" x="44.5717054" y="58.1530243" width="34.8392681" height="8.05818726"></rect>
                <rect id="Rectangle" fill="#EBEBED" fill-rule="nonzero" x="44.5717054" y="45.1064354" width="34.8392681" height="8.05818726"></rect>
                <polyline id="Path" stroke="#B9B9BA" stroke-width="3" points="42.3841234 47.9076148 45.0578347 51.7064745 48.4202292 44.7227122"></polyline>
                <polyline id="Path" stroke="#B9B9BA" stroke-width="3" points="42.3841234 60.9542037 45.0578347 64.7530634 48.4202292 57.7693011"></polyline>
                <polyline id="Path" stroke="#B9B9BA" stroke-width="3" points="41.9790156 74.0007926 44.6527269 77.7996523 48.0151214 70.81589"></polyline>
                <path d="M72.9292492,30.9086769 L72.9292492,35.1680045 C72.9292492,36.8180142 71.511372,38.1994178 69.7288978,38.1994178 L55.0234858,38.1994178 C53.2815224,38.1994178 51.8231344,36.8563865 51.8231344,35.1680045 L51.8231344,30.9086769" id="Path" fill="#EBEBED" fill-rule="nonzero"></path>
                <path d="M67.2982512,38.1994178 L52.5928392,38.1994178 C50.8508758,38.1994178 49.3924878,36.8563865 49.3924878,35.1680045 L49.3924878,30.9086769 L70.4580918,30.9086769 L70.4580918,35.1680045 C70.4986025,36.8563865 69.0807254,38.1994178 67.2982512,38.1994178 Z" id="Path" stroke="#B9B9BA" stroke-width="3"></path>
                <g transform="translate(51.4585, 47.7925)" id="Path" stroke="#B9B9BA" stroke-width="3">
                    <line x1="0" y1="0.191861601" x2="24.7115739" y2="0.191861601"></line>
                    <line x1="0" y1="2.87792402" x2="11.3430175" y2="2.87792402"></line>
                </g>
                <g transform="translate(51.4585, 61.2228)" id="Path" stroke="#B9B9BA" stroke-width="3">
                    <line x1="0" y1="0.191861601" x2="24.7115739" y2="0.191861601"></line>
                    <line x1="0" y1="2.87792402" x2="11.3430175" y2="2.87792402"></line>
                </g>
                <g transform="translate(51.4585, 74.2694)" id="Path" stroke="#B9B9BA" stroke-width="3">
                    <line x1="0" y1="0.191861601" x2="24.7115739" y2="0.191861601"></line>
                    <line x1="0" y1="2.87792402" x2="11.3430175" y2="2.87792402"></line>
                </g>
            </g>
        </g>
    </g>
</svg>