<?xml version="1.0" encoding="UTF-8"?>
<svg width="129px" height="110px" viewBox="0 0 129 110" version="1.1" xmlns="http://www.w3.org/2000/svg" xmlns:xlink="http://www.w3.org/1999/xlink">
    <title>Group 30</title>
    <g id="Page-1" stroke="none" stroke-width="1" fill="none" fill-rule="evenodd">
        <g id="Group-30" transform="translate(1, 1)">
            <g id="Group">
                <g id="Path">
                    <path d="M27.5976898,85.7810949 C27.6787114,82.55782 27.7192222,79.2961728 27.8812653,76.0728979 C28.0027976,73.5019524 27.2330929,71.2763578 25.572151,69.2426249 C21.4805625,64.2925955 17.4699956,59.3041939 13.4999395,54.3157923 C12.0010408,52.4355486 10.8262282,50.3634433 10.0160127,48.0994764 C8.31456006,43.264564 9.73243725,39.3505874 14.1481119,36.4726633 C16.9028448,34.6691643 19.9816638,33.6331116 23.1415044,32.7505483 C28.9345455,31.1389108 34.7680973,29.5272734 40.5611384,27.8772636 C43.0322958,27.1865618 44.6527269,25.5365521 46.0706041,23.5411914 C49.6760632,18.4760451 53.3220332,13.4492712 57.0490246,8.46086954 C58.6694557,6.27364729 60.5734622,4.35503127 62.963598,2.8968831 C66.9336542,0.441054604 71.0252426,0.594543885 74.8737664,3.24223398 C77.8310532,5.27596696 79.9781243,8.0004017 82.0036632,10.8399534 C85.2850361,15.4062595 88.6069198,20.0109379 91.9288035,24.5772441 C93.1846376,26.2656261 94.8860902,27.3784234 96.9926506,27.9540082 C103.636418,29.7958796 110.280185,31.6761233 116.923953,33.5947393 C119.435621,34.3238134 121.785246,35.4366107 123.891806,36.9715035 C127.659309,39.7343106 128.874632,43.6099149 127.375733,47.9076148 C126.362964,50.8239111 124.661511,53.3564843 122.716994,55.7355681 C118.949492,60.4169912 115.141479,65.0600419 111.333466,69.741465 C109.915588,71.4682194 109.307927,73.4252078 109.388948,75.61243 C109.591502,81.5601397 109.753545,87.469477 109.915588,93.4171866 C109.99661,96.1416214 109.794056,98.8660561 108.983841,101.513746 C107.484942,106.502148 103.798461,109.111466 98.2889955,108.996349 C94.8050687,108.919604 91.5236957,107.960296 88.2828336,106.847499 C82.8949003,105.005627 77.5069669,103.202128 72.1190336,101.360257 C69.7288978,100.554438 67.4197835,100.631183 65.0296477,101.437002 C58.8314988,103.547479 52.6738607,105.619584 46.4352011,107.653317 C43.720979,108.535881 40.9257354,109.034721 38.0494703,108.957976 C33.1881771,108.766115 29.744761,106.156797 28.4079054,101.705608 C27.5976898,98.9044284 27.395136,96.0648767 27.4356467,93.1869527 C27.4761575,90.7311242 27.4356467,88.2752957 27.4356467,85.8194672 C27.4761575,85.7810949 27.5571791,85.7810949 27.5976898,85.7810949 Z" fill="#E6F0F5" fill-rule="nonzero"></path>
                    <path d="M18.2802112,84.6299253 C18.3612327,81.4066504 18.4017435,78.1450032 18.5637866,74.9217283 C18.6853189,72.3507828 17.9156142,70.1251882 16.2546723,68.0914553 C12.1630839,63.1414259 8.15251695,58.1530243 4.18246082,53.1646227 C2.68356207,51.284379 1.50874954,49.2122737 0.698534005,46.9483068 C-1.00291862,42.1133944 0.414958567,38.1994178 4.83063325,35.3214937 C7.58536607,33.5179947 10.6641851,32.481942 13.8240257,31.5993787 C19.6170668,29.9877412 25.4506187,28.3761038 31.2436598,26.726094 C33.7148172,26.0353922 35.3352482,24.3853825 36.7531254,22.3900218 C40.3585846,17.3248755 44.0045545,12.2981016 47.7315459,7.30969993 C49.351977,5.12247768 51.2559835,3.20386166 53.6461194,1.74571349 C57.6161755,-0.710115005 61.707764,-0.556625724 65.5562878,2.09106438 C68.5135745,4.12479735 70.6606457,6.84923209 72.6861845,9.68878379 C75.9675574,14.2550899 79.2894411,18.8597683 82.6113248,23.4260744 C83.8671589,25.1144565 85.5686115,26.2272538 87.6751719,26.8028386 C94.3189393,28.64471 100.962707,30.5249537 107.606474,32.4435697 C110.118142,33.1726438 112.467767,34.2854411 114.574328,35.8203339 C118.34183,38.583141 119.557153,42.4587453 118.058255,46.7564452 C117.045485,49.6727415 115.344033,52.2053147 113.399515,54.5843985 C109.632013,59.2658216 105.824,63.9088723 102.015987,68.5902954 C100.59811,70.3170498 99.9904481,72.2740382 100.07147,74.4612604 C100.274024,80.4089701 100.436067,86.3183074 100.59811,92.266017 C100.679131,94.9904518 100.476577,97.7148865 99.6663619,100.362577 C98.1674631,105.350978 94.4809824,107.960296 88.9715168,107.845179 C85.48759,107.768434 82.2062171,106.809126 78.9653549,105.696329 C73.5774216,103.854458 68.1894883,102.050959 62.8015549,100.209087 C60.4114191,99.4032686 58.1023048,99.4800132 55.712169,100.285832 C49.5140201,102.39631 43.356382,104.468415 37.1177224,106.502148 C34.4035004,107.384711 31.6082568,107.883551 28.7319916,107.806807 C23.8706984,107.614945 20.4272823,105.005627 19.0904267,100.554438 C18.2802112,97.7532588 18.0776573,94.9137071 18.1181681,92.0357831 C18.1586788,89.5799546 18.1181681,87.1241261 18.1181681,84.6682976 C18.1586788,84.6299253 18.2397004,84.6299253 18.2802112,84.6299253 Z" stroke="#4E4E4E" stroke-width="2"></path>
                </g>
                <g transform="translate(33.9953, 32.7122)" fill-rule="nonzero" id="Path">
                    <path d="M22.7296205,25.4792207 L0.813290257,30.0455268 C0.327160935,30.1606437 -0.0374360572,30.5827393 0.00307471964,31.0432071 C0.327160935,35.5711409 2.59576444,57.1747572 17.7062842,55.7933537 C48.3729423,52.3398449 31.8040346,10.7058774 59.675449,3.06978562 L59.2703413,0 C37.718608,3.26164722 34.5182566,31.5804196 26.9427413,35.5327686 C26.4161012,35.8013748 25.727418,35.4943963 25.6058857,34.9188115 L23.9854546,26.2082947 C23.8639223,25.7094546 23.2967714,25.3641037 22.7296205,25.4792207 Z" fill="#35D2AB"></path>
                    <g transform="translate(-0, 6.9838)" fill="#FD7699">
                        <path d="M24.998224,24.8268912 L23.9449438,19.2629048 C23.8234115,18.7256923 23.2967714,18.3803414 22.7296205,18.4954584 L0.813290257,23.0617645 C0.327160935,23.1768814 -0.0374360572,23.598977 0.00307471964,24.0594448 C0.0840962734,25.1722421 0.286650158,27.2827197 0.732268703,29.8536652 L24.998224,24.8268912 Z"></path>
                        <path d="M45.5776987,-4.36242775e-14 C41.526621,3.95234899 38.6098451,8.94075062 36.1791985,13.6989183 L42.0532611,15.7710236 C43.6736922,10.5907604 45.7802526,5.71747572 49.3857117,1.99536065 L45.5776987,-4.36242775e-14 Z"></path>
                    </g>
                </g>
                <path d="M53.4840763,58.1913966 L31.567746,62.7577027 C31.0816167,62.8728197 30.7170197,63.2949152 30.7575304,63.7553831 C31.0816167,68.2833169 33.3502202,89.8869332 48.4607399,88.5055296 C79.127398,85.0520208 62.5584903,43.4180533 90.4299048,35.7819616 L90.024797,32.712176 C68.4730637,35.9738232 65.2727123,64.2925955 57.6971971,68.2449445 C57.170557,68.5135508 56.4818737,68.2065722 56.3603414,67.6309874 L54.7399103,58.9204707 C54.618378,58.4216305 54.0512271,58.0762797 53.4840763,58.1913966 Z" id="Path" stroke="#4E4E4E" stroke-width="2"></path>
                <line x1="76.4941975" y1="39.542449" x2="80.0186351" y2="41.8831605" id="Path" stroke="#4E4E4E" stroke-width="2"></line>
                <line x1="67.0146757" y1="53.2413673" x2="72.8077168" y2="55.4669619" id="Path" stroke="#4E4E4E" stroke-width="2"></line>
            </g>
            <path d="M45.7870287,47.4087746 C46.0300933,46.7564452 46.3136688,46.1041157 46.5972442,45.4901586 C47.2454166,44.0320104 47.8935891,42.420373 47.6910352,40.8087355 C47.4884813,39.1970981 46.3946903,37.9308115 44.8552808,37.2401097 C43.6804683,36.7028973 42.3031018,36.549408 41.006757,36.7028973 C43.8020006,39.6959382 41.2498216,43.9936381 39.8724552,46.9866791 C38.6976427,49.4808799 38.2925349,52.4739209 40.7636923,54.3925369 C42.2625911,55.5437065 44.450173,55.8506851 46.1921364,55.121611 C45.6249855,54.9681217 45.2603886,54.4309092 45.0173239,53.9320691 C44.2881299,52.2820593 44.5717054,50.7087942 45.179367,49.0587844 C45.3414101,48.4831996 45.543964,47.9459871 45.7870287,47.4087746 Z" id="Path" fill="#FFFFFF" fill-rule="nonzero"></path>
            <path d="M43.356382,47.4087746 C43.5994467,46.7564452 43.8830221,46.1041157 44.1665976,45.4901586 C44.81477,44.0320104 45.4629424,42.420373 45.2603886,40.8087355 C45.0578347,39.1970981 43.9640437,37.9308115 42.4246342,37.2401097 C41.2498216,36.7028973 39.8724552,36.549408 38.5761104,36.7028973 C41.371354,39.6959382 38.819175,43.9936381 37.4418086,46.9866791 C36.2669961,49.4808799 35.8618883,52.4739209 38.3330457,54.3925369 C39.8319445,55.5437065 42.0195264,55.8506851 43.7614898,55.121611 C43.1943389,54.9681217 42.8297419,54.4309092 42.5866773,53.9320691 C41.8574833,52.2820593 42.1410587,50.7087942 42.7487204,49.0587844 C42.9107635,48.4831996 43.1133174,47.9459871 43.356382,47.4087746 Z" id="Path" stroke="#4E4E4E" stroke-width="2"></path>
        </g>
    </g>
</svg>