<?xml version="1.0" encoding="UTF-8"?>
<svg width="121px" height="110px" viewBox="0 0 121 110" version="1.1" xmlns="http://www.w3.org/2000/svg" xmlns:xlink="http://www.w3.org/1999/xlink">
    <title>Group</title>
    <g id="Page-1" stroke="none" stroke-width="1" fill="none" fill-rule="evenodd">
        <g id="iPhone-13-mini" transform="translate(-42, -1085)">
            <g id="Group" transform="translate(43, 1086)">
                <g id="Path" stroke="#B9B9BA" stroke-width="2">
                    <path d="M18.2802112,84.6299253 C18.3612327,81.4066504 18.4017435,78.1450032 18.5637866,74.9217283 C18.6853189,72.3507828 17.9156142,70.1251882 16.2546723,68.0914553 C12.1630839,63.1414259 8.15251695,58.1530243 4.18246082,53.1646227 C2.68356207,51.284379 1.50874954,49.2122737 0.698534005,46.9483068 C-1.00291862,42.1133944 0.414958567,38.1994178 4.83063325,35.3214937 C7.58536607,33.5179947 10.6641851,32.481942 13.8240257,31.5993787 C19.6170668,29.9877412 25.4506187,28.3761038 31.2436598,26.726094 C33.7148172,26.0353922 35.3352482,24.3853825 36.7531254,22.3900218 C40.3585846,17.3248755 44.0045545,12.2981016 47.7315459,7.30969993 C49.351977,5.12247768 51.2559835,3.20386166 53.6461194,1.74571349 C57.6161755,-0.710115005 61.707764,-0.556625724 65.5562878,2.09106438 C68.5135745,4.12479735 70.6606457,6.84923209 72.6861845,9.68878379 C75.9675574,14.2550899 79.2894411,18.8597683 82.6113248,23.4260744 C83.8671589,25.1144565 85.5686115,26.2272538 87.6751719,26.8028386 C94.3189393,28.64471 100.962707,30.5249537 107.606474,32.4435697 C110.118142,33.1726438 112.467767,34.2854411 114.574328,35.8203339 C118.34183,38.583141 119.557153,42.4587453 118.058255,46.7564452 C117.045485,49.6727415 115.344033,52.2053147 113.399515,54.5843985 C109.632013,59.2658216 105.824,63.9088723 102.015987,68.5902954 C100.59811,70.3170498 99.9904481,72.2740382 100.07147,74.4612604 C100.274024,80.4089701 100.436067,86.3183074 100.59811,92.266017 C100.679131,94.9904518 100.476577,97.7148865 99.6663619,100.362577 C98.1674631,105.350978 94.4809824,107.960296 88.9715168,107.845179 C85.48759,107.768434 82.2062171,106.809126 78.9653549,105.696329 C73.5774216,103.854458 68.1894883,102.050959 62.8015549,100.209087 C60.4114191,99.4032686 58.1023048,99.4800132 55.712169,100.285832 C49.5140201,102.39631 43.356382,104.468415 37.1177224,106.502148 C34.4035004,107.384711 31.6082568,107.883551 28.7319916,107.806807 C23.8706984,107.614945 20.4272823,105.005627 19.0904267,100.554438 C18.2802112,97.7532588 18.0776573,94.9137071 18.1181681,92.0357831 C18.1586788,89.5799546 18.1181681,87.1241261 18.1181681,84.6682976 C18.1586788,84.6299253 18.2397004,84.6299253 18.2802112,84.6299253 Z"></path>
                </g>
                <g transform="translate(30.2714, 66.0193)" fill="#EBEBED" fill-rule="nonzero" id="Path">
                    <path d="M16.3258431,11.3198345 L1.49889874,11.3198345 C0.64817243,11.3198345 0,10.667505 0,9.90005863 L0,7.09887925 C0,6.29306053 0.688683207,5.6791034 1.49889874,5.6791034 L16.3258431,5.6791034 C17.1765694,5.6791034 17.8247418,6.33143285 17.8247418,7.09887925 L17.8247418,9.90005863 C17.8652526,10.667505 17.1765694,11.3198345 16.3258431,11.3198345 Z"></path>
                    <path d="M16.3258431,5.64073108 L1.49889874,5.64073108 C0.64817243,5.64073108 0,4.98840164 0,4.22095523 L0,1.41977585 C0,0.613957124 0.688683207,0 1.49889874,0 L16.3258431,0 C17.1765694,0 17.8247418,0.652329445 17.8247418,1.41977585 L17.8247418,4.22095523 C17.8652526,4.98840164 17.1765694,5.64073108 16.3258431,5.64073108 Z"></path>
                </g>
                <g transform="translate(27.4356, 66.0193)" id="Path" stroke="#B9B9BA" stroke-width="2">
                    <path d="M16.3258431,11.3198345 L1.49889874,11.3198345 C0.64817243,11.3198345 0,10.667505 0,9.90005863 L0,7.09887925 C0,6.29306053 0.688683207,5.6791034 1.49889874,5.6791034 L16.3258431,5.6791034 C17.1765694,5.6791034 17.8247418,6.33143285 17.8247418,7.09887925 L17.8247418,9.90005863 C17.8652526,10.667505 17.1765694,11.3198345 16.3258431,11.3198345 Z"></path>
                    <path d="M16.3258431,5.64073108 L1.49889874,5.64073108 C0.64817243,5.64073108 0,4.98840164 0,4.22095523 L0,1.41977585 C0,0.613957124 0.688683207,0 1.49889874,0 L16.3258431,0 C17.1765694,0 17.8247418,0.652329445 17.8247418,1.41977585 L17.8247418,4.22095523 C17.8652526,4.98840164 17.1765694,5.64073108 16.3258431,5.64073108 Z"></path>
                </g>
                <g transform="translate(49.7166, 54.6228)" fill="#EBEBED" fill-rule="nonzero" id="Path">
                    <path d="M16.3258431,22.7164136 L1.49889874,22.7164136 C0.64817243,22.7164136 0,22.0640842 0,21.2966378 L0,18.4954584 C0,17.6896396 0.688683207,17.0756825 1.49889874,17.0756825 L16.3258431,17.0756825 C17.1765694,17.0756825 17.8247418,17.728012 17.8247418,18.4954584 L17.8247418,21.2966378 C17.8652526,22.0640842 17.1765694,22.7164136 16.3258431,22.7164136 Z"></path>
                    <path d="M16.3258431,17.0373102 L1.49889874,17.0373102 C0.64817243,17.0373102 0,16.3849808 0,15.6175344 L0,12.816355 C0,12.0105362 0.688683207,11.3965791 1.49889874,11.3965791 L16.3258431,11.3965791 C17.1765694,11.3965791 17.8247418,12.0489086 17.8247418,12.816355 L17.8247418,15.6175344 C17.8652526,16.3849808 17.1765694,17.0373102 16.3258431,17.0373102 Z"></path>
                    <path d="M16.3258431,11.3198345 L1.49889874,11.3198345 C0.64817243,11.3198345 0,10.667505 0,9.90005863 L0,7.09887925 C0,6.29306053 0.688683207,5.6791034 1.49889874,5.6791034 L16.3258431,5.6791034 C17.1765694,5.6791034 17.8247418,6.33143285 17.8247418,7.09887925 L17.8247418,9.90005863 C17.8652526,10.7058774 17.1765694,11.3198345 16.3258431,11.3198345 Z"></path>
                    <path d="M16.3258431,5.64073108 L1.49889874,5.64073108 C0.64817243,5.64073108 0,4.98840164 0,4.22095523 L0,1.41977585 C0,0.613957124 0.688683207,0 1.49889874,0 L16.3258431,0 C17.1765694,0 17.8247418,0.652329445 17.8247418,1.41977585 L17.8247418,4.22095523 C17.8652526,4.98840164 17.1765694,5.64073108 16.3258431,5.64073108 Z"></path>
                </g>
                <g transform="translate(46.8808, 54.6228)" id="Path" stroke="#B9B9BA" stroke-width="2">
                    <path d="M16.3258431,22.7164136 L1.49889874,22.7164136 C0.64817243,22.7164136 0,22.0640842 0,21.2966378 L0,18.4954584 C0,17.6896396 0.688683207,17.0756825 1.49889874,17.0756825 L16.3258431,17.0756825 C17.1765694,17.0756825 17.8247418,17.728012 17.8247418,18.4954584 L17.8247418,21.2966378 C17.8652526,22.0640842 17.1765694,22.7164136 16.3258431,22.7164136 Z"></path>
                    <path d="M16.3258431,17.0373102 L1.49889874,17.0373102 C0.64817243,17.0373102 0,16.3849808 0,15.6175344 L0,12.816355 C0,12.0105362 0.688683207,11.3965791 1.49889874,11.3965791 L16.3258431,11.3965791 C17.1765694,11.3965791 17.8247418,12.0489086 17.8247418,12.816355 L17.8247418,15.6175344 C17.8652526,16.3849808 17.1765694,17.0373102 16.3258431,17.0373102 Z"></path>
                    <path d="M16.3258431,11.3198345 L1.49889874,11.3198345 C0.64817243,11.3198345 0,10.667505 0,9.90005863 L0,7.09887925 C0,6.29306053 0.688683207,5.6791034 1.49889874,5.6791034 L16.3258431,5.6791034 C17.1765694,5.6791034 17.8247418,6.33143285 17.8247418,7.09887925 L17.8247418,9.90005863 C17.8652526,10.7058774 17.1765694,11.3198345 16.3258431,11.3198345 Z"></path>
                    <path d="M16.3258431,5.64073108 L1.49889874,5.64073108 C0.64817243,5.64073108 0,4.98840164 0,4.22095523 L0,1.41977585 C0,0.613957124 0.688683207,0 1.49889874,0 L16.3258431,0 C17.1765694,0 17.8247418,0.652329445 17.8247418,1.41977585 L17.8247418,4.22095523 C17.8652526,4.98840164 17.1765694,5.64073108 16.3258431,5.64073108 Z"></path>
                </g>
                <g transform="translate(68.7566, 43.2262)" fill="#EBEBED" fill-rule="nonzero" id="Path">
                    <path d="M16.3258431,34.1129927 L1.49889874,34.1129927 C0.64817243,34.1129927 0,33.4606633 0,32.6932169 L0,29.8920375 C0,29.0862188 0.688683207,28.4722616 1.49889874,28.4722616 L16.3258431,28.4722616 C17.1765694,28.4722616 17.8247418,29.1245911 17.8247418,29.8920375 L17.8247418,32.6932169 C17.8652526,33.4606633 17.1765694,34.1129927 16.3258431,34.1129927 Z"></path>
                    <path d="M16.3258431,28.4338893 L1.49889874,28.4338893 C0.64817243,28.4338893 0,27.7815599 0,27.0141135 L0,24.2129341 C0,23.4071154 0.688683207,22.7931582 1.49889874,22.7931582 L16.3258431,22.7931582 C17.1765694,22.7931582 17.8247418,23.4454877 17.8247418,24.2129341 L17.8247418,27.0141135 C17.8652526,27.7815599 17.1765694,28.4338893 16.3258431,28.4338893 Z"></path>
                    <path d="M16.3258431,22.7164136 L1.49889874,22.7164136 C0.64817243,22.7164136 0,22.0640842 0,21.2966378 L0,18.4954584 C0,17.6896396 0.688683207,17.0756825 1.49889874,17.0756825 L16.3258431,17.0756825 C17.1765694,17.0756825 17.8247418,17.728012 17.8247418,18.4954584 L17.8247418,21.2966378 C17.8652526,22.1024565 17.1765694,22.7164136 16.3258431,22.7164136 Z"></path>
                    <path d="M16.3258431,17.0373102 L1.49889874,17.0373102 C0.64817243,17.0373102 0,16.3849808 0,15.6175344 L0,12.816355 C0,12.0105362 0.688683207,11.3965791 1.49889874,11.3965791 L16.3258431,11.3965791 C17.1765694,11.3965791 17.8247418,12.0489086 17.8247418,12.816355 L17.8247418,15.6175344 C17.8652526,16.3849808 17.1765694,17.0373102 16.3258431,17.0373102 Z"></path>
                    <path d="M16.3258431,11.3582068 L1.49889874,11.3582068 C0.64817243,11.3582068 0,10.7058774 0,9.93843095 L0,7.13725157 C0,6.33143285 0.688683207,5.71747572 1.49889874,5.71747572 L16.3258431,5.71747572 C17.1765694,5.71747572 17.8247418,6.36980517 17.8247418,7.13725157 L17.8247418,9.93843095 C17.8652526,10.7058774 17.1765694,11.3582068 16.3258431,11.3582068 Z"></path>
                    <path d="M16.3258431,5.64073108 L1.49889874,5.64073108 C0.64817243,5.64073108 0,4.98840164 0,4.22095523 L0,1.41977585 C0,0.613957124 0.688683207,0 1.49889874,0 L16.3258431,0 C17.1765694,0 17.8247418,0.652329445 17.8247418,1.41977585 L17.8247418,4.22095523 C17.8652526,5.02677396 17.1765694,5.64073108 16.3258431,5.64073108 Z"></path>
                </g>
                <g transform="translate(66.326, 43.2262)" id="Path" stroke="#B9B9BA" stroke-width="2">
                    <path d="M16.3258431,34.1129927 L1.49889874,34.1129927 C0.64817243,34.1129927 0,33.4606633 0,32.6932169 L0,29.8920375 C0,29.0862188 0.688683207,28.4722616 1.49889874,28.4722616 L16.3258431,28.4722616 C17.1765694,28.4722616 17.8247418,29.1245911 17.8247418,29.8920375 L17.8247418,32.6932169 C17.8652526,33.4606633 17.1765694,34.1129927 16.3258431,34.1129927 Z"></path>
                    <path d="M16.3258431,28.4338893 L1.49889874,28.4338893 C0.64817243,28.4338893 0,27.7815599 0,27.0141135 L0,24.2129341 C0,23.4071154 0.688683207,22.7931582 1.49889874,22.7931582 L16.3258431,22.7931582 C17.1765694,22.7931582 17.8247418,23.4454877 17.8247418,24.2129341 L17.8247418,27.0141135 C17.8652526,27.7815599 17.1765694,28.4338893 16.3258431,28.4338893 Z"></path>
                    <path d="M16.3258431,22.7164136 L1.49889874,22.7164136 C0.64817243,22.7164136 0,22.0640842 0,21.2966378 L0,18.4954584 C0,17.6896396 0.688683207,17.0756825 1.49889874,17.0756825 L16.3258431,17.0756825 C17.1765694,17.0756825 17.8247418,17.728012 17.8247418,18.4954584 L17.8247418,21.2966378 C17.8652526,22.1024565 17.1765694,22.7164136 16.3258431,22.7164136 Z"></path>
                    <path d="M16.3258431,17.0373102 L1.49889874,17.0373102 C0.64817243,17.0373102 0,16.3849808 0,15.6175344 L0,12.816355 C0,12.0105362 0.688683207,11.3965791 1.49889874,11.3965791 L16.3258431,11.3965791 C17.1765694,11.3965791 17.8247418,12.0489086 17.8247418,12.816355 L17.8247418,15.6175344 C17.8652526,16.3849808 17.1765694,17.0373102 16.3258431,17.0373102 Z"></path>
                    <path d="M16.3258431,11.3582068 L1.49889874,11.3582068 C0.64817243,11.3582068 0,10.7058774 0,9.93843095 L0,7.13725157 C0,6.33143285 0.688683207,5.71747572 1.49889874,5.71747572 L16.3258431,5.71747572 C17.1765694,5.71747572 17.8247418,6.36980517 17.8247418,7.13725157 L17.8247418,9.93843095 C17.8652526,10.7058774 17.1765694,11.3582068 16.3258431,11.3582068 Z"></path>
                    <path d="M16.3258431,5.64073108 L1.49889874,5.64073108 C0.64817243,5.64073108 0,4.98840164 0,4.22095523 L0,1.41977585 C0,0.613957124 0.688683207,0 1.49889874,0 L16.3258431,0 C17.1765694,0 17.8247418,0.652329445 17.8247418,1.41977585 L17.8247418,4.22095523 C17.8652526,5.02677396 17.1765694,5.64073108 16.3258431,5.64073108 Z"></path>
                </g>
                <path d="M30.1903796,55.2751003 C40.4801169,50.1332094 48.5822723,43.6866596 53.4030547,35.2831214 L48.9063585,31.3691447 L64.0978998,28.4144761 L61.7887855,41.9215328 L57.9807725,38.2377901 C50.9318973,46.6029559 41.6144186,52.2053147 30.1903796,55.2751003 Z" id="Path" fill="#EBEBED" fill-rule="nonzero"></path>
                <path d="M29.0560778,55.8506851 C39.0217289,50.1332094 46.637755,43.2261917 50.9318973,34.5540473 L46.1921364,30.9086769 L61.1811239,27.0714449 L59.7632467,40.6936186 L55.712169,37.2401097 C49.1899339,45.9889988 40.2370522,52.12857 29.0560778,55.8506851 Z" id="Path" stroke="#B9B9BA" stroke-width="2"></path>
            </g>
        </g>
    </g>
</svg>