<?xml version="1.0" encoding="UTF-8"?>
<svg width="121px" height="110px" viewBox="0 0 121 110" version="1.1" xmlns="http://www.w3.org/2000/svg" xmlns:xlink="http://www.w3.org/1999/xlink">
    <title>Group</title>
    <g id="Page-1" stroke="none" stroke-width="1" fill="none" fill-rule="evenodd">
        <g id="iPhone-13-mini" transform="translate(-42, -749)">
            <g id="Group" transform="translate(43, 750)">
                <g id="Path" stroke="#B9B9BA" stroke-width="2">
                    <path d="M18.2802112,84.6299253 C18.3612327,81.4066504 18.4017435,78.1450032 18.5637866,74.9217283 C18.6853189,72.3507828 17.9156142,70.1251882 16.2546723,68.0914553 C12.1630839,63.1414259 8.15251695,58.1530243 4.18246082,53.1646227 C2.68356207,51.284379 1.50874954,49.2122737 0.698534005,46.9483068 C-1.00291862,42.1133944 0.414958567,38.1994178 4.83063325,35.3214937 C7.58536607,33.5179947 10.6641851,32.481942 13.8240257,31.5993787 C19.6170668,29.9877412 25.4506187,28.3761038 31.2436598,26.726094 C33.7148172,26.0353922 35.3352482,24.3853825 36.7531254,22.3900218 C40.3585846,17.3248755 44.0045545,12.2981016 47.7315459,7.30969993 C49.351977,5.12247768 51.2559835,3.20386166 53.6461194,1.74571349 C57.6161755,-0.710115005 61.707764,-0.556625724 65.5562878,2.09106438 C68.5135745,4.12479735 70.6606457,6.84923209 72.6861845,9.68878379 C75.9675574,14.2550899 79.2894411,18.8597683 82.6113248,23.4260744 C83.8671589,25.1144565 85.5686115,26.2272538 87.6751719,26.8028386 C94.3189393,28.64471 100.962707,30.5249537 107.606474,32.4435697 C110.118142,33.1726438 112.467767,34.2854411 114.574328,35.8203339 C118.34183,38.583141 119.557153,42.4587453 118.058255,46.7564452 C117.045485,49.6727415 115.344033,52.2053147 113.399515,54.5843985 C109.632013,59.2658216 105.824,63.9088723 102.015987,68.5902954 C100.59811,70.3170498 99.9904481,72.2740382 100.07147,74.4612604 C100.274024,80.4089701 100.436067,86.3183074 100.59811,92.266017 C100.679131,94.9904518 100.476577,97.7148865 99.6663619,100.362577 C98.1674631,105.350978 94.4809824,107.960296 88.9715168,107.845179 C85.48759,107.768434 82.2062171,106.809126 78.9653549,105.696329 C73.5774216,103.854458 68.1894883,102.050959 62.8015549,100.209087 C60.4114191,99.4032686 58.1023048,99.4800132 55.712169,100.285832 C49.5140201,102.39631 43.356382,104.468415 37.1177224,106.502148 C34.4035004,107.384711 31.6082568,107.883551 28.7319916,107.806807 C23.8706984,107.614945 20.4272823,105.005627 19.0904267,100.554438 C18.2802112,97.7532588 18.0776573,94.9137071 18.1181681,92.0357831 C18.1586788,89.5799546 18.1181681,87.1241261 18.1181681,84.6682976 C18.1586788,84.6299253 18.2397004,84.6299253 18.2802112,84.6299253 Z"></path>
                </g>
                <g transform="translate(42.5057, 33.9785)">
                    <path d="M35.5279513,47.9654003 C36.2166345,33.8443865 24.0634015,31.7339089 23.3342075,26.5152733 L23.3342075,25.9780608 C24.0634015,20.7594253 36.2166345,18.8408093 35.5279513,4.71979539 L6.72478896,4.911657 C6.03610575,19.0326709 18.1893388,21.1431485 18.9185328,26.361784 L18.9185328,26.8989965 C18.1893388,32.1176321 6.03610575,34.2281097 6.72478896,48.3491235" id="Path" fill="#FFFFFF" fill-rule="nonzero"></path>
                    <path d="M16.6904401,19.5698833 C18.7970005,21.3733824 20.7820285,23.0617645 21.1466255,25.517593 L21.1466255,25.6327099 L21.1466255,25.4408483 L21.1466255,25.3257314 L21.1466255,25.2106144 C21.5112225,22.7547859 23.4962506,21.0664038 25.602811,19.3012771 C27.8714145,17.3826611 30.3425719,15.3105558 31.598406,11.857047 L10.532802,11.857047 C11.8291468,15.4640451 14.3813258,17.612895 16.6904401,19.5698833 Z" id="Path" fill="#EBEBED" fill-rule="nonzero"></path>
                    <path d="M9.39850023,48.6561021 L19.971813,41.4804782 C20.7820285,40.9048934 21.9163303,40.9048934 22.7265458,41.4804782 L33.3403694,48.6561021" id="Path" fill="#EBEBED" fill-rule="nonzero"></path>
                    <path d="M37.2699147,4.87328468 L5.06384711,4.87328468 C4.09158846,4.87328468 3.3218837,4.14421059 3.3218837,3.2232749 L3.3218837,1.65000977 C3.3218837,0.729074085 4.09158846,0 5.06384711,0 L37.2699147,0 C38.2421734,0 39.0118781,0.729074085 39.0118781,1.65000977 L39.0118781,3.2232749 C39.0118781,4.14421059 38.2016626,4.87328468 37.2699147,4.87328468 Z" id="Path" fill="#EBEBED" fill-rule="nonzero"></path>
                    <path d="M37.4319578,53.5293868 L5.22589022,53.5293868 C4.25363157,53.5293868 3.48392681,52.8003127 3.48392681,51.879377 L3.48392681,50.3061119 C3.48392681,49.3851762 4.25363157,48.6561021 5.22589022,48.6561021 L37.4319578,48.6561021 C38.4042165,48.6561021 39.1739212,49.3851762 39.1739212,50.3061119 L39.1739212,51.879377 C39.1739212,52.8003127 38.4042165,53.5293868 37.4319578,53.5293868 Z" id="Path" fill="#EBEBED" fill-rule="nonzero"></path>
                    <path d="M33.948031,4.87328468 L1.74196341,4.87328468 C0.76970476,4.87328468 0,4.14421059 0,3.2232749 L0,1.65000977 C0,0.729074085 0.76970476,0 1.74196341,0 L33.948031,0 C34.9202897,0 35.6899944,0.729074085 35.6899944,1.65000977 L35.6899944,3.2232749 C35.6899944,4.14421059 34.9202897,4.87328468 33.948031,4.87328468 Z" id="Path" stroke="#B9B9BA" stroke-width="2"></path>
                    <path d="M34.1100741,53.5293868 L1.90400651,53.5293868 C0.931747868,53.5293868 0.162043107,52.8003127 0.162043107,51.879377 L0.162043107,50.3061119 C0.162043107,49.3851762 0.931747868,48.6561021 1.90400651,48.6561021 L34.1100741,48.6561021 C35.0823328,48.6561021 35.8520375,49.3851762 35.8520375,50.3061119 L35.8520375,51.879377 C35.8925483,52.8003127 35.0823328,53.5293868 34.1100741,53.5293868 Z" id="Path" stroke="#B9B9BA" stroke-width="2"></path>
                    <path d="M32.2465784,47.9654003 C32.9352616,33.8443865 20.7820285,31.7339089 20.0528345,26.5152733 L20.0528345,25.9780608 C20.7820285,20.7594253 32.9352616,18.8408093 32.2465784,4.71979539 L3.44341603,4.911657 C2.75473283,19.0326709 14.9079659,21.1431485 15.6371599,26.361784 L15.6371599,26.8989965 C14.9079659,32.1176321 2.75473283,34.2281097 3.44341603,48.3491235" id="Path" stroke="#B9B9BA" stroke-width="2"></path>
                    <path d="M13.3685564,19.5698833 C15.4751168,21.3733824 17.4601448,23.0617645 17.8247418,25.517593 L17.8247418,25.6327099 L17.8247418,25.4408483 L17.8247418,25.3257314 L17.8247418,25.2106144 C18.1893388,22.7547859 20.1743669,21.0664038 22.2809273,19.3012771 C24.5495308,17.3826611 27.0206882,15.3105558 28.2765223,11.857047 L7.21091828,11.857047 C8.50726314,15.4640451 11.0594421,17.612895 13.3685564,19.5698833 Z" id="Path" stroke="#B9B9BA" stroke-width="2"></path>
                    <path d="M6.07661653,48.6561021 L16.6499293,41.4421059 C17.4601448,40.8665211 18.5944466,40.8665211 19.4046621,41.4421059 L30.0184857,48.6177298" id="Path" stroke="#B9B9BA" stroke-width="2"></path>
                    <ellipse id="Oval" fill="#B9B9BA" fill-rule="nonzero" cx="16.7309508" cy="32.2711214" rx="1" ry="1"></ellipse>
                    <ellipse id="Oval" fill="#B9B9BA" fill-rule="nonzero" cx="20.5794746" cy="35.22579" rx="1" ry="1"></ellipse>
                    <ellipse id="Oval" fill="#B9B9BA" fill-rule="nonzero" cx="15.434606" cy="38.0269694" rx="1" ry="1"></ellipse>
                </g>
            </g>
        </g>
    </g>
</svg>