<?xml version="1.0" encoding="UTF-8"?>
<svg width="121px" height="110px" viewBox="0 0 121 110" version="1.1" xmlns="http://www.w3.org/2000/svg" xmlns:xlink="http://www.w3.org/1999/xlink">
    <title>Group</title>
    <g id="Page-1" stroke="none" stroke-width="1" fill="none" fill-rule="evenodd">
        <g id="iPhone-13-mini" transform="translate(-42, -1267)">
            <g id="Group" transform="translate(43, 1268)">
                <g id="Path" stroke="#B9B9BA" stroke-width="2">
                    <path d="M18.2802112,84.6299253 C18.3612327,81.4066504 18.4017435,78.1450032 18.5637866,74.9217283 C18.6853189,72.3507828 17.9156142,70.1251882 16.2546723,68.0914553 C12.1630839,63.1414259 8.15251695,58.1530243 4.18246082,53.1646227 C2.68356207,51.284379 1.50874954,49.2122737 0.698534005,46.9483068 C-1.00291862,42.1133944 0.414958567,38.1994178 4.83063325,35.3214937 C7.58536607,33.5179947 10.6641851,32.481942 13.8240257,31.5993787 C19.6170668,29.9877412 25.4506187,28.3761038 31.2436598,26.726094 C33.7148172,26.0353922 35.3352482,24.3853825 36.7531254,22.3900218 C40.3585846,17.3248755 44.0045545,12.2981016 47.7315459,7.30969993 C49.351977,5.12247768 51.2559835,3.20386166 53.6461194,1.74571349 C57.6161755,-0.710115005 61.707764,-0.556625724 65.5562878,2.09106438 C68.5135745,4.12479735 70.6606457,6.84923209 72.6861845,9.68878379 C75.9675574,14.2550899 79.2894411,18.8597683 82.6113248,23.4260744 C83.8671589,25.1144565 85.5686115,26.2272538 87.6751719,26.8028386 C94.3189393,28.64471 100.962707,30.5249537 107.606474,32.4435697 C110.118142,33.1726438 112.467767,34.2854411 114.574328,35.8203339 C118.34183,38.583141 119.557153,42.4587453 118.058255,46.7564452 C117.045485,49.6727415 115.344033,52.2053147 113.399515,54.5843985 C109.632013,59.2658216 105.824,63.9088723 102.015987,68.5902954 C100.59811,70.3170498 99.9904481,72.2740382 100.07147,74.4612604 C100.274024,80.4089701 100.436067,86.3183074 100.59811,92.266017 C100.679131,94.9904518 100.476577,97.7148865 99.6663619,100.362577 C98.1674631,105.350978 94.4809824,107.960296 88.9715168,107.845179 C85.48759,107.768434 82.2062171,106.809126 78.9653549,105.696329 C73.5774216,103.854458 68.1894883,102.050959 62.8015549,100.209087 C60.4114191,99.4032686 58.1023048,99.4800132 55.712169,100.285832 C49.5140201,102.39631 43.356382,104.468415 37.1177224,106.502148 C34.4035004,107.384711 31.6082568,107.883551 28.7319916,107.806807 C23.8706984,107.614945 20.4272823,105.005627 19.0904267,100.554438 C18.2802112,97.7532588 18.0776573,94.9137071 18.1181681,92.0357831 C18.1586788,89.5799546 18.1181681,87.1241261 18.1181681,84.6682976 C18.1586788,84.6299253 18.2397004,84.6299253 18.2802112,84.6299253 Z"></path>
                </g>
                <path d="M68.2705098,42.420373 C68.2705098,46.3343497 66.6500787,53.7402075 60.7760161,53.3564843 C54.9019535,52.9727611 53.2815224,46.3343497 53.2815224,42.420373 C53.2815224,38.5063963 56.6439169,35.3214937 60.7760161,35.3214937 C64.9081153,35.3214937 68.2705098,38.5063963 68.2705098,42.420373 Z" id="Path" fill="#FFFFFF" fill-rule="nonzero"></path>
                <path d="M64.1789214,36.0889401 L64.6245399,36.0889401 L64.6245399,33.3261331 C64.6245399,32.3284528 63.7738136,31.4842617 62.6800226,31.4842617 L59.2366066,31.4842617 C58.1833264,31.4842617 57.2920893,32.2900804 57.2920893,33.3261331 L57.2920893,36.0889401 L57.3326001,36.0889401 C55.5501259,36.9331312 54.2132702,38.4296517 53.5650978,40.271523 C58.5884341,41.8831605 63.3687058,41.8831605 67.8248913,40.271523 C67.2982512,38.4296517 65.9208848,36.9331312 64.1789214,36.0889401 Z" id="Path" fill="#EBEBED" fill-rule="nonzero"></path>
                <path d="M66.244971,42.420373 C66.244971,46.3343497 64.6245399,53.7402075 58.7504773,53.3564843 C52.8764146,52.9727611 51.2559835,46.3343497 51.2559835,42.420373 C51.2559835,38.5063963 54.618378,35.3214937 58.7504773,35.3214937 C62.8825765,35.3214937 66.244971,38.5063963 66.244971,42.420373 Z" id="Path" stroke="#B9B9BA" stroke-width="2"></path>
                <path d="M66.244971,55.6588235 C70.782178,55.6588235 74.7522341,59.1507046 74.7522341,63.4484045 L74.7522341,70.2403052 C74.7522341,72.3507828 72.9292492,74.0775372 70.7011564,74.0775372 L52.4713068,74.0775372 C50.2432141,74.0775372 48.4202292,72.3507828 48.4202292,70.2403052 L48.4202292,63.4484045 C48.4202292,59.1507046 52.1067098,55.6588235 56.6439169,55.6588235" id="Path" fill="#FFFFFF" fill-rule="nonzero"></path>
                <path d="M70.3365594,56.8867377 L69.4858331,62.7577027 L68.5135745,68.3984338 C68.3920421,69.0123909 67.865402,69.4728588 67.1767188,69.4728588 L54.8614427,69.4728588 C54.1727595,69.4728588 53.6056086,68.9740186 53.524587,68.3600615 C57.8592402,66.863541 61.707764,62.7193304 65.3942447,57.5774395 L65.3537339,55.6588235 C68.2705098,55.5053342 68.9997038,56.0041744 70.3365594,56.8867377 Z" id="Path" fill="#EBEBED" fill-rule="nonzero"></path>
                <path d="M55.3070612,36.0889401 L55.3070612,33.3261331 C55.3070612,32.3284528 56.1577875,31.4842617 57.2515785,31.4842617 L60.6949945,31.4842617 C61.7482747,31.4842617 62.6395118,32.2900804 62.6395118,33.3261331 L62.6395118,36.0889401" id="Path" stroke="#B9B9BA" stroke-width="2"></path>
                <line x1="54.253781" y1="51.284379" x2="54.253781" y2="57.5006949" id="Path" stroke="#B9B9BA" stroke-width="2"></line>
                <path d="M62.963598,51.8983361 L62.963598,57.5006949 C60.249376,62.1053733 56.3603414,65.904233 51.2559835,68.897274" id="Path" stroke="#B9B9BA" stroke-width="2"></path>
                <path d="M63.4092166,55.6588235 C67.9464236,55.6588235 71.9164797,59.1507046 71.9164797,63.4484045 L71.9164797,70.2403052 C71.9164797,72.3507828 70.0934948,74.0775372 67.865402,74.0775372 L49.6355525,74.0775372 C47.4074597,74.0775372 45.5844748,72.3507828 45.5844748,70.2403052 L45.5844748,63.4484045 C45.5844748,59.1507046 49.2709555,55.6588235 53.8081625,55.6588235" id="Path" stroke="#B9B9BA" stroke-width="2"></path>
                <path d="M74.3471263,83.2868941 L48.0151214,83.2868941 C45.3414101,83.2868941 43.1538282,81.2147888 43.1538282,78.6822156 L43.1538282,78.6822156 C43.1538282,76.1496425 45.3414101,74.0775372 48.0151214,74.0775372 L74.3471263,74.0775372 C77.0208376,74.0775372 79.2084196,76.1496425 79.2084196,78.6822156 L79.2084196,78.6822156 C79.2084196,81.2147888 77.0208376,83.2868941 74.3471263,83.2868941 Z" id="Path" fill="#EBEBED" fill-rule="nonzero"></path>
                <path d="M71.9164797,83.2868941 L45.5844748,83.2868941 C42.9107635,83.2868941 40.7231815,81.2147888 40.7231815,78.6822156 L40.7231815,78.6822156 C40.7231815,76.1496425 42.9107635,74.0775372 45.5844748,74.0775372 L71.9164797,74.0775372 C74.590191,74.0775372 76.777773,76.1496425 76.777773,78.6822156 L76.777773,78.6822156 C76.777773,81.2147888 74.590191,83.2868941 71.9164797,83.2868941 Z" id="Path" stroke="#B9B9BA" stroke-width="2"></path>
                <path d="M51.6205805,40.271523 C56.6439169,41.8831605 61.4241885,41.8831605 65.880374,40.271523" id="Path" stroke="#B9B9BA" stroke-width="2"></path>
                <path d="M56.3198306,74.0775372 C53.3625439,76.5333657 51.539559,79.6031513 50.9724081,83.2868941" id="Path" stroke="#B9B9BA" stroke-width="2"></path>
                <path d="M67.9059128,56.8867377 L67.0551865,62.7577027 L66.0829279,68.3984338 C65.9613955,69.0123909 65.4347554,69.4728588 64.7460722,69.4728588 L52.4307961,69.4728588 C51.7421129,69.4728588 51.174962,68.9740186 51.0939404,68.3600615 L50.4052572,62.7577027" id="Path" stroke="#B9B9BA" stroke-width="2"></path>
                <path d="M40.7231815,78.6822156 C32.3374507,71.7368257 27.5166683,61.4914162 31.6082568,42.8040962 C34.4035004,48.5983165 37.8874272,54.3157923 45.5844748,59.5344278" id="Path" stroke="#B9B9BA" stroke-width="2"></path>
                <path d="M45.5844748,59.4960555 C42.1410587,53.5099735 39.2242828,44.9913184 46.1111149,34.5540473 C46.4352011,38.6598856 48.622783,42.420373 52.0661991,47.216913" id="Path" stroke="#B9B9BA" stroke-width="2"></path>
                <path d="M71.9164797,60.6472251 C75.3598958,54.6611432 78.2766717,46.1424881 71.3898396,35.7052169 C71.0657534,39.8110552 68.8781715,43.5715426 65.4347554,48.3680826" id="Path" stroke="#B9B9BA" stroke-width="2"></path>
                <path d="M76.6967514,79.4496621 C85.0824822,72.5042721 89.9032647,62.2588626 85.8116762,43.5715426 C83.0164326,49.365763 79.5325058,55.0832387 71.8354582,60.3018742" id="Path" stroke="#B9B9BA" stroke-width="2"></path>
            </g>
        </g>
    </g>
</svg>