<?xml version="1.0" encoding="UTF-8"?>
<svg width="121px" height="110px" viewBox="0 0 121 110" version="1.1" xmlns="http://www.w3.org/2000/svg" xmlns:xlink="http://www.w3.org/1999/xlink">
    <title>Group</title>
    <g id="Page-1" stroke="none" stroke-width="1" fill="none" fill-rule="evenodd">
        <g id="iPhone-13-mini" transform="translate(-42, -1634)">
            <g id="Group" transform="translate(43, 1635)">
                <g id="Path" stroke="#B9B9BA" stroke-width="2">
                    <path d="M18.2802112,84.6299253 C18.3612327,81.4066504 18.4017435,78.1450032 18.5637866,74.9217283 C18.6853189,72.3507828 17.9156142,70.1251882 16.2546723,68.0914553 C12.1630839,63.1414259 8.15251695,58.1530243 4.18246082,53.1646227 C2.68356207,51.284379 1.50874954,49.2122737 0.698534005,46.9483068 C-1.00291862,42.1133944 0.414958567,38.1994178 4.83063325,35.3214937 C7.58536607,33.5179947 10.6641851,32.481942 13.8240257,31.5993787 C19.6170668,29.9877412 25.4506187,28.3761038 31.2436598,26.726094 C33.7148172,26.0353922 35.3352482,24.3853825 36.7531254,22.3900218 C40.3585846,17.3248755 44.0045545,12.2981016 47.7315459,7.30969993 C49.351977,5.12247768 51.2559835,3.20386166 53.6461194,1.74571349 C57.6161755,-0.710115005 61.707764,-0.556625724 65.5562878,2.09106438 C68.5135745,4.12479735 70.6606457,6.84923209 72.6861845,9.68878379 C75.9675574,14.2550899 79.2894411,18.8597683 82.6113248,23.4260744 C83.8671589,25.1144565 85.5686115,26.2272538 87.6751719,26.8028386 C94.3189393,28.64471 100.962707,30.5249537 107.606474,32.4435697 C110.118142,33.1726438 112.467767,34.2854411 114.574328,35.8203339 C118.34183,38.583141 119.557153,42.4587453 118.058255,46.7564452 C117.045485,49.6727415 115.344033,52.2053147 113.399515,54.5843985 C109.632013,59.2658216 105.824,63.9088723 102.015987,68.5902954 C100.59811,70.3170498 99.9904481,72.2740382 100.07147,74.4612604 C100.274024,80.4089701 100.436067,86.3183074 100.59811,92.266017 C100.679131,94.9904518 100.476577,97.7148865 99.6663619,100.362577 C98.1674631,105.350978 94.4809824,107.960296 88.9715168,107.845179 C85.48759,107.768434 82.2062171,106.809126 78.9653549,105.696329 C73.5774216,103.854458 68.1894883,102.050959 62.8015549,100.209087 C60.4114191,99.4032686 58.1023048,99.4800132 55.712169,100.285832 C49.5140201,102.39631 43.356382,104.468415 37.1177224,106.502148 C34.4035004,107.384711 31.6082568,107.883551 28.7319916,107.806807 C23.8706984,107.614945 20.4272823,105.005627 19.0904267,100.554438 C18.2802112,97.7532588 18.0776573,94.9137071 18.1181681,92.0357831 C18.1586788,89.5799546 18.1181681,87.1241261 18.1181681,84.6682976 C18.1586788,84.6299253 18.2397004,84.6299253 18.2802112,84.6299253 Z"></path>
                </g>
                <polyline id="Path" fill="#EBEBED" fill-rule="nonzero" points="49.3114662 61.3762992 34.5250327 83.1334048 42.2625911 81.6752566 44.6527269 88.6973912 58.2643479 67.2472642"></polyline>
                <polyline id="Path" fill="#EBEBED" fill-rule="nonzero" points="75.2383634 61.7983947 91.1590987 82.1740968 82.8138787 80.7926933 80.2616998 87.3927323 65.5967985 67.3240088"></polyline>
                <ellipse id="Oval" fill="#EBEBED" fill-rule="nonzero" cx="61.1406131" cy="51.5529852" rx="17.5411664" ry="16.6152147"></ellipse>
                <g transform="translate(47.529, 40.8087)">
                    <ellipse id="Oval" fill="#FFFFFF" fill-rule="nonzero" cx="13.8546857" cy="10.5140158" rx="10.8568882" ry="10.2837818"></ellipse>
                    <ellipse id="Oval" stroke="#B9B9BA" stroke-width="2" cx="10.8568882" cy="10.2837818" rx="10.8568882" ry="10.2837818"></ellipse>
                    <path d="M16.528397,4.83491235 C18.4324035,6.60003909 19.3641513,9.24772919 18.7564897,11.8954193 C17.8247418,16.0396299 13.5305995,18.6489477 9.15543557,17.7663843 C4.78027167,16.8838209 2.02553884,12.816355 2.95728671,8.67214438" id="Path" stroke="#B9B9BA" stroke-width="2"></path>
                    <path d="M12.5583408,2.80117938 C13.4900887,2.99304098 14.340815,3.33839186 15.1105198,3.76048739" id="Path" stroke="#B9B9BA" stroke-width="3"></path>
                </g>
                <ellipse id="Oval" stroke="#B9B9BA" stroke-width="2" cx="58.6289449" cy="51.3227513" rx="17.5411664" ry="16.6152147"></ellipse>
                <polyline id="Path" stroke="#B9B9BA" stroke-width="2" points="46.273158 62.4507242 31.6082568 83.3636387 39.3053044 81.9438629 41.6549294 88.6973912 55.1450181 68.1298276"></polyline>
                <polyline id="Path" stroke="#B9B9BA" stroke-width="2" points="72.1595444 61.7983947 88.0802797 82.1740968 79.7350597 80.7926933 77.1828807 87.3927323 62.5179795 67.3240088"></polyline>
            </g>
        </g>
    </g>
</svg>