<?xml version="1.0" encoding="UTF-8"?>
<svg width="129px" height="110px" viewBox="0 0 129 110" version="1.1" xmlns="http://www.w3.org/2000/svg" xmlns:xlink="http://www.w3.org/1999/xlink">
    <title>Group</title>
    <g id="Page-1" stroke="none" stroke-width="1" fill="none" fill-rule="evenodd">
        <g id="Group" transform="translate(1, 1)">
            <g id="Path">
                <path d="M27.5976898,85.7810949 C27.6787114,82.55782 27.7192222,79.2961728 27.8812653,76.0728979 C28.0027976,73.5019524 27.2330929,71.2763578 25.572151,69.2426249 C21.4805625,64.2925955 17.4699956,59.3041939 13.4999395,54.3157923 C12.0010408,52.4355486 10.8262282,50.3634433 10.0160127,48.0994764 C8.31456006,43.264564 9.73243725,39.3505874 14.1481119,36.4726633 C16.9028448,34.6691643 19.9816638,33.6331116 23.1415044,32.7505483 C28.9345455,31.1389108 34.7680973,29.5272734 40.5611384,27.8772636 C43.0322958,27.1865618 44.6527269,25.5365521 46.0706041,23.5411914 C49.6760632,18.4760451 53.3220332,13.4492712 57.0490246,8.46086954 C58.6694557,6.27364729 60.5734622,4.35503127 62.963598,2.8968831 C66.9336542,0.441054604 71.0252426,0.594543885 74.8737664,3.24223398 C77.8310532,5.27596696 79.9781243,8.0004017 82.0036632,10.8399534 C85.2850361,15.4062595 88.6069198,20.0109379 91.9288035,24.5772441 C93.1846376,26.2656261 94.8860902,27.3784234 96.9926506,27.9540082 C103.636418,29.7958796 110.280185,31.6761233 116.923953,33.5947393 C119.435621,34.3238134 121.785246,35.4366107 123.891806,36.9715035 C127.659309,39.7343106 128.874632,43.6099149 127.375733,47.9076148 C126.362964,50.8239111 124.661511,53.3564843 122.716994,55.7355681 C118.949492,60.4169912 115.141479,65.0600419 111.333466,69.741465 C109.915588,71.4682194 109.307927,73.4252078 109.388948,75.61243 C109.591502,81.5601397 109.753545,87.469477 109.915588,93.4171866 C109.99661,96.1416214 109.794056,98.8660561 108.983841,101.513746 C107.484942,106.502148 103.798461,109.111466 98.2889955,108.996349 C94.8050687,108.919604 91.5236957,107.960296 88.2828336,106.847499 C82.8949003,105.005627 77.5069669,103.202128 72.1190336,101.360257 C69.7288978,100.554438 67.4197835,100.631183 65.0296477,101.437002 C58.8314988,103.547479 52.6738607,105.619584 46.4352011,107.653317 C43.720979,108.535881 40.9257354,109.034721 38.0494703,108.957976 C33.1881771,108.766115 29.744761,106.156797 28.4079054,101.705608 C27.5976898,98.9044284 27.395136,96.0648767 27.4356467,93.1869527 C27.4761575,90.7311242 27.4356467,88.2752957 27.4356467,85.8194672 C27.4761575,85.7810949 27.5571791,85.7810949 27.5976898,85.7810949 Z" fill="#E3F5E5" fill-rule="nonzero"></path>
                <path d="M18.2802112,84.6299253 C18.3612327,81.4066504 18.4017435,78.1450032 18.5637866,74.9217283 C18.6853189,72.3507828 17.9156142,70.1251882 16.2546723,68.0914553 C12.1630839,63.1414259 8.15251695,58.1530243 4.18246082,53.1646227 C2.68356207,51.284379 1.50874954,49.2122737 0.698534005,46.9483068 C-1.00291862,42.1133944 0.414958567,38.1994178 4.83063325,35.3214937 C7.58536607,33.5179947 10.6641851,32.481942 13.8240257,31.5993787 C19.6170668,29.9877412 25.4506187,28.3761038 31.2436598,26.726094 C33.7148172,26.0353922 35.3352482,24.3853825 36.7531254,22.3900218 C40.3585846,17.3248755 44.0045545,12.2981016 47.7315459,7.30969993 C49.351977,5.12247768 51.2559835,3.20386166 53.6461194,1.74571349 C57.6161755,-0.710115005 61.707764,-0.556625724 65.5562878,2.09106438 C68.5135745,4.12479735 70.6606457,6.84923209 72.6861845,9.68878379 C75.9675574,14.2550899 79.2894411,18.8597683 82.6113248,23.4260744 C83.8671589,25.1144565 85.5686115,26.2272538 87.6751719,26.8028386 C94.3189393,28.64471 100.962707,30.5249537 107.606474,32.4435697 C110.118142,33.1726438 112.467767,34.2854411 114.574328,35.8203339 C118.34183,38.583141 119.557153,42.4587453 118.058255,46.7564452 C117.045485,49.6727415 115.344033,52.2053147 113.399515,54.5843985 C109.632013,59.2658216 105.824,63.9088723 102.015987,68.5902954 C100.59811,70.3170498 99.9904481,72.2740382 100.07147,74.4612604 C100.274024,80.4089701 100.436067,86.3183074 100.59811,92.266017 C100.679131,94.9904518 100.476577,97.7148865 99.6663619,100.362577 C98.1674631,105.350978 94.4809824,107.960296 88.9715168,107.845179 C85.48759,107.768434 82.2062171,106.809126 78.9653549,105.696329 C73.5774216,103.854458 68.1894883,102.050959 62.8015549,100.209087 C60.4114191,99.4032686 58.1023048,99.4800132 55.712169,100.285832 C49.5140201,102.39631 43.356382,104.468415 37.1177224,106.502148 C34.4035004,107.384711 31.6082568,107.883551 28.7319916,107.806807 C23.8706984,107.614945 20.4272823,105.005627 19.0904267,100.554438 C18.2802112,97.7532588 18.0776573,94.9137071 18.1181681,92.0357831 C18.1586788,89.5799546 18.1181681,87.1241261 18.1181681,84.6682976 C18.1586788,84.6299253 18.2397004,84.6299253 18.2802112,84.6299253 Z" stroke="#4E4E4E" stroke-width="2"></path>
            </g>
            <g transform="translate(34.4035, 33.1726)">
                <rect id="Rectangle" fill="#FFFFFF" fill-rule="nonzero" x="3.28137293" y="13.8524076" width="47.8027167" height="30.6978562"></rect>
                <g transform="translate(3.2409, 3.7989)" fill="#FD7699" fill-rule="nonzero" id="Path">
                    <path d="M47.8837383,10.2454095 L47.8837383,5.25700788 C47.8837383,2.34071154 45.4125809,0 42.3337618,0 L5.54997643,0 C2.47115739,0 0,2.34071154 0,5.25700788 L0,10.2454095 L47.8837383,10.2454095 Z"></path>
                    <path d="M0,40.1758193 C0.0405107769,43.0537433 2.51166817,45.3560826 5.54997643,45.3560826 L42.3337618,45.3560826 C45.3720701,45.3560826 47.8432275,43.0537433 47.8837383,40.1758193 L0,40.1758193 Z"></path>
                </g>
                <path d="M42.3337618,49.1549423 L5.54997643,49.1549423 C2.47115739,49.1549423 0,46.8142307 0,43.8979344 L0,9.05586759 C0,6.13957124 2.47115739,3.79885971 5.54997643,3.79885971 L42.3337618,3.79885971 C45.4125809,3.79885971 47.8837383,6.13957124 47.8837383,9.05586759 L47.8837383,43.8979344 C47.8837383,46.8142307 45.4125809,49.1549423 42.3337618,49.1549423 Z" id="Path" stroke="#4E4E4E" stroke-width="2"></path>
                <path d="M14.5838797,8.78726134 L12.7608947,8.78726134 C12.0722115,8.78726134 11.5050606,8.25004886 11.5050606,7.59771941 L11.5050606,1.18954193 C11.5050606,0.537212484 12.0722115,0 12.7608947,0 L14.5838797,0 C15.2725629,0 15.8397138,0.537212484 15.8397138,1.18954193 L15.8397138,7.59771941 C15.799203,8.28842118 15.2725629,8.78726134 14.5838797,8.78726134 Z" id="Path" fill="#35D2AB" fill-rule="nonzero"></path>
                <path d="M25.4812786,8.78726134 L23.6582937,8.78726134 C22.9696105,8.78726134 22.4024596,8.25004886 22.4024596,7.59771941 L22.4024596,1.18954193 C22.4024596,0.537212484 22.9696105,0 23.6582937,0 L25.4812786,0 C26.1699619,0 26.7371127,0.537212484 26.7371127,1.18954193 L26.7371127,7.59771941 C26.7371127,8.28842118 26.1699619,8.78726134 25.4812786,8.78726134 Z" id="Path" fill="#35D2AB" fill-rule="nonzero"></path>
                <path d="M37.7155333,8.78726134 L35.8925483,8.78726134 C35.2038651,8.78726134 34.6367142,8.25004886 34.6367142,7.59771941 L34.6367142,1.18954193 C34.6367142,0.537212484 35.2038651,0 35.8925483,0 L37.7155333,0 C38.4042165,0 38.9713673,0.537212484 38.9713673,1.18954193 L38.9713673,7.59771941 C38.9308566,8.28842118 38.4042165,8.78726134 37.7155333,8.78726134 Z" id="Path" fill="#35D2AB" fill-rule="nonzero"></path>
                <path d="M12.9634486,8.78726134 L11.1404636,8.78726134 C10.4517804,8.78726134 9.88462956,8.25004886 9.88462956,7.59771941 L9.88462956,1.18954193 C9.88462956,0.537212484 10.4517804,0 11.1404636,0 L12.9634486,0 C13.6521318,0 14.2192827,0.537212484 14.2192827,1.18954193 L14.2192827,7.59771941 C14.1787719,8.28842118 13.6521318,8.78726134 12.9634486,8.78726134 Z" id="Path" stroke="#4E4E4E" stroke-width="2"></path>
                <path d="M23.8608476,8.78726134 L22.0378626,8.78726134 C21.3491794,8.78726134 20.7820285,8.25004886 20.7820285,7.59771941 L20.7820285,1.18954193 C20.7820285,0.537212484 21.3491794,0 22.0378626,0 L23.8608476,0 C24.5495308,0 25.1166817,0.537212484 25.1166817,1.18954193 L25.1166817,7.59771941 C25.1166817,8.28842118 24.5495308,8.78726134 23.8608476,8.78726134 Z" id="Path" stroke="#4E4E4E" stroke-width="2"></path>
                <path d="M36.0951022,8.78726134 L34.2721172,8.78726134 C33.583434,8.78726134 33.0162831,8.25004886 33.0162831,7.59771941 L33.0162831,1.18954193 C33.0162831,0.537212484 33.583434,0 34.2721172,0 L36.0951022,0 C36.7837854,0 37.3509363,0.537212484 37.3509363,1.18954193 L37.3509363,7.59771941 C37.3104255,8.28842118 36.7837854,8.78726134 36.0951022,8.78726134 Z" id="Path" stroke="#4E4E4E" stroke-width="2"></path>
                <line x1="0" y1="14.0442692" x2="47.8837383" y2="14.0442692" id="Path" stroke="#4E4E4E" stroke-width="2"></line>
                <line x1="0" y1="43.974679" x2="47.8837383" y2="43.974679" id="Path" stroke="#4E4E4E" stroke-width="2"></line>
                <polygon id="Path" fill="#35D2AB" fill-rule="nonzero" points="17.7032095 25.8245715 23.6988045 31.5036749 38.0396195 17.9198736 41.3615032 21.0664038 23.6988045 37.7967355 14.0572396 29.5850589"></polygon>
                <polygon id="Path" stroke="#4E4E4E" stroke-width="2" stroke-linejoin="round" points="15.0294982 25.8245715 21.0250932 31.5036749 35.3659082 17.9198736 38.6877919 21.0664038 21.0250932 37.7967355 11.3835283 29.5850589"></polygon>
            </g>
        </g>
    </g>
</svg>