<?xml version="1.0" encoding="UTF-8"?>
<svg width="129px" height="110px" viewBox="0 0 129 110" version="1.1" xmlns="http://www.w3.org/2000/svg" xmlns:xlink="http://www.w3.org/1999/xlink">
    <title>Group</title>
    <g id="Page-1" stroke="none" stroke-width="1" fill="none" fill-rule="evenodd">
        <g id="Group" transform="translate(1, 1)">
            <g id="Path">
                <path d="M27.5976898,85.7810949 C27.6787114,82.55782 27.7192222,79.2961728 27.8812653,76.0728979 C28.0027976,73.5019524 27.2330929,71.2763578 25.572151,69.2426249 C21.4805625,64.2925955 17.4699956,59.3041939 13.4999395,54.3157923 C12.0010408,52.4355486 10.8262282,50.3634433 10.0160127,48.0994764 C8.31456006,43.264564 9.73243725,39.3505874 14.1481119,36.4726633 C16.9028448,34.6691643 19.9816638,33.6331116 23.1415044,32.7505483 C28.9345455,31.1389108 34.7680973,29.5272734 40.5611384,27.8772636 C43.0322958,27.1865618 44.6527269,25.5365521 46.0706041,23.5411914 C49.6760632,18.4760451 53.3220332,13.4492712 57.0490246,8.46086954 C58.6694557,6.27364729 60.5734622,4.35503127 62.963598,2.8968831 C66.9336542,0.441054604 71.0252426,0.594543885 74.8737664,3.24223398 C77.8310532,5.27596696 79.9781243,8.0004017 82.0036632,10.8399534 C85.2850361,15.4062595 88.6069198,20.0109379 91.9288035,24.5772441 C93.1846376,26.2656261 94.8860902,27.3784234 96.9926506,27.9540082 C103.636418,29.7958796 110.280185,31.6761233 116.923953,33.5947393 C119.435621,34.3238134 121.785246,35.4366107 123.891806,36.9715035 C127.659309,39.7343106 128.874632,43.6099149 127.375733,47.9076148 C126.362964,50.8239111 124.661511,53.3564843 122.716994,55.7355681 C118.949492,60.4169912 115.141479,65.0600419 111.333466,69.741465 C109.915588,71.4682194 109.307927,73.4252078 109.388948,75.61243 C109.591502,81.5601397 109.753545,87.469477 109.915588,93.4171866 C109.99661,96.1416214 109.794056,98.8660561 108.983841,101.513746 C107.484942,106.502148 103.798461,109.111466 98.2889955,108.996349 C94.8050687,108.919604 91.5236957,107.960296 88.2828336,106.847499 C82.8949003,105.005627 77.5069669,103.202128 72.1190336,101.360257 C69.7288978,100.554438 67.4197835,100.631183 65.0296477,101.437002 C58.8314988,103.547479 52.6738607,105.619584 46.4352011,107.653317 C43.720979,108.535881 40.9257354,109.034721 38.0494703,108.957976 C33.1881771,108.766115 29.744761,106.156797 28.4079054,101.705608 C27.5976898,98.9044284 27.395136,96.0648767 27.4356467,93.1869527 C27.4761575,90.7311242 27.4356467,88.2752957 27.4356467,85.8194672 C27.4761575,85.7810949 27.5571791,85.7810949 27.5976898,85.7810949 Z" fill="#E6F0F5" fill-rule="nonzero"></path>
                <path d="M18.2802112,84.6299253 C18.3612327,81.4066504 18.4017435,78.1450032 18.5637866,74.9217283 C18.6853189,72.3507828 17.9156142,70.1251882 16.2546723,68.0914553 C12.1630839,63.1414259 8.15251695,58.1530243 4.18246082,53.1646227 C2.68356207,51.284379 1.50874954,49.2122737 0.698534005,46.9483068 C-1.00291862,42.1133944 0.414958567,38.1994178 4.83063325,35.3214937 C7.58536607,33.5179947 10.6641851,32.481942 13.8240257,31.5993787 C19.6170668,29.9877412 25.4506187,28.3761038 31.2436598,26.726094 C33.7148172,26.0353922 35.3352482,24.3853825 36.7531254,22.3900218 C40.3585846,17.3248755 44.0045545,12.2981016 47.7315459,7.30969993 C49.351977,5.12247768 51.2559835,3.20386166 53.6461194,1.74571349 C57.6161755,-0.710115005 61.707764,-0.556625724 65.5562878,2.09106438 C68.5135745,4.12479735 70.6606457,6.84923209 72.6861845,9.68878379 C75.9675574,14.2550899 79.2894411,18.8597683 82.6113248,23.4260744 C83.8671589,25.1144565 85.5686115,26.2272538 87.6751719,26.8028386 C94.3189393,28.64471 100.962707,30.5249537 107.606474,32.4435697 C110.118142,33.1726438 112.467767,34.2854411 114.574328,35.8203339 C118.34183,38.583141 119.557153,42.4587453 118.058255,46.7564452 C117.045485,49.6727415 115.344033,52.2053147 113.399515,54.5843985 C109.632013,59.2658216 105.824,63.9088723 102.015987,68.5902954 C100.59811,70.3170498 99.9904481,72.2740382 100.07147,74.4612604 C100.274024,80.4089701 100.436067,86.3183074 100.59811,92.266017 C100.679131,94.9904518 100.476577,97.7148865 99.6663619,100.362577 C98.1674631,105.350978 94.4809824,107.960296 88.9715168,107.845179 C85.48759,107.768434 82.2062171,106.809126 78.9653549,105.696329 C73.5774216,103.854458 68.1894883,102.050959 62.8015549,100.209087 C60.4114191,99.4032686 58.1023048,99.4800132 55.712169,100.285832 C49.5140201,102.39631 43.356382,104.468415 37.1177224,106.502148 C34.4035004,107.384711 31.6082568,107.883551 28.7319916,107.806807 C23.8706984,107.614945 20.4272823,105.005627 19.0904267,100.554438 C18.2802112,97.7532588 18.0776573,94.9137071 18.1181681,92.0357831 C18.1586788,89.5799546 18.1181681,87.1241261 18.1181681,84.6682976 C18.1586788,84.6299253 18.2397004,84.6299253 18.2802112,84.6299253 Z" stroke="#4E4E4E" stroke-width="2"></path>
            </g>
            <polygon id="Path" fill="#35D2AB" fill-rule="nonzero" points="60.7760161 22.9656066 50.6483219 29.9493689 57.5351539 29.9493689 57.5351539 40.8854802 64.421986 40.8854802 64.421986 29.9493689 71.3088181 29.9493689"></polygon>
            <polygon id="Path" stroke="#4E4E4E" stroke-width="2" stroke-linejoin="round" points="58.7504773 22.1981602 48.622783 29.1819225 55.5096151 29.1819225 55.3070612 41.461065 62.5990011 41.461065 62.3964472 29.1819225 69.2832792 29.1819225"></polygon>
            <g transform="translate(67.7034, 59.3042)" fill="#35D2AB" fill-rule="nonzero" id="Path">
                <path d="M17.8247418,24.8268912 L1.66094185,24.8268912 C0.729193984,24.8268912 0,24.1361895 0,23.2536261 L0,20.1838405 C0,19.3012771 0.729193984,18.6105753 1.66094185,18.6105753 L17.8247418,18.6105753 C18.7564897,18.6105753 19.4856837,19.3012771 19.4856837,20.1838405 L19.4856837,23.2536261 C19.4856837,24.1361895 18.7159789,24.8268912 17.8247418,24.8268912 Z"></path>
                <path d="M17.8247418,18.6489477 L1.66094185,18.6489477 C0.729193984,18.6489477 0,17.9582459 0,17.0756825 L0,14.0058969 C0,13.1233335 0.729193984,12.4326318 1.66094185,12.4326318 L17.8247418,12.4326318 C18.7564897,12.4326318 19.4856837,13.1233335 19.4856837,14.0058969 L19.4856837,17.0756825 C19.4856837,17.9198736 18.7159789,18.6489477 17.8247418,18.6489477 Z"></path>
                <path d="M17.8247418,12.4326318 L1.66094185,12.4326318 C0.729193984,12.4326318 0,11.74193 0,10.8593666 L0,7.78958102 C0,6.90701765 0.729193984,6.21631588 1.66094185,6.21631588 L17.8247418,6.21631588 C18.7564897,6.21631588 19.4856837,6.90701765 19.4856837,7.78958102 L19.4856837,10.8593666 C19.4856837,11.74193 18.7159789,12.4326318 17.8247418,12.4326318 Z"></path>
                <path d="M17.8247418,6.21631588 L1.66094185,6.21631588 C0.729193984,6.21631588 0,5.52561412 0,4.64305075 L0,1.57326513 C0,0.690701765 0.729193984,0 1.66094185,0 L17.8247418,0 C18.7564897,0 19.4856837,0.690701765 19.4856837,1.57326513 L19.4856837,4.64305075 C19.4856837,5.52561412 18.7159789,6.21631588 17.8247418,6.21631588 Z"></path>
            </g>
            <g transform="translate(64.6245, 59.3042)" id="Path" stroke="#4E4E4E" stroke-width="2">
                <path d="M17.8247418,24.8268912 L1.66094185,24.8268912 C0.729193984,24.8268912 0,24.1361895 0,23.2536261 L0,20.1838405 C0,19.3012771 0.729193984,18.6105753 1.66094185,18.6105753 L17.8247418,18.6105753 C18.7564897,18.6105753 19.4856837,19.3012771 19.4856837,20.1838405 L19.4856837,23.2536261 C19.4451729,24.1361895 18.7159789,24.8268912 17.8247418,24.8268912 Z"></path>
                <path d="M17.8247418,18.6489477 L1.66094185,18.6489477 C0.729193984,18.6489477 0,17.9582459 0,17.0756825 L0,14.0058969 C0,13.1233335 0.729193984,12.4326318 1.66094185,12.4326318 L17.8247418,12.4326318 C18.7564897,12.4326318 19.4856837,13.1233335 19.4856837,14.0058969 L19.4856837,17.0756825 C19.4451729,17.9198736 18.7159789,18.6489477 17.8247418,18.6489477 Z"></path>
                <path d="M17.8247418,12.4326318 L1.66094185,12.4326318 C0.729193984,12.4326318 0,11.74193 0,10.8593666 L0,7.78958102 C0,6.90701765 0.729193984,6.21631588 1.66094185,6.21631588 L17.8247418,6.21631588 C18.7564897,6.21631588 19.4856837,6.90701765 19.4856837,7.78958102 L19.4856837,10.8593666 C19.4451729,11.74193 18.7159789,12.4326318 17.8247418,12.4326318 Z"></path>
                <path d="M17.8247418,6.21631588 L1.66094185,6.21631588 C0.729193984,6.21631588 0,5.52561412 0,4.64305075 L0,1.57326513 C0,0.690701765 0.729193984,0 1.66094185,0 L17.8247418,0 C18.7564897,0 19.4856837,0.690701765 19.4856837,1.57326513 L19.4856837,4.64305075 C19.4451729,5.52561412 18.7159789,6.21631588 17.8247418,6.21631588 Z"></path>
            </g>
            <g transform="translate(37.2798, 59.3426)" fill="#35D2AB" fill-rule="nonzero" id="Path">
                <path d="M10.0871834,24.7885189 L1.25583408,24.7885189 C0.567150876,24.7885189 -2.30277106e-14,24.2513064 -2.30277106e-14,23.598977 L-2.30277106e-14,19.8001173 C-2.30277106e-14,19.1477878 0.567150876,18.6105753 1.25583408,18.6105753 L10.0871834,18.6105753 C10.7758666,18.6105753 11.3430175,19.1477878 11.3430175,19.8001173 L11.3430175,23.598977 C11.3430175,24.2513064 10.7758666,24.7885189 10.0871834,24.7885189 Z"></path>
                <path d="M10.0871834,18.6105753 L1.25583408,18.6105753 C0.567150876,18.6105753 -2.30277106e-14,18.0733628 -2.30277106e-14,17.4210334 L-2.30277106e-14,13.6221737 C-2.30277106e-14,12.9698443 0.567150876,12.4326318 1.25583408,12.4326318 L10.0871834,12.4326318 C10.7758666,12.4326318 11.3430175,12.9698443 11.3430175,13.6221737 L11.3430175,17.4210334 C11.3430175,18.0733628 10.7758666,18.6105753 10.0871834,18.6105753 Z"></path>
                <path d="M10.0871834,12.3942594 L1.25583408,12.3942594 C0.567150876,12.3942594 -2.30277106e-14,11.857047 -2.30277106e-14,11.2047175 L-2.30277106e-14,7.40585781 C-2.30277106e-14,6.75352837 0.567150876,6.21631588 1.25583408,6.21631588 L10.0871834,6.21631588 C10.7758666,6.21631588 11.3430175,6.75352837 11.3430175,7.40585781 L11.3430175,11.2047175 C11.3430175,11.857047 10.7758666,12.3942594 10.0871834,12.3942594 Z"></path>
                <path d="M10.0871834,6.17794356 L1.25583408,6.17794356 C0.567150876,6.17794356 -2.30277106e-14,5.64073108 -2.30277106e-14,4.98840164 L-2.30277106e-14,1.18954193 C-2.30277106e-14,0.537212484 0.567150876,-4.36242775e-14 1.25583408,-4.36242775e-14 L10.0871834,-4.36242775e-14 C10.7758666,-4.36242775e-14 11.3430175,0.537212484 11.3430175,1.18954193 L11.3430175,4.98840164 C11.3430175,5.64073108 10.7758666,6.17794356 10.0871834,6.17794356 Z"></path>
            </g>
            <g transform="translate(34.2009, 59.3426)" id="Path" stroke="#4E4E4E" stroke-width="2">
                <path d="M13.0039594,24.7885189 L1.41787719,24.7885189 C0.64817243,24.7885189 0,24.1745618 0,23.4454877 L0,19.9536065 C0,19.2245325 0.64817243,18.6105753 1.41787719,18.6105753 L13.0039594,18.6105753 C13.7736641,18.6105753 14.4218366,19.2245325 14.4218366,19.9536065 L14.4218366,23.4454877 C14.4218366,24.2129341 13.7736641,24.7885189 13.0039594,24.7885189 Z"></path>
                <path d="M13.0039594,18.6105753 L1.41787719,18.6105753 C0.64817243,18.6105753 0,17.9966182 0,17.2675441 L0,13.775663 C0,13.0465889 0.64817243,12.4326318 1.41787719,12.4326318 L13.0039594,12.4326318 C13.7736641,12.4326318 14.4218366,13.0465889 14.4218366,13.775663 L14.4218366,17.2675441 C14.4218366,17.9966182 13.7736641,18.6105753 13.0039594,18.6105753 Z"></path>
                <path d="M13.0039594,12.3942594 L1.41787719,12.3942594 C0.64817243,12.3942594 0,11.7803023 0,11.0512282 L0,7.55934709 C0,6.83027301 0.64817243,6.21631588 1.41787719,6.21631588 L13.0039594,6.21631588 C13.7736641,6.21631588 14.4218366,6.83027301 14.4218366,7.55934709 L14.4218366,11.0512282 C14.4218366,11.7803023 13.7736641,12.3942594 13.0039594,12.3942594 Z"></path>
                <path d="M13.0039594,6.17794356 L1.41787719,6.17794356 C0.64817243,6.17794356 0,5.56398644 0,4.83491235 L0,1.34303121 C0,0.613957124 0.64817243,0 1.41787719,0 L13.0039594,0 C13.7736641,0 14.4218366,0.613957124 14.4218366,1.34303121 L14.4218366,4.83491235 C14.4218366,5.60235876 13.7736641,6.17794356 13.0039594,6.17794356 Z"></path>
            </g>
            <g transform="translate(51.3775, 49.3274)" fill="#FD7699" fill-rule="nonzero" id="Path">
                <path d="M17.8247418,37.2211507 L1.66094185,37.2211507 C0.729193984,37.2211507 0,36.5304489 0,35.6478855 L0,32.5780999 C0,31.6955365 0.729193984,31.0048348 1.66094185,31.0048348 L17.8247418,31.0048348 C18.7564897,31.0048348 19.4856837,31.6955365 19.4856837,32.5780999 L19.4856837,35.6478855 C19.4451729,36.5304489 18.7159789,37.2211507 17.8247418,37.2211507 Z"></path>
                <path d="M17.8247418,31.0048348 L1.66094185,31.0048348 C0.729193984,31.0048348 0,30.314133 0,29.4315697 L0,26.361784 C0,25.4792207 0.729193984,24.7885189 1.66094185,24.7885189 L17.8247418,24.7885189 C18.7564897,24.7885189 19.4856837,25.4792207 19.4856837,26.361784 L19.4856837,29.4315697 C19.4451729,30.314133 18.7159789,31.0048348 17.8247418,31.0048348 Z"></path>
                <path d="M17.8247418,24.8268912 L1.66094185,24.8268912 C0.729193984,24.8268912 0,24.1361895 0,23.2536261 L0,20.1838405 C0,19.3012771 0.729193984,18.6105753 1.66094185,18.6105753 L17.8247418,18.6105753 C18.7564897,18.6105753 19.4856837,19.3012771 19.4856837,20.1838405 L19.4856837,23.2536261 C19.4451729,24.0978171 18.7159789,24.8268912 17.8247418,24.8268912 Z"></path>
                <path d="M17.8247418,18.6105753 L1.66094185,18.6105753 C0.729193984,18.6105753 0,17.9198736 0,17.0373102 L0,13.9675246 C0,13.0849612 0.729193984,12.3942594 1.66094185,12.3942594 L17.8247418,12.3942594 C18.7564897,12.3942594 19.4856837,13.0849612 19.4856837,13.9675246 L19.4856837,17.0373102 C19.4451729,17.9198736 18.7159789,18.6105753 17.8247418,18.6105753 Z"></path>
                <path d="M17.8247418,12.3942594 L1.66094185,12.3942594 C0.729193984,12.3942594 0,11.7035577 0,10.8209943 L0,7.7512087 C0,6.86864533 0.729193984,6.17794356 1.66094185,6.17794356 L17.8247418,6.17794356 C18.7564897,6.17794356 19.4856837,6.86864533 19.4856837,7.7512087 L19.4856837,10.8209943 C19.4451729,11.7035577 18.7159789,12.3942594 17.8247418,12.3942594 Z"></path>
                <path d="M17.8247418,6.21631588 L1.66094185,6.21631588 C0.729193984,6.21631588 0,5.52561412 0,4.64305075 L0,1.57326513 C0,0.690701765 0.729193984,0 1.66094185,0 L17.8247418,0 C18.7564897,0 19.4856837,0.690701765 19.4856837,1.57326513 L19.4856837,4.64305075 C19.4451729,5.4872418 18.7159789,6.21631588 17.8247418,6.21631588 Z"></path>
            </g>
            <g transform="translate(48.7038, 49.3274)" id="Path" stroke="#4E4E4E" stroke-width="2">
                <path d="M17.8247418,37.2211507 L1.66094185,37.2211507 C0.729193984,37.2211507 0,36.5304489 0,35.6478855 L0,32.5780999 C0,31.6955365 0.729193984,31.0048348 1.66094185,31.0048348 L17.8247418,31.0048348 C18.7564897,31.0048348 19.4856837,31.6955365 19.4856837,32.5780999 L19.4856837,35.6478855 C19.4856837,36.5304489 18.7564897,37.2211507 17.8247418,37.2211507 Z"></path>
                <path d="M17.8247418,31.0048348 L1.66094185,31.0048348 C0.729193984,31.0048348 0,30.314133 0,29.4315697 L0,26.361784 C0,25.4792207 0.729193984,24.7885189 1.66094185,24.7885189 L17.8247418,24.7885189 C18.7564897,24.7885189 19.4856837,25.4792207 19.4856837,26.361784 L19.4856837,29.4315697 C19.4856837,30.314133 18.7564897,31.0048348 17.8247418,31.0048348 Z"></path>
                <path d="M17.8247418,24.8268912 L1.66094185,24.8268912 C0.729193984,24.8268912 0,24.1361895 0,23.2536261 L0,20.1838405 C0,19.3012771 0.729193984,18.6105753 1.66094185,18.6105753 L17.8247418,18.6105753 C18.7564897,18.6105753 19.4856837,19.3012771 19.4856837,20.1838405 L19.4856837,23.2536261 C19.4856837,24.0978171 18.7564897,24.8268912 17.8247418,24.8268912 Z"></path>
                <path d="M17.8247418,18.6105753 L1.66094185,18.6105753 C0.729193984,18.6105753 0,17.9198736 0,17.0373102 L0,13.9675246 C0,13.0849612 0.729193984,12.3942594 1.66094185,12.3942594 L17.8247418,12.3942594 C18.7564897,12.3942594 19.4856837,13.0849612 19.4856837,13.9675246 L19.4856837,17.0373102 C19.4856837,17.9198736 18.7564897,18.6105753 17.8247418,18.6105753 Z"></path>
                <path d="M17.8247418,12.3942594 L1.66094185,12.3942594 C0.729193984,12.3942594 0,11.7035577 0,10.8209943 L0,7.7512087 C0,6.86864533 0.729193984,6.17794356 1.66094185,6.17794356 L17.8247418,6.17794356 C18.7564897,6.17794356 19.4856837,6.86864533 19.4856837,7.7512087 L19.4856837,10.8209943 C19.4856837,11.7035577 18.7564897,12.3942594 17.8247418,12.3942594 Z"></path>
                <path d="M17.8247418,6.21631588 L1.66094185,6.21631588 C0.729193984,6.21631588 0,5.52561412 0,4.64305075 L0,1.57326513 C0,0.690701765 0.729193984,0 1.66094185,0 L17.8247418,0 C18.7564897,0 19.4856837,0.690701765 19.4856837,1.57326513 L19.4856837,4.64305075 C19.4856837,5.4872418 18.7564897,6.21631588 17.8247418,6.21631588 Z"></path>
            </g>
        </g>
    </g>
</svg>