<?xml version="1.0" encoding="UTF-8"?>
<svg width="121px" height="110px" viewBox="0 0 121 110" version="1.1" xmlns="http://www.w3.org/2000/svg" xmlns:xlink="http://www.w3.org/1999/xlink">
    <title>Group</title>
    <g id="Page-1" stroke="none" stroke-width="1" fill="none" fill-rule="evenodd">
        <g id="iPhone-13-mini" transform="translate(-42, -176)">
            <g id="Group" transform="translate(43, 177)">
                <g id="Path" stroke="#B9B9BA" stroke-width="2">
                    <path d="M18.2802112,84.6299253 C18.3612327,81.4066504 18.4017435,78.1450032 18.5637866,74.9217283 C18.6853189,72.3507828 17.9156142,70.1251882 16.2546723,68.0914553 C12.1630839,63.1414259 8.15251695,58.1530243 4.18246082,53.1646227 C2.68356207,51.284379 1.50874954,49.2122737 0.698534005,46.9483068 C-1.00291862,42.1133944 0.414958567,38.1994178 4.83063325,35.3214937 C7.58536607,33.5179947 10.6641851,32.481942 13.8240257,31.5993787 C19.6170668,29.9877412 25.4506187,28.3761038 31.2436598,26.726094 C33.7148172,26.0353922 35.3352482,24.3853825 36.7531254,22.3900218 C40.3585846,17.3248755 44.0045545,12.2981016 47.7315459,7.30969993 C49.351977,5.12247768 51.2559835,3.20386166 53.6461194,1.74571349 C57.6161755,-0.710115005 61.707764,-0.556625724 65.5562878,2.09106438 C68.5135745,4.12479735 70.6606457,6.84923209 72.6861845,9.68878379 C75.9675574,14.2550899 79.2894411,18.8597683 82.6113248,23.4260744 C83.8671589,25.1144565 85.5686115,26.2272538 87.6751719,26.8028386 C94.3189393,28.64471 100.962707,30.5249537 107.606474,32.4435697 C110.118142,33.1726438 112.467767,34.2854411 114.574328,35.8203339 C118.34183,38.583141 119.557153,42.4587453 118.058255,46.7564452 C117.045485,49.6727415 115.344033,52.2053147 113.399515,54.5843985 C109.632013,59.2658216 105.824,63.9088723 102.015987,68.5902954 C100.59811,70.3170498 99.9904481,72.2740382 100.07147,74.4612604 C100.274024,80.4089701 100.436067,86.3183074 100.59811,92.266017 C100.679131,94.9904518 100.476577,97.7148865 99.6663619,100.362577 C98.1674631,105.350978 94.4809824,107.960296 88.9715168,107.845179 C85.48759,107.768434 82.2062171,106.809126 78.9653549,105.696329 C73.5774216,103.854458 68.1894883,102.050959 62.8015549,100.209087 C60.4114191,99.4032686 58.1023048,99.4800132 55.712169,100.285832 C49.5140201,102.39631 43.356382,104.468415 37.1177224,106.502148 C34.4035004,107.384711 31.6082568,107.883551 28.7319916,107.806807 C23.8706984,107.614945 20.4272823,105.005627 19.0904267,100.554438 C18.2802112,97.7532588 18.0776573,94.9137071 18.1181681,92.0357831 C18.1586788,89.5799546 18.1181681,87.1241261 18.1181681,84.6682976 C18.1586788,84.6299253 18.2397004,84.6299253 18.2802112,84.6299253 Z"></path>
                </g>
                <path d="M38.1195313,79.2872287 C37.9965067,81.1531575 38.0785231,83.0968333 39.1037283,84.6906475 C39.0217119,82.7080981 39.8008678,80.8032958 40.5800238,78.9762405 C41.2361551,77.3824264 41.81027,75.7108652 43.0405162,74.4669126 C44.3117707,73.1452131 45.9110908,72.2511222 47.2643617,70.9682961 C47.5104109,70.735055 47.7974684,70.4240669 47.7974684,70.0742053 C47.7974684,69.8409642 47.6744437,69.6077231 47.5924273,69.374482 C46.4031893,67.0031974 45.5420169,64.5152924 44.967902,61.9496403 C45.1729431,62.9603517 43.2455573,64.70966 42.7534588,65.5260038 C41.8512782,66.8865769 41.0721223,68.3637705 40.4569992,69.8409642 C39.1037283,72.8730984 38.3245723,76.0607268 38.1195313,79.2872287 Z" id="Path" fill="#EBEBED" fill-rule="nonzero"></path>
                <path d="M69.6708861,71.16482 C72.4594207,72.1239353 73.9993577,74.4641766 75.2895752,76.7660533 C76.8711321,79.5283053 78.0781097,82.4823804 78.952128,85.4748201 C79.1602276,84.7075279 79.2434675,83.9018711 79.3267073,83.1345788 C79.8677663,76.7276887 77.0376118,70.1673401 71.9183617,65.8705036 C71.6270223,67.7887342 70.9611036,69.6302355 69.8789857,71.2799138" id="Path" fill="#EBEBED" fill-rule="nonzero"></path>
                <path d="M60.8276352,82.7566952 C60.452857,83.6135276 59.8698687,84.5872008 58.9121022,84.6650947 C58.9537442,87.2745389 58.7871762,89.9229299 58.3291139,92.5323741 C59.4950905,92.3376395 60.536141,91.7534355 61.3689814,90.974497 C62.2018218,90.1955584 62.8680942,89.2997791 63.4510825,88.3650528 C65.6581095,84.7819355 66.9906542,80.6925081 67.2405063,76.5251868 C67.2405063,76.4472929 67.2405063,76.3693991 67.1988643,76.3304522 C67.1572223,76.2915052 67.1155803,76.2915052 67.0322962,76.2915052 C65.7830356,76.2136114 64.533775,76.1357175 63.2845144,76.0967706 C62.2851059,76.0578237 61.7854016,75.902036 62.1185378,76.9146561 C62.4100319,77.8493823 62.2851059,78.7451617 62.0352538,79.7188349 C61.7437596,80.6146142 61.4106234,81.8998628 60.8276352,82.7566952 Z" id="Path" fill="#EBEBED" fill-rule="nonzero"></path>
                <path d="M70.7866279,28.8407127 C70.7064776,28.6499324 70.586252,28.4209961 70.5061017,28.2302158 C69.5442974,28.7644006 68.5023428,29.069649 67.420313,29.2985853 C63.7333967,30.1380184 59.8861797,30.2143305 56.0790378,30.2906427 C55.437835,30.2906427 54.7966321,30.3287987 54.1554293,30.3287987 C53.4340761,30.3287987 53.3940009,30.2524866 53.0333243,30.7866713 C52.4321967,31.6642605 52.1516704,32.9615663 51.7909938,33.9917797 C51.0696406,36.0903626 50.5085881,38.2271015 50.1078364,40.3638405 C49.3063328,44.7517865 49.2261825,49.2160446 49.7471598,53.6421467 C50.5887385,60.5483922 52.8730236,67.0730771 56.0389626,73.2925136 C56.1992633,73.6359181 56.4397144,73.7122302 56.800391,73.7122302 C60.5273825,73.7122302 64.254374,73.7122302 67.9412903,73.7122302 C68.3420421,73.7122302 68.542418,73.5977621 68.7427939,73.2162015 C70.7866279,69.209816 72.4297102,65.1271184 73.5918903,60.8154845 C73.9525669,59.4800227 74.2330932,58.1445609 74.5136194,56.809099 C75.4353485,51.9632804 75.5956492,47.0411496 74.9544464,42.1571749 C74.2731684,37.5021365 72.7102364,33.1905026 70.7866279,28.8407127 Z M62.450991,48.8726401 C60.407157,50.7804428 57.0809172,50.7422867 55.0771584,48.796328 C53.0733995,46.8503694 53.1134747,43.683417 55.1573087,41.7756144 C57.2011428,39.8678118 60.5273825,39.9059678 62.5311414,41.8519265 C64.4948251,43.7978852 64.4948251,46.9266815 62.450991,48.8726401 Z" id="Shape" fill="#EBEBED" fill-rule="nonzero"></path>
                <path d="M69.6708861,71.526831 C71.6381629,67.1688878 73.1031563,62.7338129 73.9821524,58.028777 C75.0285762,58.9929237 76.116857,59.8028069 76.9539961,60.8055195 C82.2279723,66.9374926 82.7302558,73.879349 80.7629789,81.1682981 C80.3862664,82.5566694 79.842126,83.867909 79.3816995,85.2562802 C79.2561286,85.603373 79.0887008,85.9119 78.8375591,86.2589928 C78.7957021,86.0661635 78.7538451,85.8733341 78.6701312,85.6805048 C77.9167061,82.4409718 76.8284253,79.3171365 74.9448623,76.4632622 C73.7310106,74.6121005 72.2241603,73.0694657 70.2568834,71.9124897 C70.0894556,71.7582262 69.9220278,71.6810945 69.6708861,71.526831 Z" id="Path" stroke="#B9B9BA" stroke-width="2"></path>
                <path d="M43.4810346,57.2446043 C44.3610842,61.9432214 45.8278335,66.3722457 47.7974684,70.7242435 C47.33649,70.9938363 46.9174188,71.2249158 46.5402546,71.4945086 C44.3610842,72.9194991 42.8524278,74.8836751 41.6371212,77.0404173 C40.2541861,79.5437789 39.3741365,82.2011935 38.7455296,84.9356346 C38.7036225,85.0896876 38.6617154,85.2437406 38.6198083,85.4748201 C38.535994,85.3977936 38.4521798,85.3592804 38.4521798,85.2822539 C36.5244521,80.776203 35.3091455,76.1546125 35.7282167,71.3019423 C36.1891951,65.8330602 38.6198083,61.2114696 43.1038705,57.5527104 C43.1876848,57.4371706 43.271499,57.3986573 43.4810346,57.2446043 Z" id="Path" stroke="#B9B9BA" stroke-width="2"></path>
                <path d="M68.8588794,24.7882866 C68.9383042,24.974117 66.4761359,25.977601 66.2378615,26.0519331 C65.2847641,26.3864278 64.252242,26.5722582 63.2594322,26.6465903 C62.3460472,26.7209225 61.5120869,26.497926 60.5987019,26.5350921 C59.4470426,26.5722582 58.2556708,26.5350921 57.1040115,26.497926 C56.4686132,26.46076 55.8332149,26.4235939 55.2772415,26.1634314 C55.1978167,26.1262653 55.1581043,26.0890992 55.1183919,26.0147671 C55.0786795,25.977601 55.0786795,25.9032688 55.1183919,25.8661028 C55.1978167,24.7882866 56.1906265,23.6733043 56.7863123,22.7813185 C58.2159584,20.7000183 59.8044541,18.7302163 61.6312241,16.9090786 C62.22691,16.3144214 62.22691,16.3144214 62.8225959,16.9462447 C65.0464898,19.1762092 66.9129722,21.6291702 68.5808926,24.2307955 C68.7000298,24.4166258 68.7794546,24.6024562 68.8588794,24.7882866 Z" id="Path" fill="#EBEBED" fill-rule="nonzero"></path>
                <path d="M65.6202532,24.7521912 C61.6033755,27.2798109 55.9879445,27.3169818 51.8481013,24.7521912 C52.2579867,24.0831153 52.6678722,23.4140395 53.1597348,22.7821346 C54.6353225,20.7005654 56.2748644,18.7305088 58.1603376,16.9091357 C58.7751658,16.3144016 58.7751658,16.3144016 59.389994,16.9463066 C61.6853526,19.1765593 63.6118143,21.6298373 65.3333333,24.2317989 C65.456299,24.3804824 65.5382761,24.5663368 65.6202532,24.7521912 Z" id="Path" stroke="#B9B9BA" stroke-width="2"></path>
                <path d="M67.5946342,28.3459461 C65.3097966,29.4646725 62.423686,30.1590544 59.2970661,30.1590544 C56.0501917,30.1590544 53.0839113,29.4260958 50.7589888,28.2302158 C46.8707565,36.2156077 45.467786,44.625344 46.5099926,53.4208481 C47.3517749,60.4032438 49.6366125,66.9998719 52.8033172,73.2878857 C52.9636567,73.6350767 53.2041659,73.7122302 53.5649297,73.7122302 C57.2928226,73.7122302 61.0207155,73.7122302 64.7085236,73.7122302 C65.1093723,73.7122302 65.3097966,73.5964999 65.510221,73.2107322 C67.5545493,69.1601711 69.198029,65.0324565 70.3604902,60.6732812 C73.2466009,49.7560547 72.6453278,39.0702888 67.7950586,28.7317139 C67.7148888,28.6159835 67.6347191,28.5002532 67.5946342,28.3459461 Z M62.8245347,48.5987515 C60.7802063,50.5275901 57.4531621,50.4890134 55.4489186,48.521598 C53.4446751,46.5541826 53.48476,43.3523105 55.5290884,41.4234719 C57.5734167,39.4946333 60.9004609,39.5332101 62.9047044,41.5006312 C64.8688631,43.4680408 64.8688631,46.6313362 62.8245347,48.5987515 Z" id="Shape" stroke="#B9B9BA" stroke-width="2"></path>
                <path d="M52.6582278,76.0647482 C52.6987342,82.0319664 54.5620253,87.0609427 58.8151899,90.9640288 C62.6227848,87.3236504 64.3240506,82.1445554 64.8101266,76.0647482" id="Path" stroke="#B9B9BA" stroke-width="2"></path>
                <path d="M55.8987342,76.0647482 C55.8987342,79.5230581 56.9262118,82.4248583 59.1787589,84.6906475 C61.1941957,82.583861 62.1426366,79.6025594 62.3797468,76.0647482" id="Path" stroke="#B9B9BA" stroke-width="2"></path>
            </g>
        </g>
    </g>
</svg>