<?xml version="1.0" encoding="UTF-8"?>
<svg width="129px" height="110px" viewBox="0 0 129 110" version="1.1" xmlns="http://www.w3.org/2000/svg" xmlns:xlink="http://www.w3.org/1999/xlink">
    <title>Group</title>
    <g id="Page-1" stroke="none" stroke-width="1" fill="none" fill-rule="evenodd">
        <g id="Group" transform="translate(1, 1)">
            <g id="Path">
                <path d="M27.5976898,85.7810949 C27.6787114,82.55782 27.7192222,79.2961728 27.8812653,76.0728979 C28.0027976,73.5019524 27.2330929,71.2763578 25.572151,69.2426249 C21.4805625,64.2925955 17.4699956,59.3041939 13.4999395,54.3157923 C12.0010408,52.4355486 10.8262282,50.3634433 10.0160127,48.0994764 C8.31456006,43.264564 9.73243725,39.3505874 14.1481119,36.4726633 C16.9028448,34.6691643 19.9816638,33.6331116 23.1415044,32.7505483 C28.9345455,31.1389108 34.7680973,29.5272734 40.5611384,27.8772636 C43.0322958,27.1865618 44.6527269,25.5365521 46.0706041,23.5411914 C49.6760632,18.4760451 53.3220332,13.4492712 57.0490246,8.46086954 C58.6694557,6.27364729 60.5734622,4.35503127 62.963598,2.8968831 C66.9336542,0.441054604 71.0252426,0.594543885 74.8737664,3.24223398 C77.8310532,5.27596696 79.9781243,8.0004017 82.0036632,10.8399534 C85.2850361,15.4062595 88.6069198,20.0109379 91.9288035,24.5772441 C93.1846376,26.2656261 94.8860902,27.3784234 96.9926506,27.9540082 C103.636418,29.7958796 110.280185,31.6761233 116.923953,33.5947393 C119.435621,34.3238134 121.785246,35.4366107 123.891806,36.9715035 C127.659309,39.7343106 128.874632,43.6099149 127.375733,47.9076148 C126.362964,50.8239111 124.661511,53.3564843 122.716994,55.7355681 C118.949492,60.4169912 115.141479,65.0600419 111.333466,69.741465 C109.915588,71.4682194 109.307927,73.4252078 109.388948,75.61243 C109.591502,81.5601397 109.753545,87.469477 109.915588,93.4171866 C109.99661,96.1416214 109.794056,98.8660561 108.983841,101.513746 C107.484942,106.502148 103.798461,109.111466 98.2889955,108.996349 C94.8050687,108.919604 91.5236957,107.960296 88.2828336,106.847499 C82.8949003,105.005627 77.5069669,103.202128 72.1190336,101.360257 C69.7288978,100.554438 67.4197835,100.631183 65.0296477,101.437002 C58.8314988,103.547479 52.6738607,105.619584 46.4352011,107.653317 C43.720979,108.535881 40.9257354,109.034721 38.0494703,108.957976 C33.1881771,108.766115 29.744761,106.156797 28.4079054,101.705608 C27.5976898,98.9044284 27.395136,96.0648767 27.4356467,93.1869527 C27.4761575,90.7311242 27.4356467,88.2752957 27.4356467,85.8194672 C27.4761575,85.7810949 27.5571791,85.7810949 27.5976898,85.7810949 Z" fill="#E6F0F5" fill-rule="nonzero"></path>
                <path d="M18.2802112,84.6299253 C18.3612327,81.4066504 18.4017435,78.1450032 18.5637866,74.9217283 C18.6853189,72.3507828 17.9156142,70.1251882 16.2546723,68.0914553 C12.1630839,63.1414259 8.15251695,58.1530243 4.18246082,53.1646227 C2.68356207,51.284379 1.50874954,49.2122737 0.698534005,46.9483068 C-1.00291862,42.1133944 0.414958567,38.1994178 4.83063325,35.3214937 C7.58536607,33.5179947 10.6641851,32.481942 13.8240257,31.5993787 C19.6170668,29.9877412 25.4506187,28.3761038 31.2436598,26.726094 C33.7148172,26.0353922 35.3352482,24.3853825 36.7531254,22.3900218 C40.3585846,17.3248755 44.0045545,12.2981016 47.7315459,7.30969993 C49.351977,5.12247768 51.2559835,3.20386166 53.6461194,1.74571349 C57.6161755,-0.710115005 61.707764,-0.556625724 65.5562878,2.09106438 C68.5135745,4.12479735 70.6606457,6.84923209 72.6861845,9.68878379 C75.9675574,14.2550899 79.2894411,18.8597683 82.6113248,23.4260744 C83.8671589,25.1144565 85.5686115,26.2272538 87.6751719,26.8028386 C94.3189393,28.64471 100.962707,30.5249537 107.606474,32.4435697 C110.118142,33.1726438 112.467767,34.2854411 114.574328,35.8203339 C118.34183,38.583141 119.557153,42.4587453 118.058255,46.7564452 C117.045485,49.6727415 115.344033,52.2053147 113.399515,54.5843985 C109.632013,59.2658216 105.824,63.9088723 102.015987,68.5902954 C100.59811,70.3170498 99.9904481,72.2740382 100.07147,74.4612604 C100.274024,80.4089701 100.436067,86.3183074 100.59811,92.266017 C100.679131,94.9904518 100.476577,97.7148865 99.6663619,100.362577 C98.1674631,105.350978 94.4809824,107.960296 88.9715168,107.845179 C85.48759,107.768434 82.2062171,106.809126 78.9653549,105.696329 C73.5774216,103.854458 68.1894883,102.050959 62.8015549,100.209087 C60.4114191,99.4032686 58.1023048,99.4800132 55.712169,100.285832 C49.5140201,102.39631 43.356382,104.468415 37.1177224,106.502148 C34.4035004,107.384711 31.6082568,107.883551 28.7319916,107.806807 C23.8706984,107.614945 20.4272823,105.005627 19.0904267,100.554438 C18.2802112,97.7532588 18.0776573,94.9137071 18.1181681,92.0357831 C18.1586788,89.5799546 18.1181681,87.1241261 18.1181681,84.6682976 C18.1586788,84.6299253 18.2397004,84.6299253 18.2802112,84.6299253 Z" stroke="#4E4E4E" stroke-width="2"></path>
            </g>
            <rect id="Rectangle" fill="#FFFFFF" fill-rule="nonzero" x="38.0899811" y="50.094837" width="47.8027167" height="30.6978562"></rect>
            <g transform="translate(38.0495, 40.0413)" fill="#FD7699" fill-rule="nonzero" id="Path">
                <path d="M47.8837383,10.2454095 L47.8837383,5.25700788 C47.8837383,2.34071154 45.4125809,0 42.3337618,0 L5.54997643,0 C2.47115739,0 -4.60554212e-14,2.34071154 -4.60554212e-14,5.25700788 L-4.60554212e-14,10.2454095 L47.8837383,10.2454095 Z"></path>
                <path d="M0,40.1758193 C0.0405107769,43.0537433 2.51166817,45.3560826 5.54997643,45.3560826 L42.3337618,45.3560826 C45.3720701,45.3560826 47.8432275,43.0537433 47.8837383,40.1758193 L0,40.1758193 Z"></path>
            </g>
            <path d="M49.3924878,45.0296908 L47.5695028,45.0296908 C46.8808196,45.0296908 46.3136688,44.4924783 46.3136688,43.8401488 L46.3136688,37.4319713 C46.3136688,36.7796419 46.8808196,36.2424294 47.5695028,36.2424294 L49.3924878,36.2424294 C50.081171,36.2424294 50.6483219,36.7796419 50.6483219,37.4319713 L50.6483219,43.8401488 C50.6078111,44.5308506 50.081171,45.0296908 49.3924878,45.0296908 Z" id="Path" fill="#35D2AB" fill-rule="nonzero"></path>
            <path d="M60.2898868,45.0296908 L58.4669018,45.0296908 C57.7782186,45.0296908 57.2110677,44.4924783 57.2110677,43.8401488 L57.2110677,37.4319713 C57.2110677,36.7796419 57.7782186,36.2424294 58.4669018,36.2424294 L60.2898868,36.2424294 C60.97857,36.2424294 61.5457209,36.7796419 61.5457209,37.4319713 L61.5457209,43.8401488 C61.5457209,44.5308506 60.97857,45.0296908 60.2898868,45.0296908 Z" id="Path" fill="#35D2AB" fill-rule="nonzero"></path>
            <path d="M72.5241414,45.0296908 L70.7011564,45.0296908 C70.0124732,45.0296908 69.4453223,44.4924783 69.4453223,43.8401488 L69.4453223,37.4319713 C69.4453223,36.7796419 70.0124732,36.2424294 70.7011564,36.2424294 L72.5241414,36.2424294 C73.2128246,36.2424294 73.7799755,36.7796419 73.7799755,37.4319713 L73.7799755,43.8401488 C73.7394647,44.5308506 73.2128246,45.0296908 72.5241414,45.0296908 Z" id="Path" fill="#35D2AB" fill-rule="nonzero"></path>
            <rect id="Rectangle" fill="#35D2AB" fill-rule="nonzero" x="37.8874272" y="60.2635019" width="47.3976089" height="8.44191046"></rect>
            <rect id="Rectangle" fill="#E6F0F5" fill-rule="nonzero" x="42.1410587" y="52.0134531" width="40.9158846" height="4.22095523"></rect>
            <rect id="Rectangle" fill="#E6F0F5" fill-rule="nonzero" x="42.5461665" y="71.9670596" width="40.9158846" height="4.22095523"></rect>
            <line x1="34.8086081" y1="50.2866986" x2="82.6923464" y2="50.2866986" id="Path" stroke="#4E4E4E" stroke-width="3"></line>
            <line x1="34.8086081" y1="80.2171085" x2="82.6923464" y2="80.2171085" id="Path" stroke="#4E4E4E" stroke-width="3"></line>
            <polyline id="Path" stroke="#4E4E4E" stroke-width="3" points="48.8253369 63.8321277 49.8786171 65.3670205 51.2559835 62.5274688"></polyline>
            <polyline id="Path" stroke="#4E4E4E" stroke-width="3" points="54.2132702 63.8321277 55.3070612 65.3670205 56.6439169 62.5274688"></polyline>
            <polyline id="Path" stroke="#4E4E4E" stroke-width="3" points="59.5606928 63.8321277 60.613973 65.3670205 61.9508286 62.5274688"></polyline>
            <polyline id="Path" stroke="#4E4E4E" stroke-width="3" points="64.5435183 63.8321277 65.5967985 65.3670205 66.9336542 62.5274688"></polyline>
            <polyline id="Path" stroke="#4E4E4E" stroke-width="3" points="69.32379 63.8321277 70.417581 65.3670205 71.7544366 62.5274688"></polyline>
            <polyline id="Path" stroke="#4E4E4E" stroke-width="3" points="74.1445725 63.8321277 75.2383634 65.3670205 76.5752191 62.5274688"></polyline>
            <path d="M77.14237,85.3973717 L40.3585846,85.3973717 C37.2797655,85.3973717 34.8086081,83.0566602 34.8086081,80.1403638 L34.8086081,45.298297 C34.8086081,42.3820007 37.2797655,40.0412891 40.3585846,40.0412891 L77.14237,40.0412891 C80.221189,40.0412891 82.6923464,42.3820007 82.6923464,45.298297 L82.6923464,80.1403638 C82.6923464,83.0566602 80.221189,85.3973717 77.14237,85.3973717 Z" id="Path" stroke="#4E4E4E" stroke-width="2"></path>
            <path d="M47.7720567,45.0296908 L45.9490718,45.0296908 C45.2603886,45.0296908 44.6932377,44.4924783 44.6932377,43.8401488 L44.6932377,37.4319713 C44.6932377,36.7796419 45.2603886,36.2424294 45.9490718,36.2424294 L47.7720567,36.2424294 C48.4607399,36.2424294 49.0278908,36.7796419 49.0278908,37.4319713 L49.0278908,43.8401488 C48.98738,44.5308506 48.4607399,45.0296908 47.7720567,45.0296908 Z" id="Path" stroke="#4E4E4E" stroke-width="2"></path>
            <path d="M58.6694557,45.0296908 L56.8464707,45.0296908 C56.1577875,45.0296908 55.5906367,44.4924783 55.5906367,43.8401488 L55.5906367,37.4319713 C55.5906367,36.7796419 56.1577875,36.2424294 56.8464707,36.2424294 L58.6694557,36.2424294 C59.3581389,36.2424294 59.9252898,36.7796419 59.9252898,37.4319713 L59.9252898,43.8401488 C59.9252898,44.5308506 59.3581389,45.0296908 58.6694557,45.0296908 Z" id="Path" stroke="#4E4E4E" stroke-width="2"></path>
            <path d="M70.9037103,45.0296908 L69.0807254,45.0296908 C68.3920421,45.0296908 67.8248913,44.4924783 67.8248913,43.8401488 L67.8248913,37.4319713 C67.8248913,36.7796419 68.3920421,36.2424294 69.0807254,36.2424294 L70.9037103,36.2424294 C71.5923935,36.2424294 72.1595444,36.7796419 72.1595444,37.4319713 L72.1595444,43.8401488 C72.1190336,44.5308506 71.5923935,45.0296908 70.9037103,45.0296908 Z" id="Path" stroke="#4E4E4E" stroke-width="2"></path>
        </g>
    </g>
</svg>