<?xml version="1.0" encoding="UTF-8"?>
<svg width="121px" height="110px" viewBox="0 0 121 110" version="1.1" xmlns="http://www.w3.org/2000/svg" xmlns:xlink="http://www.w3.org/1999/xlink">
    <title>Group</title>
    <g id="Page-1" stroke="none" stroke-width="1" fill="none" fill-rule="evenodd">
        <g id="iPhone-13-mini" transform="translate(-42, -351)">
            <g id="Group" transform="translate(43, 352)">
                <g id="Path" stroke="#B9B9BA" stroke-width="2">
                    <path d="M18.2802112,84.6299253 C18.3612327,81.4066504 18.4017435,78.1450032 18.5637866,74.9217283 C18.6853189,72.3507828 17.9156142,70.1251882 16.2546723,68.0914553 C12.1630839,63.1414259 8.15251695,58.1530243 4.18246082,53.1646227 C2.68356207,51.284379 1.50874954,49.2122737 0.698534005,46.9483068 C-1.00291862,42.1133944 0.414958567,38.1994178 4.83063325,35.3214937 C7.58536607,33.5179947 10.6641851,32.481942 13.8240257,31.5993787 C19.6170668,29.9877412 25.4506187,28.3761038 31.2436598,26.726094 C33.7148172,26.0353922 35.3352482,24.3853825 36.7531254,22.3900218 C40.3585846,17.3248755 44.0045545,12.2981016 47.7315459,7.30969993 C49.351977,5.12247768 51.2559835,3.20386166 53.6461194,1.74571349 C57.6161755,-0.710115005 61.707764,-0.556625724 65.5562878,2.09106438 C68.5135745,4.12479735 70.6606457,6.84923209 72.6861845,9.68878379 C75.9675574,14.2550899 79.2894411,18.8597683 82.6113248,23.4260744 C83.8671589,25.1144565 85.5686115,26.2272538 87.6751719,26.8028386 C94.3189393,28.64471 100.962707,30.5249537 107.606474,32.4435697 C110.118142,33.1726438 112.467767,34.2854411 114.574328,35.8203339 C118.34183,38.583141 119.557153,42.4587453 118.058255,46.7564452 C117.045485,49.6727415 115.344033,52.2053147 113.399515,54.5843985 C109.632013,59.2658216 105.824,63.9088723 102.015987,68.5902954 C100.59811,70.3170498 99.9904481,72.2740382 100.07147,74.4612604 C100.274024,80.4089701 100.436067,86.3183074 100.59811,92.266017 C100.679131,94.9904518 100.476577,97.7148865 99.6663619,100.362577 C98.1674631,105.350978 94.4809824,107.960296 88.9715168,107.845179 C85.48759,107.768434 82.2062171,106.809126 78.9653549,105.696329 C73.5774216,103.854458 68.1894883,102.050959 62.8015549,100.209087 C60.4114191,99.4032686 58.1023048,99.4800132 55.712169,100.285832 C49.5140201,102.39631 43.356382,104.468415 37.1177224,106.502148 C34.4035004,107.384711 31.6082568,107.883551 28.7319916,107.806807 C23.8706984,107.614945 20.4272823,105.005627 19.0904267,100.554438 C18.2802112,97.7532588 18.0776573,94.9137071 18.1181681,92.0357831 C18.1586788,89.5799546 18.1181681,87.1241261 18.1181681,84.6682976 C18.1586788,84.6299253 18.2397004,84.6299253 18.2802112,84.6299253 Z"></path>
                </g>
                <polygon id="Path" fill="#EBEBED" fill-rule="nonzero" points="60.7760161 22.9656066 50.6483219 29.9493689 57.5351539 29.9493689 57.5351539 40.8854802 64.421986 40.8854802 64.421986 29.9493689 71.3088181 29.9493689"></polygon>
                <polygon id="Path" stroke="#B9B9BA" stroke-width="2" stroke-linejoin="round" points="58.7504773 22.1981602 48.622783 29.1819225 55.5096151 29.1819225 55.3070612 41.461065 62.5990011 41.461065 62.3964472 29.1819225 69.2832792 29.1819225"></polygon>
                <g transform="translate(68, 59)" fill="#EBEBED" fill-rule="nonzero" id="Path">
                    <path d="M16.4656965,25 L1.53430353,25 C0.673596674,25 0,24.3333333 0,23.4814815 L0,20.5185185 C0,19.6666667 0.673596674,19 1.53430353,19 L16.4656965,19 C17.3264033,19 18,19.6666667 18,20.5185185 L18,23.4814815 C18,24.3333333 17.2889813,25 16.4656965,25 Z"></path>
                    <path d="M16.4656965,19 L1.53430353,19 C0.673596674,19 0,18.3333333 0,17.4814815 L0,14.5185185 C0,13.6666667 0.673596674,13 1.53430353,13 L16.4656965,13 C17.3264033,13 18,13.6666667 18,14.5185185 L18,17.4814815 C18,18.2962963 17.2889813,19 16.4656965,19 Z"></path>
                    <path d="M16.4656965,13 L1.53430353,13 C0.673596674,13 0,12.3333333 0,11.4814815 L0,8.51851852 C0,7.66666667 0.673596674,7 1.53430353,7 L16.4656965,7 C17.3264033,7 18,7.66666667 18,8.51851852 L18,11.4814815 C18,12.3333333 17.2889813,13 16.4656965,13 Z"></path>
                    <path d="M16.4656965,7 L1.53430353,7 C0.673596674,7 0,6.22222222 0,5.22839506 L0,1.77160494 C0,0.777777778 0.673596674,0 1.53430353,0 L16.4656965,0 C17.3264033,0 18,0.777777778 18,1.77160494 L18,5.22839506 C18,6.22222222 17.2889813,7 16.4656965,7 Z"></path>
                </g>
                <g transform="translate(37.2798, 59.3426)" fill="#EBEBED" fill-rule="nonzero" id="Path">
                    <path d="M10.0871834,24.7885189 L1.25583408,24.7885189 C0.567150876,24.7885189 0,24.2513064 0,23.598977 L0,19.8001173 C0,19.1477878 0.567150876,18.6105753 1.25583408,18.6105753 L10.0871834,18.6105753 C10.7758666,18.6105753 11.3430175,19.1477878 11.3430175,19.8001173 L11.3430175,23.598977 C11.3430175,24.2513064 10.7758666,24.7885189 10.0871834,24.7885189 Z"></path>
                    <path d="M10.0871834,18.6105753 L1.25583408,18.6105753 C0.567150876,18.6105753 0,18.0733628 0,17.4210334 L0,13.6221737 C0,12.9698443 0.567150876,12.4326318 1.25583408,12.4326318 L10.0871834,12.4326318 C10.7758666,12.4326318 11.3430175,12.9698443 11.3430175,13.6221737 L11.3430175,17.4210334 C11.3430175,18.0733628 10.7758666,18.6105753 10.0871834,18.6105753 Z"></path>
                    <path d="M10.0871834,12.3942594 L1.25583408,12.3942594 C0.567150876,12.3942594 0,11.857047 0,11.2047175 L0,7.40585781 C0,6.75352837 0.567150876,6.21631588 1.25583408,6.21631588 L10.0871834,6.21631588 C10.7758666,6.21631588 11.3430175,6.75352837 11.3430175,7.40585781 L11.3430175,11.2047175 C11.3430175,11.857047 10.7758666,12.3942594 10.0871834,12.3942594 Z"></path>
                    <path d="M10.0871834,6.17794356 L1.25583408,6.17794356 C0.567150876,6.17794356 0,5.64073108 0,4.98840164 L0,1.18954193 C0,0.537212484 0.567150876,0 1.25583408,0 L10.0871834,0 C10.7758666,0 11.3430175,0.537212484 11.3430175,1.18954193 L11.3430175,4.98840164 C11.3430175,5.64073108 10.7758666,6.17794356 10.0871834,6.17794356 Z"></path>
                </g>
                <g transform="translate(51.3775, 49.3274)" fill="#EBEBED" fill-rule="nonzero" id="Path">
                    <path d="M17.8247418,37.2211507 L1.66094185,37.2211507 C0.729193984,37.2211507 0,36.5304489 0,35.6478855 L0,32.5780999 C0,31.6955365 0.729193984,31.0048348 1.66094185,31.0048348 L17.8247418,31.0048348 C18.7564897,31.0048348 19.4856837,31.6955365 19.4856837,32.5780999 L19.4856837,35.6478855 C19.4451729,36.5304489 18.7159789,37.2211507 17.8247418,37.2211507 Z"></path>
                    <path d="M17.8247418,31.0048348 L1.66094185,31.0048348 C0.729193984,31.0048348 0,30.314133 0,29.4315697 L0,26.361784 C0,25.4792207 0.729193984,24.7885189 1.66094185,24.7885189 L17.8247418,24.7885189 C18.7564897,24.7885189 19.4856837,25.4792207 19.4856837,26.361784 L19.4856837,29.4315697 C19.4451729,30.314133 18.7159789,31.0048348 17.8247418,31.0048348 Z"></path>
                    <path d="M17.8247418,24.8268912 L1.66094185,24.8268912 C0.729193984,24.8268912 0,24.1361895 0,23.2536261 L0,20.1838405 C0,19.3012771 0.729193984,18.6105753 1.66094185,18.6105753 L17.8247418,18.6105753 C18.7564897,18.6105753 19.4856837,19.3012771 19.4856837,20.1838405 L19.4856837,23.2536261 C19.4451729,24.0978171 18.7159789,24.8268912 17.8247418,24.8268912 Z"></path>
                    <path d="M17.8247418,18.6105753 L1.66094185,18.6105753 C0.729193984,18.6105753 0,17.9198736 0,17.0373102 L0,13.9675246 C0,13.0849612 0.729193984,12.3942594 1.66094185,12.3942594 L17.8247418,12.3942594 C18.7564897,12.3942594 19.4856837,13.0849612 19.4856837,13.9675246 L19.4856837,17.0373102 C19.4451729,17.9198736 18.7159789,18.6105753 17.8247418,18.6105753 Z"></path>
                    <path d="M17.8247418,12.3942594 L1.66094185,12.3942594 C0.729193984,12.3942594 0,11.7035577 0,10.8209943 L0,7.7512087 C0,6.86864533 0.729193984,6.17794356 1.66094185,6.17794356 L17.8247418,6.17794356 C18.7564897,6.17794356 19.4856837,6.86864533 19.4856837,7.7512087 L19.4856837,10.8209943 C19.4451729,11.7035577 18.7159789,12.3942594 17.8247418,12.3942594 Z"></path>
                    <path d="M17.8247418,6.21631588 L1.66094185,6.21631588 C0.729193984,6.21631588 0,5.52561412 0,4.64305075 L0,1.57326513 C0,0.690701765 0.729193984,0 1.66094185,0 L17.8247418,0 C18.7564897,0 19.4856837,0.690701765 19.4856837,1.57326513 L19.4856837,4.64305075 C19.4451729,5.4872418 18.7159789,6.21631588 17.8247418,6.21631588 Z"></path>
                </g>
                <g transform="translate(34.2009, 59.3426)" id="Path" stroke="#B9B9BA" stroke-width="2">
                    <path d="M13.0039594,24.7885189 L1.41787719,24.7885189 C0.64817243,24.7885189 0,24.1745618 0,23.4454877 L0,19.9536065 C0,19.2245325 0.64817243,18.6105753 1.41787719,18.6105753 L13.0039594,18.6105753 C13.7736641,18.6105753 14.4218366,19.2245325 14.4218366,19.9536065 L14.4218366,23.4454877 C14.4218366,24.2129341 13.7736641,24.7885189 13.0039594,24.7885189 Z"></path>
                    <path d="M13.0039594,18.6105753 L1.41787719,18.6105753 C0.64817243,18.6105753 0,17.9966182 0,17.2675441 L0,13.775663 C0,13.0465889 0.64817243,12.4326318 1.41787719,12.4326318 L13.0039594,12.4326318 C13.7736641,12.4326318 14.4218366,13.0465889 14.4218366,13.775663 L14.4218366,17.2675441 C14.4218366,17.9966182 13.7736641,18.6105753 13.0039594,18.6105753 Z"></path>
                    <path d="M13.0039594,12.3942594 L1.41787719,12.3942594 C0.64817243,12.3942594 0,11.7803023 0,11.0512282 L0,7.55934709 C0,6.83027301 0.64817243,6.21631588 1.41787719,6.21631588 L13.0039594,6.21631588 C13.7736641,6.21631588 14.4218366,6.83027301 14.4218366,7.55934709 L14.4218366,11.0512282 C14.4218366,11.7803023 13.7736641,12.3942594 13.0039594,12.3942594 Z"></path>
                    <path d="M13.0039594,6.17794356 L1.41787719,6.17794356 C0.64817243,6.17794356 0,5.56398644 0,4.83491235 L0,1.34303121 C0,0.613957124 0.64817243,0 1.41787719,0 L13.0039594,0 C13.7736641,0 14.4218366,0.613957124 14.4218366,1.34303121 L14.4218366,4.83491235 C14.4218366,5.60235876 13.7736641,6.17794356 13.0039594,6.17794356 Z"></path>
                </g>
                <g transform="translate(68.2009, 59.3426)" id="Path" stroke="#B9B9BA" stroke-width="2">
                    <path d="M13.0039594,24.7885189 L1.41787719,24.7885189 C0.64817243,24.7885189 0,24.1745618 0,23.4454877 L0,19.9536065 C0,19.2245325 0.64817243,18.6105753 1.41787719,18.6105753 L13.0039594,18.6105753 C13.7736641,18.6105753 14.4218366,19.2245325 14.4218366,19.9536065 L14.4218366,23.4454877 C14.4218366,24.2129341 13.7736641,24.7885189 13.0039594,24.7885189 Z"></path>
                    <path d="M13.0039594,18.6105753 L1.41787719,18.6105753 C0.64817243,18.6105753 0,17.9966182 0,17.2675441 L0,13.775663 C0,13.0465889 0.64817243,12.4326318 1.41787719,12.4326318 L13.0039594,12.4326318 C13.7736641,12.4326318 14.4218366,13.0465889 14.4218366,13.775663 L14.4218366,17.2675441 C14.4218366,17.9966182 13.7736641,18.6105753 13.0039594,18.6105753 Z"></path>
                    <path d="M13.0039594,12.3942594 L1.41787719,12.3942594 C0.64817243,12.3942594 0,11.7803023 0,11.0512282 L0,7.55934709 C0,6.83027301 0.64817243,6.21631588 1.41787719,6.21631588 L13.0039594,6.21631588 C13.7736641,6.21631588 14.4218366,6.83027301 14.4218366,7.55934709 L14.4218366,11.0512282 C14.4218366,11.7803023 13.7736641,12.3942594 13.0039594,12.3942594 Z"></path>
                    <path d="M13.0039594,6.17794356 L1.41787719,6.17794356 C0.64817243,6.17794356 0,5.56398644 0,4.83491235 L0,1.34303121 C0,0.613957124 0.64817243,0 1.41787719,0 L13.0039594,0 C13.7736641,0 14.4218366,0.613957124 14.4218366,1.34303121 L14.4218366,4.83491235 C14.4218366,5.60235876 13.7736641,6.17794356 13.0039594,6.17794356 Z"></path>
                </g>
                <g transform="translate(48.7038, 49.3274)" id="Path" stroke="#B9B9BA" stroke-width="2">
                    <path d="M17.8247418,37.2211507 L1.66094185,37.2211507 C0.729193984,37.2211507 0,36.5304489 0,35.6478855 L0,32.5780999 C0,31.6955365 0.729193984,31.0048348 1.66094185,31.0048348 L17.8247418,31.0048348 C18.7564897,31.0048348 19.4856837,31.6955365 19.4856837,32.5780999 L19.4856837,35.6478855 C19.4856837,36.5304489 18.7564897,37.2211507 17.8247418,37.2211507 Z"></path>
                    <path d="M17.8247418,31.0048348 L1.66094185,31.0048348 C0.729193984,31.0048348 0,30.314133 0,29.4315697 L0,26.361784 C0,25.4792207 0.729193984,24.7885189 1.66094185,24.7885189 L17.8247418,24.7885189 C18.7564897,24.7885189 19.4856837,25.4792207 19.4856837,26.361784 L19.4856837,29.4315697 C19.4856837,30.314133 18.7564897,31.0048348 17.8247418,31.0048348 Z"></path>
                    <path d="M17.8247418,24.8268912 L1.66094185,24.8268912 C0.729193984,24.8268912 0,24.1361895 0,23.2536261 L0,20.1838405 C0,19.3012771 0.729193984,18.6105753 1.66094185,18.6105753 L17.8247418,18.6105753 C18.7564897,18.6105753 19.4856837,19.3012771 19.4856837,20.1838405 L19.4856837,23.2536261 C19.4856837,24.0978171 18.7564897,24.8268912 17.8247418,24.8268912 Z"></path>
                    <path d="M17.8247418,18.6105753 L1.66094185,18.6105753 C0.729193984,18.6105753 0,17.9198736 0,17.0373102 L0,13.9675246 C0,13.0849612 0.729193984,12.3942594 1.66094185,12.3942594 L17.8247418,12.3942594 C18.7564897,12.3942594 19.4856837,13.0849612 19.4856837,13.9675246 L19.4856837,17.0373102 C19.4856837,17.9198736 18.7564897,18.6105753 17.8247418,18.6105753 Z"></path>
                    <path d="M17.8247418,12.3942594 L1.66094185,12.3942594 C0.729193984,12.3942594 0,11.7035577 0,10.8209943 L0,7.7512087 C0,6.86864533 0.729193984,6.17794356 1.66094185,6.17794356 L17.8247418,6.17794356 C18.7564897,6.17794356 19.4856837,6.86864533 19.4856837,7.7512087 L19.4856837,10.8209943 C19.4856837,11.7035577 18.7564897,12.3942594 17.8247418,12.3942594 Z"></path>
                    <path d="M17.8247418,6.21631588 L1.66094185,6.21631588 C0.729193984,6.21631588 0,5.52561412 0,4.64305075 L0,1.57326513 C0,0.690701765 0.729193984,0 1.66094185,0 L17.8247418,0 C18.7564897,0 19.4856837,0.690701765 19.4856837,1.57326513 L19.4856837,4.64305075 C19.4856837,5.4872418 18.7564897,6.21631588 17.8247418,6.21631588 Z"></path>
                </g>
            </g>
        </g>
    </g>
</svg>