<?xml version="1.0" encoding="UTF-8"?>
<svg width="31px" height="33px" viewBox="0 0 31 33" version="1.1" xmlns="http://www.w3.org/2000/svg" xmlns:xlink="http://www.w3.org/1999/xlink">
    <title>Slice</title>
    <g id="Page-1" stroke="none" stroke-width="1" fill="none" fill-rule="evenodd">
        <g id="Group" transform="translate(0.000000, 2.000000)" stroke="#B9B9BA">
            <path d="M25.8,1.9 C27.0426407,1.9 28.1676407,2.40367966 28.9819805,3.21801948 C29.7963203,4.03235931 30.3,5.15735931 30.3,6.4 L30.3,25.8 C30.3,27.0426407 29.7963203,28.1676407 28.9819805,28.9819805 C28.1676407,29.7963203 27.0426407,30.3 25.8,30.3 L5,30.3 C3.75735931,30.3 2.63235931,29.7963203 1.81801948,28.9819805 C1.00367966,28.1676407 0.5,27.0426407 0.5,25.8 L0.5,6.4 C0.5,5.15735931 1.00367966,4.03235931 1.81801948,3.21801948 C2.63235931,2.40367966 3.75735931,1.9 5,1.9 Z" id="Combined-Shape"></path>
            <line x1="8.4" y1="0" x2="8.4" y2="4.2" id="Line-4"></line>
            <line x1="22.4" y1="0" x2="22.4" y2="4.2" id="Line-4"></line>
            <rect id="Rectangle" x="21.5" y="21.5" width="3.2" height="3.2" rx="1"></rect>
            <rect id="Rectangle" x="13.1" y="21.5" width="3.2" height="3.2" rx="1"></rect>
            <rect id="Rectangle" x="21.5" y="14.5" width="3.2" height="3.2" rx="1"></rect>
            <rect id="Rectangle" x="13.1" y="14.5" width="3.2" height="3.2" rx="1"></rect>
            <rect id="Rectangle" x="4.7" y="21.5" width="3.2" height="3.2" rx="1"></rect>
            <line x1="1.6125" y1="9.1" x2="29.7875" y2="9.1" id="Line-2" stroke-linecap="square"></line>
        </g>
    </g>
</svg>