<?xml version="1.0" encoding="UTF-8"?>
<svg width="32px" height="32px" viewBox="0 0 32 32" version="1.1" xmlns="http://www.w3.org/2000/svg" xmlns:xlink="http://www.w3.org/1999/xlink">
    <title>Slice</title>
    <g id="Page-1" stroke="none" stroke-width="1" fill="none" fill-rule="evenodd">
        <g id="Group-2" transform="translate(2.000000, 1.000000)" stroke="#222021">
            <path d="M13.9953661,3 C13.9393348,3 13.640796,3.70379679 13.0997499,5.11139037 C11.3665833,5.15067889 10.5,5.20593311 10.5,5.27715304 C10.5,5.34837297 11.1696725,5.83931545 12.5090175,6.74998048 C11.996669,8.24999349 11.7725265,9 11.83659,9 C11.9006535,9 12.6482613,8.59485103 14.0794132,7.78455309 C15.4216693,8.59485103 16.1230282,9 16.1834899,9 C16.2439516,9 16.0342756,8.24999349 15.554462,6.74998048 C16.8514873,5.84315875 17.5,5.35221627 17.5,5.27715304 C17.5,5.20208981 16.6657093,5.14683558 14.9971278,5.11139037 C14.3853181,3.70379679 14.0513975,3 13.9953661,3 Z" id="Path-29" fill="#F3D842"></path>
            <path d="M15.9500983,23.5387553 C17.207159,24.9392219 20.1496839,27.3275984 20.1496839,28.0609547 C20.1496839,28.5498589 20.1496839,29.1962073 20.1496839,30 L7.97162381,30 C7.97162381,29.2232865 7.97162381,28.5769381 7.97162381,28.0609547 C7.97162381,27.2869797 10.7563452,24.9441757 12.0106853,23.5387553 C13.2650254,22.1333349 13.2650254,20.1441566 12.7456599,17.8716578 C12.2262944,15.5991591 7.49400837,10.4549547 5.4619284,7.2322436 C3.42984844,4.00953249 2.9562034,0 3.00326509,0 C3.05032678,0 24.8585185,0 24.9814904,0 C25.1044623,0 24.6459525,4.11015595 22.6598047,7.2322436 C20.6736569,10.3543313 15.8210836,15.5630542 15.2570606,17.8716578 C14.6930377,20.1802615 14.6930377,22.1382887 15.9500983,23.5387553 Z" id="Path-36"></path>
            <path d="M24.3957554,3.17940514 C26.7985851,2.67291258 28,3.23885885 28,4.87724395 C28,7.33482161 21.5125712,10.0858612 20.4348145,11.4964123 C19.3570577,12.9069635 20.4348145,14.5218643 22.0064964,13.8379613" id="Path-37"></path>
            <path d="M4.39575535,3.17940514 C6.79858512,2.67291258 8,3.23885885 8,4.87724395 C8,7.33482161 1.51257123,10.0858612 0.434814475,11.4964123 C-0.642942282,12.9069635 0.434814475,14.5218643 2.00649641,13.8379613" id="Path-37" transform="translate(4.000000, 8.500000) scale(-1, 1) translate(-4.000000, -8.500000) "></path>
        </g>
    </g>
</svg>