<svg width="21" height="20" viewBox="0 0 21 20" fill="none" xmlns="http://www.w3.org/2000/svg">
<path d="M19.24 7.56751V7.56751V16.1001C19.24 17.7017 17.8664 19 16.172 19H4.06802C2.3736 19 1 17.7017 1 16.1001V4.61983C1 3.01828 2.3736 1.71997 4.06802 1.71997H13.2753V1.71997" stroke="#606060" stroke-linecap="round"/>
<path fill-rule="evenodd" clip-rule="evenodd" d="M16.5736 1.46868L9.90824 7.7868C9.90824 7.7868 9.16748 10.69 9.42758 10.9892C9.68768 11.2884 12.8541 10.6019 12.8541 10.6019L19.5429 4.24717C19.5429 4.24717 20.5613 2.56522 19.3107 1.53276C18.0601 0.500305 16.5736 1.46868 16.5736 1.46868Z" stroke="#606060"/>
<path d="M15.4605 2.45967L18.4595 5.30022" stroke="#606060" stroke-linecap="square"/>
</svg>
