<?xml version="1.0" encoding="UTF-8"?>
<svg width="24px" height="18px" viewBox="0 0 24 18" version="1.1" xmlns="http://www.w3.org/2000/svg" xmlns:xlink="http://www.w3.org/1999/xlink">
    <title>Slice</title>
    <g id="Page-1" stroke="none" stroke-width="1" fill="none" fill-rule="evenodd">
        <g id="Group-3" stroke="#979797">
            <g id="Group">
                <path d="M19,0.5 C20.2426407,0.5 21.3676407,1.00367966 22.1819805,1.81801948 C22.9963203,2.63235931 23.5,3.75735931 23.5,5 L23.5,13 C23.5,14.2426407 22.9963203,15.3676407 22.1819805,16.1819805 C21.3676407,16.9963203 20.2426407,17.5 19,17.5 L5,17.5 C3.75735931,17.5 2.63235931,16.9963203 1.81801948,16.1819805 C1.00367966,15.3676407 0.5,14.2426407 0.5,13 L0.5,5 C0.5,3.75735931 1.00367966,2.63235931 1.81801948,1.81801948 C2.63235931,1.00367966 3.75735931,0.5 5,0.5 L19,0.5 Z" id="Combined-Shape"></path>
            </g>
            <path d="M2,8.98192 L10.0712665,15.9598059 M14.7422386,16 L23,8.98192" id="Shape" transform="translate(12.500000, 12.490960) scale(1, -1) translate(-12.500000, -12.490960) "></path>
            <polyline id="Path-31" points="2 2 12.4102301 11 23 2"></polyline>
        </g>
    </g>
</svg>