<svg width="24" height="26" viewBox="0 0 24 26" fill="none" xmlns="http://www.w3.org/2000/svg">
<path d="M11 7.5625V1.4375" stroke="#4A4A4A" stroke-linecap="round"/>
<path d="M7.5 5L10.9889 1L14.5 5" stroke="#4A4A4A" stroke-linecap="round" stroke-linejoin="round"/>
<mask id="path-3-inside-1_0_494" fill="white">
<path fill-rule="evenodd" clip-rule="evenodd" d="M15 6H7V9H15V6ZM7 5H6V6V9C6 9.55228 6.44772 10 7 10H15C15.5523 10 16 9.55228 16 9V6V5H15H7ZM17 6H5C2.79086 6 1 7.79086 1 10V21C1 23.2091 2.79086 25 5 25H17C19.2091 25 21 23.2091 21 21V10C21 7.79086 19.2091 6 17 6ZM5 5C2.23858 5 0 7.23858 0 10V21C0 23.7614 2.23858 26 5 26H17C19.7614 26 22 23.7614 22 21V10C22 7.23858 19.7614 5 17 5H5Z"/>
</mask>
<path d="M7 6V5H6V6H7ZM15 6H16V5H15V6ZM7 9H6V10H7V9ZM15 9V10H16V9H15ZM6 5V4H5V5H6ZM16 5H17V4H16V5ZM7 7H15V5H7V7ZM8 9V6H6V9H8ZM15 8H7V10H15V8ZM14 6V9H16V6H14ZM6 6H7V4H6V6ZM7 6V5H5V6H7ZM7 9V6H5V9H7ZM7 9H7H5C5 10.1046 5.89543 11 7 11V9ZM15 9H7V11H15V9ZM15 9V11C16.1046 11 17 10.1046 17 9H15ZM15 6V9H17V6H15ZM15 5V6H17V5H15ZM15 6H16V4H15V6ZM7 6H15V4H7V6ZM5 7H17V5H5V7ZM2 10C2 8.34315 3.34315 7 5 7V5C2.23858 5 0 7.23858 0 10H2ZM2 21V10H0V21H2ZM5 24C3.34315 24 2 22.6569 2 21H0C0 23.7614 2.23858 26 5 26V24ZM17 24H5V26H17V24ZM20 21C20 22.6569 18.6569 24 17 24V26C19.7614 26 22 23.7614 22 21H20ZM20 10V21H22V10H20ZM17 7C18.6569 7 20 8.34315 20 10H22C22 7.23858 19.7614 5 17 5V7ZM1 10C1 7.79086 2.79086 6 5 6V4C1.68629 4 -1 6.68629 -1 10H1ZM1 21V10H-1V21H1ZM5 25C2.79086 25 1 23.2091 1 21H-1C-1 24.3137 1.68629 27 5 27V25ZM17 25H5V27H17V25ZM21 21C21 23.2091 19.2091 25 17 25V27C20.3137 27 23 24.3137 23 21H21ZM21 10V21H23V10H21ZM17 6C19.2091 6 21 7.79086 21 10H23C23 6.68629 20.3137 4 17 4V6ZM5 6H17V4H5V6Z" fill="#4A4A4A" mask="url(#path-3-inside-1_0_494)"/>
<rect x="14.5" y="12.5" width="8" height="6" rx="1.5" fill="white" stroke="#4A4A4A"/>
<circle cx="17.5" cy="15.5" r="1" fill="#F3D842" stroke="#4A4A4A"/>
</svg>
