<?xml version="1.0" encoding="UTF-8"?>
<svg width="32px" height="32px" viewBox="0 0 32 32" version="1.1" xmlns="http://www.w3.org/2000/svg" xmlns:xlink="http://www.w3.org/1999/xlink">
    <title>Slice</title>
    <g id="Page-1" stroke="none" stroke-width="1" fill="none" fill-rule="evenodd">
        <g id="Group-7" transform="translate(0.500000, 1.000000)">
            <g id="Group-4" stroke-linecap="round">
                <path d="M0.107797044,0 L0,25.6791248 C0.0718646961,28.1092382 1.35515407,29.5495299 3.84986811,30 C3.84986811,30 12.8999121,30 31,30" id="Path-23" stroke="#222021"></path>
                <line x1="26" y1="28.1428571" x2="26" y2="29.8571429" id="Line-2" stroke="#222021"></line>
                <line x1="19" y1="28.1428571" x2="19" y2="29.8571429" id="Line-2" stroke="#222021"></line>
                <line x1="12" y1="28.1428571" x2="12" y2="29.8571429" id="Line-2" stroke="#222021"></line>
                <line x1="5" y1="28.1428571" x2="5" y2="29.8571429" id="Line-2" stroke="#222021"></line>
                <path d="M4,9 L15.9579868,17.9810927 L18.9278542,14.2673898 C26.3088587,20.7557966 29.9993609,24 29.9993609,24 C29.9993609,24 25.943814,23.1295181 25.943814,23.1295181 C25.943814,23.1295181 28.7089149,20 28.7089149,20 C28.7089149,20 29.1390636,21.3333333 29.9993609,24" id="Path-24" stroke="#EE1F01" stroke-linejoin="round"></path>
                <line x1="4" y1="24" x2="10" y2="16" id="Path-25" stroke="#029242"></line>
                <path d="M12,13 L15.5114813,8.18241563 L21.1342007,12.4844761 C26.8224551,5.7692342 29.6440332,2.41161327 29.5989349,2.41161327 C29.5312875,2.41161327 25.5388253,3.69968584 25.648348,3.69968584 C25.7578707,3.69968584 29.0148082,6.47488024 29.0148082,6.3849145 C29.0148082,6.32493734 29.2095171,5.0005036 29.5989349,2.41161327" id="Path-26" stroke="#029049" stroke-linejoin="round"></path>
            </g>
            <polygon id="Path-34" stroke="#029049" fill="#029049" points="29.1340335 3.39423824 26.9519153 4.05496643 28.8779037 5.49860226"></polygon>
            <polygon id="Path-35" stroke="#EE1F01" points="28.5697424 20.9344777 26.9519153 22.9681654 29.5989349 23.5221095"></polygon>
        </g>
    </g>
</svg>