<?xml version="1.0" encoding="UTF-8"?>
<svg width="35px" height="33px" viewBox="0 0 35 33" version="1.1" xmlns="http://www.w3.org/2000/svg" xmlns:xlink="http://www.w3.org/1999/xlink">
    <title>Slice</title>
    <g id="Page-1" stroke="none" stroke-width="1" fill="none" fill-rule="evenodd">
        <g id="Group-5" transform="translate(17.500000, 17.000000) scale(-1, 1) translate(-17.500000, -17.000000) translate(0.500000, 2.000000)" stroke="#B9B9BA">
            <path d="M23.1542291,6.00334538 C24.2312583,6.50068995 24.8703385,6.80367838 25.0714698,6.91231066 C25.2726012,7.02094295 25.4470498,7.15734654 25.5948158,7.32152145 C26.6819467,6.39618014 27.7015749,5.95678812 28.6537005,6.00334538 C29.605826,6.04990264 30.5156146,6.58363973 31.3830662,7.60455667 L29.0880131,9.96914817 C29.7950152,10.9186704 30.3300108,11.8137461 30.6929998,12.6543751 C31.0559888,13.4950041 31.286011,14.3715966 31.3830662,15.2841526 C31.5154676,15.801009 31.8103009,16.2815449 32.2675661,16.7257602 C32.7248313,17.1699755 33.3023092,17.5368561 34,17.8264019 L34,21.7178484 L27.4147784,25.1500656 L24.9256879,30 L21.2839014,30 L21.2839014,26.8807007 C20.1001012,27.1716135 18.9439931,27.3170699 17.8155771,27.3170699 C16.6871611,27.3170699 15.5590921,27.1716135 14.4313703,26.8807007 L14.1593322,30 L10.9292707,30 L7.28031859,23.2566809 C4.31908764,20.3448701 3.36274322,17.1260768 4.41128533,13.6003011 C5.45982744,10.0745254 8.12651406,7.54220682 12.4113452,6.00334538" id="Path-27" stroke-linecap="round" stroke-linejoin="round"></path>
            <path d="M0,12 C0.115270024,13.2982478 0.500331573,14.2747982 1.15518465,14.9296513 C1.81003773,15.5845044 2.75830951,15.9412873 4,16" id="Path-28" stroke-linecap="round"></path>
            <circle id="Oval" cx="17.5" cy="3.5" r="3"></circle>
            <circle id="Oval" fill="#979797" cx="28" cy="16" r="1"></circle>
        </g>
    </g>
</svg>