<?xml version="1.0" encoding="UTF-8"?>
<svg width="29px" height="26px" viewBox="0 0 29 26" version="1.1" xmlns="http://www.w3.org/2000/svg" xmlns:xlink="http://www.w3.org/1999/xlink">
    <title>Slice</title>
    <g id="Page-1" stroke="none" stroke-width="1" fill="none" fill-rule="evenodd">
        <g id="Group-5" transform="translate(14.500000, 13.000000) scale(-1, 1) translate(-14.500000, -13.000000) translate(1.000000, 0.500000)" stroke="#222021">
            <path d="M18.3233833,5.00278781 C19.1850066,5.41724163 19.6962708,5.66973198 19.8571759,5.76025889 C20.0180809,5.85078579 20.1576399,5.96445545 20.2758527,6.10126787 C21.1455574,5.33015012 21.9612599,4.9639901 22.7229604,5.00278781 C23.4846608,5.04158553 24.2124917,5.48636645 24.906453,6.33713056 L23.0704105,8.30762348 C23.6360122,9.09889204 24.0640086,9.8447884 24.3543999,10.5453126 C24.6447911,11.2458367 24.8288088,11.9763305 24.906453,12.7367938 C25.0123741,13.1675075 25.2482407,13.5679541 25.6140529,13.9381335 C25.979865,14.3083129 26.4418474,14.6140467 27,14.8553349 L27,18.098207 L21.7318227,20.958388 L19.7405503,25 L16.8271211,25 L16.8271211,22.4005839 C15.880081,22.6430112 14.9551945,22.7642249 14.0524617,22.7642249 C13.1497289,22.7642249 12.2472737,22.6430112 11.3450962,22.4005839 L11.1274657,25 L8.54341655,25 L5.62425487,19.3805674 C3.25527011,16.9540584 2.49019458,14.2717307 3.32902827,11.3335843 C4.16786196,8.39543783 6.30121125,6.28517235 9.72907614,5.00278781" id="Path-27" stroke-linecap="round" stroke-linejoin="round"></path>
            <path d="M0,10 C0.0864525177,10.9736859 0.37524868,11.7060987 0.866388487,12.1972385 C1.35752829,12.6883783 2.06873213,12.9559655 3,13" id="Path-28" stroke-linecap="round"></path>
            <circle id="Oval" fill="#F3D842" cx="14" cy="3" r="2.5"></circle>
            <circle id="Oval" fill="#979797" cx="22" cy="13" r="1"></circle>
        </g>
    </g>
</svg>