<svg width="35" height="31" viewBox="0 0 35 31" fill="none" xmlns="http://www.w3.org/2000/svg">
<path d="M15.3043 0.542676L15.3043 8.13768" stroke="#B9B9BA" stroke-linecap="round"/>
<path d="M20.1739 3.72018L15.3197 8.68018L10.4348 3.72018" stroke="#B9B9BA" stroke-linecap="round" stroke-linejoin="round"/>
<mask id="path-3-inside-1_0_2414" fill="white">
<path fill-rule="evenodd" clip-rule="evenodd" d="M21.2609 5.95996H9.34783L9.34782 10.16L21.2609 10.16V5.95996ZM9.34783 4.95996H8.34783V5.95996V10.16C8.34783 10.7122 8.79554 11.16 9.34782 11.16H21.2609C21.8132 11.16 22.2609 10.7122 22.2609 10.16V5.95996V4.95996H21.2609H9.34783ZM25.6087 5.95996H5C2.79086 5.95996 1 7.75082 1 9.95996V26C1 28.2091 2.79086 30 5 30H25.6087C27.8178 30 29.6087 28.2091 29.6087 26V9.95996C29.6087 7.75082 27.8178 5.95996 25.6087 5.95996ZM5 4.95996C2.23858 4.95996 0 7.19854 0 9.95996V26C0 28.7614 2.23858 31 5 31H25.6087C28.3701 31 30.6087 28.7614 30.6087 26V9.95996C30.6087 7.19854 28.3701 4.95996 25.6087 4.95996H5Z"/>
</mask>
<path d="M9.34783 5.95996V4.95996H8.34783L8.34783 5.95996L9.34783 5.95996ZM21.2609 5.95996H22.2609V4.95996H21.2609V5.95996ZM9.34782 10.16L8.34782 10.16L8.34782 11.16L9.34782 11.16L9.34782 10.16ZM21.2609 10.16L21.2609 11.16L22.2609 11.16V10.16H21.2609ZM8.34783 4.95996V3.95996H7.34783V4.95996H8.34783ZM22.2609 4.95996H23.2609V3.95996H22.2609V4.95996ZM9.34783 6.95996H21.2609V4.95996H9.34783V6.95996ZM10.3478 10.16L10.3478 5.95996L8.34783 5.95996L8.34782 10.16L10.3478 10.16ZM21.2609 9.15996L9.34782 9.15996L9.34782 11.16L21.2609 11.16L21.2609 9.15996ZM20.2609 5.95996V10.16H22.2609V5.95996H20.2609ZM8.34783 5.95996H9.34783V3.95996H8.34783V5.95996ZM9.34783 5.95996V4.95996H7.34783V5.95996H9.34783ZM9.34783 10.16V5.95996H7.34783V10.16H9.34783ZM9.34782 10.16H9.34783H7.34783C7.34783 11.2645 8.24325 12.16 9.34782 12.16V10.16ZM21.2609 10.16H9.34782V12.16H21.2609V10.16ZM21.2609 10.16V10.16V12.16C22.3654 12.16 23.2609 11.2645 23.2609 10.16H21.2609ZM21.2609 5.95996V10.16H23.2609V5.95996H21.2609ZM21.2609 4.95996V5.95996H23.2609V4.95996H21.2609ZM21.2609 5.95996H22.2609V3.95996H21.2609V5.95996ZM9.34783 5.95996H21.2609V3.95996H9.34783V5.95996ZM5 6.95996H25.6087V4.95996H5V6.95996ZM2 9.95996C2 8.30311 3.34315 6.95996 5 6.95996V4.95996C2.23858 4.95996 0 7.19854 0 9.95996H2ZM2 26V9.95996H0V26H2ZM5 29C3.34315 29 2 27.6568 2 26H0C0 28.7614 2.23858 31 5 31V29ZM25.6087 29H5V31H25.6087V29ZM28.6087 26C28.6087 27.6568 27.2655 29 25.6087 29V31C28.3701 31 30.6087 28.7614 30.6087 26H28.6087ZM28.6087 9.95996V26H30.6087V9.95996H28.6087ZM25.6087 6.95996C27.2656 6.95996 28.6087 8.30311 28.6087 9.95996H30.6087C30.6087 7.19854 28.3701 4.95996 25.6087 4.95996V6.95996ZM1 9.95996C1 7.75082 2.79086 5.95996 5 5.95996V3.95996C1.68629 3.95996 -1 6.64626 -1 9.95996H1ZM1 26V9.95996H-1V26H1ZM5 30C2.79086 30 1 28.2091 1 26H-1C-1 29.3137 1.68629 32 5 32V30ZM25.6087 30H5V32H25.6087V30ZM29.6087 26C29.6087 28.2091 27.8178 30 25.6087 30V32C28.9224 32 31.6087 29.3137 31.6087 26H29.6087ZM29.6087 9.95996V26H31.6087V9.95996H29.6087ZM25.6087 5.95996C27.8178 5.95996 29.6087 7.75082 29.6087 9.95996H31.6087C31.6087 6.64625 28.9224 3.95996 25.6087 3.95996V5.95996ZM5 5.95996H25.6087V3.95996H5V5.95996Z" fill="#B9B9BA" mask="url(#path-3-inside-1_0_2414)"/>
<rect x="19.9783" y="14.1401" width="11.5217" height="7.68" rx="1.5" fill="white" stroke="#B9B9BA"/>
<path d="M25.9348 17.9801C25.9348 18.6787 25.28 19.3401 24.3478 19.3401C23.4157 19.3401 22.7609 18.6787 22.7609 17.9801C22.7609 17.2816 23.4157 16.6201 24.3478 16.6201C25.28 16.6201 25.9348 17.2816 25.9348 17.9801Z" stroke="#B9B9BA"/>
</svg>
