<?xml version="1.0" encoding="UTF-8"?>
<svg width="35px" height="31px" viewBox="0 0 35 31" version="1.1" xmlns="http://www.w3.org/2000/svg" xmlns:xlink="http://www.w3.org/1999/xlink">
    <title>icn_trip_grey_24</title>
    <g id="Page-1" stroke="none" stroke-width="1" fill="none" fill-rule="evenodd">
        <g id="iPhone-13-mini" transform="translate(-120, -751)">
            <g id="Group-8" transform="translate(0, 720)">
                <g id="icn_trip_grey_24" transform="translate(120, 31)">
                    <rect id="bounds" x="0" y="1" width="35" height="30"></rect>
                    <g id="Group-2" stroke="#222021">
                        <g id="Group-3" transform="translate(15.3043, 4.34) rotate(180) translate(-15.3043, -4.34)translate(10.4348, 0)" stroke-linecap="round">
                            <line x1="4.86956522" y1="8.1375" x2="4.86956522" y2="0.5425" id="Line"></line>
                            <polyline id="Path" stroke-linejoin="round" points="0 4.96 4.85417783 0 9.73913043 4.96"></polyline>
                        </g>
                        <path d="M7.84782609,5.46 L7.84782609,10.16 C7.84782609,10.5742136 8.01571931,10.9492136 8.28716592,11.2206602 C8.55861252,11.4921068 8.93361252,11.66 9.34782609,11.66 L21.2608696,11.66 C21.6750831,11.66 22.0500831,11.4921068 22.3215297,11.2206602 C22.5929763,10.9492136 22.7608696,10.5742136 22.7608696,10.16 L22.7608696,5.46 L25.6086957,5.46 C26.8513363,5.46 27.9763363,5.96367966 28.7906762,6.77801948 C29.605016,7.59235931 30.1086957,8.71735931 30.1086957,9.96 L30.1086957,26 C30.1086957,27.2426407 29.605016,28.3676407 28.7906762,29.1819805 C27.9763363,29.9963203 26.8513363,30.5 25.6086957,30.5 L5,30.5 C3.75735931,30.5 2.63235931,29.9963203 1.81801948,29.1819805 C1.00367966,28.3676407 0.5,27.2426407 0.5,26 L0.5,9.96 C0.5,8.71735931 1.00367966,7.59235931 1.81801948,6.77801948 C2.63235931,5.96367966 3.75735931,5.46 5,5.46 L7.84782609,5.46 Z" id="Combined-Shape"></path>
                        <rect id="Rectangle" fill="#FFFFFF" x="19.9782609" y="14.14" width="11.5217391" height="7.68" rx="2"></rect>
                        <ellipse id="Oval" fill="#F3D842" cx="24.3478261" cy="17.98" rx="1.58695652" ry="1.36"></ellipse>
                    </g>
                </g>
            </g>
        </g>
    </g>
</svg>