<?xml version="1.0" encoding="UTF-8"?>
<svg width="34px" height="32px" viewBox="0 0 34 32" version="1.1" xmlns="http://www.w3.org/2000/svg" xmlns:xlink="http://www.w3.org/1999/xlink">
    <title>Group 7</title>
    <g id="Page-1" stroke="none" stroke-width="1" fill="none" fill-rule="evenodd">
        <g id="iPhone-13-mini" transform="translate(-218, -748)">
            <g id="Group-7" transform="translate(219, 749)">
                <g id="Group-4" stroke-linecap="round">
                    <path d="M0.111662655,0 L0,25.6791914 C0.0744417703,28.1093111 1.40375001,29.5496066 3.98792471,30.0000779 C3.98792471,30.0000779 13.362504,30.0000779 32.1116627,30.0000779" id="Path-23" stroke="#222021"></path>
                    <line x1="27.05" y1="28.1428571" x2="27.05" y2="29.8571429" id="Line-2" stroke="#222021"></line>
                    <line x1="20.05" y1="28.1428571" x2="20.05" y2="29.8571429" id="Line-2" stroke="#222021"></line>
                    <line x1="12.05" y1="28.1428571" x2="12.05" y2="29.8571429" id="Line-2" stroke="#222021"></line>
                    <line x1="5.11166266" y1="28.1428571" x2="5.11166266" y2="29.8571429" id="Line-2" stroke="#222021"></line>
                    <path d="M4.11166266,8 L16.529572,16.9810927 L19.6136651,13.2673898 C27.3372348,19.7557966 31.1696794,23 31.110999,23 C31.0229783,23 27.1616627,22.3999974 27.1616627,22.2876288 C27.1616627,22.1752601 29.7709205,18.8670047 29.7709205,19 C29.7709205,19.0886636 30.2176133,20.4219969 31.110999,23" id="Path-24" stroke="#E23E3D"></path>
                    <line x1="4.11166266" y1="23" x2="10.1116627" y2="15" id="Path-25" stroke="#029242"></line>
                    <path d="M13.1116627,12 L16.6419764,7.18241563 L22.2948511,11.4844761 C26.9415007,3.82815869 29.2421554,0 29.1968153,0 C29.128805,0 25.3386445,2.0781874 25.4487546,2.0781874 C25.5588647,2.0781874 29.1968153,4.32134305 29.1968153,4.23137731 C29.1968153,4.17140015 29.1968153,2.76094105 29.1968153,0" id="Path-26" stroke="#029049"></path>
                </g>
                <polygon id="Path-34" stroke="#029049" fill="#029049" points="28.8779037 0.650125201 26.2257385 1.95825843 28.8779037 3.49860226"></polygon>
                <polygon id="Path-35" stroke="#E23E3D" points="29.5697424 19.9344777 27.9519153 21.9681654 30.5989349 22.5221095"></polygon>
            </g>
        </g>
    </g>
</svg>