<svg width="34" height="32" viewBox="0 0 34 32" fill="none" xmlns="http://www.w3.org/2000/svg">
<path d="M1.11166 1L1.00018 26.6792C1.00018 26.6792 1.11166 30.3244 4.98792 31.0001C4.98792 31.0001 33.1117 31 33.1117 31" stroke="#B9B9BA" stroke-linecap="round"/>
<path d="M28.1617 29.1429V30.8571" stroke="#B9B9BA" stroke-linecap="round"/>
<path d="M21.1617 29.1429V30.8571" stroke="#B9B9BA" stroke-linecap="round"/>
<path d="M13.1617 29.1429V30.8571" stroke="#B9B9BA" stroke-linecap="round"/>
<path d="M6.11166 29.1429V30.8571" stroke="#B9B9BA" stroke-linecap="round"/>
<path d="M5.11166 9L17.5296 17.9811L20.6137 14.2674C20.6137 14.2674 32.199 24 32.111 24C32.023 24 28.1617 23.4 28.1617 23.2876C28.1617 23.1753 30.7709 19.867 30.7709 20C30.7709 20.133 32.111 24 32.111 24" stroke="#B9B9BA" stroke-linecap="round"/>
<path d="M5.11166 24L11.1117 16" stroke="#B9B9BA" stroke-linecap="round"/>
<path d="M14.1117 13L17.642 8.18242L23.2949 12.4845C23.2949 12.4845 30.2648 1 30.1968 1C30.1288 1 26.3386 3.07819 26.4488 3.07819C26.5589 3.07819 30.1968 5.32134 30.1968 5.23138C30.1968 5.14141 30.1968 1 30.1968 1" stroke="#B9B9BA" stroke-linecap="round"/>
<path fill-rule="evenodd" clip-rule="evenodd" d="M29.8779 1.6499L27.2257 2.95804L29.8779 4.49838V1.6499Z" fill="#B9B9BA" stroke="#B9B9BA"/>
<path fill-rule="evenodd" clip-rule="evenodd" d="M30.5697 20.9346L28.9519 22.9683L31.5989 23.5222L30.5697 20.9346Z" stroke="#B9B9BA"/>
</svg>
