<svg width="36" height="31" viewBox="0 0 36 31" fill="none" xmlns="http://www.w3.org/2000/svg">
<path d="M11.8458 6.00335C11.8458 6.00335 10.2302 6.74936 9.92853 6.91231C9.62683 7.07526 9.40518 7.32152 9.40518 7.32152C9.40518 7.32152 7.77449 5.93351 6.3463 6.00335C4.91811 6.07318 3.61693 7.60456 3.61693 7.60456L5.91199 9.96915C5.91199 9.96915 4.85148 11.3934 4.307 12.6544C3.76252 13.9153 3.61693 15.2842 3.61693 15.2842C3.61693 15.2842 3.41833 16.0594 2.73243 16.7258C2.04654 17.3921 1 17.8264 1 17.8264V21.7178L7.58522 25.1501L10.0743 30H13.7161V26.8807C13.7161 26.8807 15.4918 27.3171 17.1844 27.3171C18.877 27.3171 20.5686 26.8807 20.5686 26.8807L20.8407 30H24.0707L27.7197 23.2567C27.7197 23.2567 32.1615 18.889 30.5887 13.6003C29.0159 8.31164 22.5887 6.00335 22.5887 6.00335" stroke="#B9B9BA" stroke-linecap="round"/>
<path d="M35 12C35 12 34.8271 13.9474 33.8448 14.9297C32.8625 15.9119 31 16 31 16" stroke="#B9B9BA" stroke-linecap="round"/>
<circle cx="3.5" cy="3.5" r="3" transform="matrix(-1 0 0 1 21 0)" stroke="#B9B9BA"/>
<circle cx="1" cy="1" r="0.5" transform="matrix(-1 0 0 1 8 15)" fill="#979797" stroke="#B9B9BA"/>
</svg>
