<?xml version="1.0" encoding="UTF-8"?>
<svg width="29px" height="26px" viewBox="0 0 29 26" version="1.1" xmlns="http://www.w3.org/2000/svg" xmlns:xlink="http://www.w3.org/1999/xlink">
    <title>Slice</title>
    <g id="Page-1" stroke="none" stroke-width="1" fill="none" fill-rule="evenodd">
        <g id="Group-12" transform="translate(3.000000, 0.500000)" stroke="#222021">
            <g id="Group" transform="translate(0.000000, -0.000000)">
                <path d="M15.3387395,25 L3.84309568,25 C1.72061254,25 0,23.2192585 0,21.0226026 L0,5.59030064 C0,3.3936447 1.72061254,1.61290323 3.84309568,1.61290323 L19.8303737,1.61290323 C21.9528568,1.61290323 23.6734694,3.3936447 23.6734694,5.59030064 L23.6734694,16.2976463 L23.6734694,17" id="Combined-Shape"></path>
                <line x1="6.04081633" y1="0" x2="6.04081633" y2="3.38709677" id="Line-4"></line>
                <line x1="17.4693878" y1="0" x2="17.4693878" y2="3.38709677" id="Line-4"></line>
                <rect id="Rectangle" x="3.1122449" y="19.5" width="1.44897959" height="1.41935484" rx="0.709677419"></rect>
                <rect id="Rectangle" x="3.1122449" y="15" width="1.44897959" height="1.41935484" rx="0.709677419"></rect>
                <rect id="Rectangle" x="3.1122449" y="10.5" width="1.44897959" height="1.41935484" rx="0.709677419"></rect>
                <line x1="0.5" y1="7.33870968" x2="23.5" y2="7.33870968" id="Line-2" stroke-linecap="square"></line>
            </g>
            <g id="Group-10" transform="translate(17.000000, 17.000000)">
                <path d="M0,6.00856039 C1.11276639,7.33047987 6.07623792,7.33047987 7,6.00856039 C5.69886914,4.85322574 5.88723361,1 3.5,1 C1.11276639,1 1.41479458,4.66046823 0,6.00856039 Z" id="Path-43" fill="#F3D842"></path>
                <path d="M3.0023046,7 C2.97820952,7.66666667 3.14305374,8 3.49683725,8 C3.85062076,8 4.01784023,7.66666667 3.99849564,7" id="Path-44" fill="#222021"></path>
                <circle id="Oval" fill="#222021" cx="3.5" cy="0.5" r="1"></circle>
            </g>
            <line x1="8.57142857" y1="11.0806452" x2="20.8163265" y2="11.0806452" id="Line-15" stroke-linecap="round"></line>
            <line x1="8.57142857" y1="15.5" x2="20.8163265" y2="15.6" id="Line-15" stroke-linecap="round"></line>
            <line x1="8.57142857" y1="20" x2="16.0639223" y2="20" id="Line-15" stroke-linecap="round"></line>
        </g>
    </g>
</svg>