<?xml version="1.0" encoding="UTF-8"?>
<svg width="32px" height="32px" viewBox="0 0 32 32" version="1.1" xmlns="http://www.w3.org/2000/svg" xmlns:xlink="http://www.w3.org/1999/xlink">
    <title>Slice</title>
    <g id="Page-1" stroke="none" stroke-width="1" fill="none" fill-rule="evenodd">
        <g id="Group-32" transform="translate(0.000000, 1.000000)" stroke="#222021">
            <g id="Group-2">
                <g id="Group-3" transform="translate(10.434783, 0.000000)" stroke-linecap="round">
                    <line x1="4.86956522" y1="8.1375" x2="4.86956522" y2="0.5425" id="Line"></line>
                    <polyline id="Path" stroke-linejoin="round" points="0 4.96 4.85417783 0 9.73913043 4.96"></polyline>
                </g>
                <path d="M7.84782609,5.46 L7.84782609,10.16 C7.84782609,10.5742136 8.01571931,10.9492136 8.28716592,11.2206602 C8.55861252,11.4921068 8.93361252,11.66 9.34782609,11.66 L21.2608696,11.66 C21.6750831,11.66 22.0500831,11.4921068 22.3215297,11.2206602 C22.5929763,10.9492136 22.7608696,10.5742136 22.7608696,10.16 L22.7608696,5.46 L25.6086957,5.46 C26.8513363,5.46 27.9763363,5.96367966 28.7906762,6.77801948 C29.605016,7.59235931 30.1086957,8.71735931 30.1086957,9.96004194 L30.1090466,14.1438919 C30.5626208,14.1762007 30.9598591,14.4105708 31.2126299,14.7568544 C31.3934517,15.0045715 31.5,15.3098603 31.5,15.64 L31.5,20.32 C31.5,20.6501397 31.3934517,20.9554285 31.2126299,21.2031456 C30.9598591,21.5494292 30.5626208,21.7837993 30.1090466,21.8161081 L30.1086957,26 C30.1086957,27.2426407 29.605016,28.3676407 28.7906762,29.1819805 C27.9763363,29.9963203 26.8513363,30.5 25.6086957,30.5 L5,30.5 C3.75735931,30.5 2.63235931,29.9963203 1.81801948,29.1819805 C1.00367966,28.3676407 0.5,27.2426407 0.5,26 L0.5,9.96 C0.5,8.71735931 1.00367966,7.59235931 1.81801948,6.77801948 C2.63235931,5.96367966 3.75735931,5.46 5,5.46 L7.84782609,5.46 Z" id="Combined-Shape"></path>
                <circle id="Oval" fill="#F3D842" cx="24" cy="18" r="1.5"></circle>
            </g>
            <rect id="Rectangle" x="19.9782609" y="14.14" width="11.5217391" height="7.68" rx="2"></rect>
        </g>
    </g>
</svg>