<?xml version="1.0" encoding="UTF-8"?>
<svg width="29px" height="26px" viewBox="0 0 29 26" version="1.1" xmlns="http://www.w3.org/2000/svg" xmlns:xlink="http://www.w3.org/1999/xlink">
    <title>Slice</title>
    <g id="Page-1" stroke="none" stroke-width="1" fill="none" fill-rule="evenodd">
        <g id="icn_favorites_grey_24" transform="translate(3.000000, 1.000000)">
            <polygon id="bounds" points="0 0 25 0 25 24 0 24"></polygon>
            <g id="Group-2" transform="translate(0.000000, 1.000000)" stroke="#4A4A4A">
                <g id="Group-3" transform="translate(7.826087, 0.000000)" stroke-linecap="round">
                    <line x1="3.65217391" y1="6.5625" x2="3.65217391" y2="0.4375" id="Line"></line>
                    <polyline id="Path" stroke-linejoin="round" points="0 4 3.64063337 0 7.30434783 4"></polyline>
                </g>
                <path d="M5.76086957,3.5 L5.76086957,7 C5.76086957,7.41421356 5.92876278,7.78921356 6.20020939,8.06066017 C6.471656,8.33210678 6.846656,8.5 7.26086957,8.5 L15.6956522,8.5 C16.1098657,8.5 16.4848657,8.33210678 16.7563123,8.06066017 C17.027759,7.78921356 17.1956522,7.41421356 17.1956522,7 L17.1956522,3.5 L17.9565217,3.5 C19.1991624,3.5 20.3241624,4.00367966 21.1385023,4.81801948 C21.9528421,5.63235931 22.4565217,6.75735931 22.4565217,8 L22.4565217,19 C22.4565217,20.2426407 21.9528421,21.3676407 21.1385023,22.1819805 C20.3241624,22.9963203 19.1991624,23.5 17.9565217,23.5 L5,23.5 C3.75735931,23.5 2.63235931,22.9963203 1.81801948,22.1819805 C1.00367966,21.3676407 0.5,20.2426407 0.5,19 L0.5,8 C0.5,6.75735931 1.00367966,5.63235931 1.81801948,4.81801948 C2.63235931,4.00367966 3.75735931,3.5 5,3.5 L5.76086957,3.5 Z" id="Combined-Shape"></path>
                <rect id="Rectangle" fill="#FFFFFF" x="15.1086957" y="10.5" width="8.39130435" height="6" rx="2"></rect>
                <circle id="Oval" fill="#F3D842" cx="18.1956522" cy="13.5" r="1"></circle>
            </g>
        </g>
    </g>
</svg>