<?xml version="1.0" encoding="UTF-8"?>
<svg width="29px" height="26px" viewBox="0 0 29 26" version="1.1" xmlns="http://www.w3.org/2000/svg" xmlns:xlink="http://www.w3.org/1999/xlink">
    <title>Slice</title>
    <g id="Page-1" stroke="none" stroke-width="1" fill="none" fill-rule="evenodd">
        <g id="Group-7" transform="translate(2.000000, 2.000000)">
            <g id="Group-4" stroke-linecap="round">
                <path d="M0.0799784521,0 L0,18.8313582 C0.0533189681,20.6134413 1.00543689,21.6696553 2.85635376,22 C2.85635376,22 9.57090251,22 23,22" id="Path-23" stroke="#222021"></path>
                <line x1="19.3032258" y1="20.6380952" x2="19.3032258" y2="21.8952381" id="Line-2" stroke="#222021"></line>
                <line x1="14.1096774" y1="20.6380952" x2="14.1096774" y2="21.8952381" id="Line-2" stroke="#222021"></line>
                <line x1="8.91612903" y1="20.6380952" x2="8.91612903" y2="21.8952381" id="Line-2" stroke="#222021"></line>
                <line x1="3.72258065" y1="20.6380952" x2="3.72258065" y2="21.8952381" id="Line-2" stroke="#222021"></line>
                <path d="M2.96774194,6.86666667 L11.8397967,13.4528013 L14.0432467,10.7294192 C19.5194758,15.4875842 22.2575903,17.8666667 22.2575903,17.8666667 C22.2575903,17.8666667 19.2486362,17.2283133 19.2486362,17.2283133 C19.2486362,17.2283133 21.3001627,14.9333333 21.3001627,14.9333333 C21.3001627,14.9333333 21.6193052,15.9111111 22.2575903,17.8666667" id="Path-24" stroke="#EE1F01" stroke-linejoin="round"></path>
                <line x1="2.96774194" y1="17.8666667" x2="7.41935484" y2="12" id="Path-25" stroke="#029242"></line>
                <path d="M8.90322581,9.8 L11.5085184,6.2671048 L15.6802134,9.42194911 C19.9005312,4.49743841 21.9939601,2.03518306 21.9605001,2.03518306 C21.91031,2.03518306 18.9481607,2.97976961 19.0294195,2.97976961 C19.1106782,2.97976961 21.5271158,5.01491217 21.5271158,4.9489373 C21.5271158,4.90495405 21.6715772,3.93370264 21.9605001,2.03518306" id="Path-26" stroke="#029049" stroke-linejoin="round"></path>
            </g>
            <polygon id="Path-34" stroke="#029049" fill="#029049" points="21 3 20 3.31397999 20.8826233 4"></polygon>
            <polygon id="Path-35" stroke="#EE1F01" points="20.6111882 16 20 16.7859262 21 17"></polygon>
        </g>
    </g>
</svg>