<?xml version="1.0" encoding="UTF-8"?>
<svg width="34px" height="34px" viewBox="0 0 34 34" version="1.1" xmlns="http://www.w3.org/2000/svg" xmlns:xlink="http://www.w3.org/1999/xlink">
    <title>icn_user_grey_24 2</title>
    <g id="Page-1" stroke="none" stroke-width="1" fill="none" fill-rule="evenodd">
        <g id="2-периода-ЗП,-Аванс" transform="translate(-324, -38)">
            <g id="icn_user_grey_24" transform="translate(324, 38)">
                <rect id="bounds" x="0" y="0" width="33.6" height="33.6"></rect>
                <g id="Group" transform="translate(2.7543, 2.8)" stroke="#B9B9BA">
                    <path d="M18.0850298,0.5 L18.7892698,3.31945986 C19.1818763,3.42796811 19.5667404,3.55516825 19.9428479,3.70004361 L21.481678,1.90543289 L26.4016092,4.91635126 L24.9373703,8.17311399 L28.1981398,7.92672803 L30.4469611,13.2609166 L27.4345885,15.0342078 L30.1204625,16.9129832 L28.8228918,22.5451592 L25.2760845,22.158094 L26.5205281,25.1890397 L22.1512106,28.9765041 L19.9243096,27.1070802 C19.5476997,27.2514572 19.1623398,27.378122 18.7692459,27.4860563 L18.5781531,29.8404913 L12.8324038,30.3 L12.1106353,26.8829618 L9.61295451,28.9186072 L4.66150143,25.9310589 L5.7230388,23.2769376 C5.46036089,22.9518306 5.21359261,22.6132991 4.98392233,22.2625296 L2.73976516,22.795644 L0.526112953,17.4623853 L3.50647188,15.7369678 L0.844755297,13.9718357 L2.15018858,8.33151939 L4.9950066,8.52057139 C5.2253701,8.16997625 5.47283387,7.83165345 5.73620734,7.50679185 L4.53272995,5.52998014 L8.91187317,1.77610527 L11.4992527,4.11398883 L12.3274835,0.997040261 L18.0850298,0.5 Z" id="Combined-Shape"></path>
                    <circle id="Oval" cx="15.445698" cy="15.4" r="6.5"></circle>
                </g>
            </g>
        </g>
    </g>
</svg>