<?xml version="1.0" encoding="UTF-8"?>
<svg width="31px" height="33px" viewBox="0 0 31 33" version="1.1" xmlns="http://www.w3.org/2000/svg" xmlns:xlink="http://www.w3.org/1999/xlink">
    <title>Slice</title>
    <g id="Page-1" stroke="none" stroke-width="1" fill="none" fill-rule="evenodd">
        <g id="Group" transform="translate(0.000000, 1.000000)" stroke="#B9B9BA">
            <g id="Group-3" transform="translate(28.000000, 3.000000) rotate(90.000000) translate(-28.000000, -3.000000) translate(25.000000, 0.000000)" stroke-linecap="round">
                <line x1="3" y1="6" x2="3" y2="0.4" id="Line"></line>
                <polyline id="Path" stroke-linejoin="round" points="0 3.2 2.99052027 0 6 3.2"></polyline>
            </g>
            <g id="Group-3" transform="translate(3.000000, 28.000000) scale(-1, 1) rotate(90.000000) translate(-3.000000, -28.000000) translate(0.000000, 25.000000)" stroke-linecap="round">
                <line x1="3" y1="6" x2="3" y2="0.4" id="Line"></line>
                <polyline id="Path" stroke-linejoin="round" points="0 3.2 2.99052027 0 6 3.2"></polyline>
            </g>
            <path d="M17.8694029,1.5 L18.55733,4.14762253 C18.9389021,4.25282251 19.3126774,4.37700603 19.6775918,4.51910011 L21.0956916,2.85797343 L25.657621,5.62086164 L24.2933151,8.72363035 L27.3488911,8.50671309 L29.4639935,13.4457575 L26.6321895,15.1484738 L29.136954,16.9287286 L27.9755376,22.16497 L24.6187478,21.8210911 L25.7757645,24.6855199 L21.766955,28.2242185 L19.661179,26.4872765 C19.295726,26.6289394 18.9214148,26.7526488 18.5393119,26.8573294 L18.3625657,29.0402935 L13.0651105,29.5 L12.3572958,26.2568949 L10.0062667,28.1619807 L5.41229959,25.4234367 L6.38256762,22.9140367 C6.12789283,22.5983233 5.88913771,22.2690747 5.66753396,21.9275285 L3.60104583,22.4211166 L1.52222772,17.4826214 L4.32656037,15.8233827 L1.84126602,14.1509743 L3.01071025,8.90656867 L5.67716022,9.05765933 C5.89938285,8.71628021 6.138758,8.38723024 6.39405197,8.07174901 L5.28387478,6.23598639 L9.3028532,2.73156529 L11.7699127,4.93433478 L12.5602061,1.99799495 L17.8694029,1.5 Z" id="Combined-Shape"></path>
            <circle id="Oval" cx="15.5" cy="15.5" r="6.5"></circle>
        </g>
    </g>
</svg>