<?xml version="1.0" encoding="UTF-8"?>
<svg width="196px" height="205px" viewBox="0 0 196 205" version="1.1" xmlns="http://www.w3.org/2000/svg" xmlns:xlink="http://www.w3.org/1999/xlink">
    <title>Group</title>
    <g id="Page-1" stroke="none" stroke-width="1" fill="none" fill-rule="evenodd">
        <g id="iPhone-13-mini" transform="translate(-88, -218)" fill-rule="nonzero">
            <g id="Group" transform="translate(88, 218)">
                <path d="M35.752948,31.3951753 C33.2215016,27.9166357 30.5001967,26.6889159 27.3358887,29.0761489 C26.5131686,29.6900088 25.3107315,29.2807689 25.0575869,28.257669 C25.0575869,28.257669 25.0575869,28.1894624 25.0575869,28.1894624 C24.9310146,27.6438091 24.9943007,26.9617425 25.4373039,26.6207092 C29.1079011,23.892443 29.6141904,20.7549367 27.3991748,17.2081905 C27.082744,16.6625373 27.3991748,15.8440574 27.8421779,15.4348174 C27.9054641,15.3666108 28.0320364,15.2984041 28.1586087,15.2301975 C28.7914703,14.8209575 29.8040489,14.9573708 30.1204797,15.6394374 C32.1456368,19.9364568 34.993514,20.6867301 38.7906837,17.5492238 C39.2336868,17.2081905 39.9298345,17.4128105 40.3728377,17.8220504 C40.6259823,18.0948771 40.8158408,18.4359104 40.9424131,18.7769437 C41.0689854,19.3225969 41.0056993,20.0728701 40.5626961,20.3456968 C36.4490957,22.9375497 36.3225234,26.2114693 38.6008252,29.7582155 C38.9805421,30.3038687 38.6641113,31.1223486 38.1578221,31.5315886 C38.0945359,31.5997952 37.9679636,31.6680019 37.8413913,31.7362085 C37.0819573,32.2136551 36.2592373,32.0090352 35.752948,31.3951753 Z" id="Path" fill="#58C3AF"></path>
                <path d="M12.1427235,143.279668 C9.32068608,139.446108 6.24209975,138.07698 2.6504157,140.678324 C1.75249469,141.362888 0.405613167,140.952149 0.0849270908,139.78839 C0.0849270908,139.78839 0.0849270908,139.719934 0.0849270908,139.719934 C-0.107484555,139.103826 0.0207898756,138.350805 0.533887597,138.008523 C4.63866937,134.927984 5.2159043,131.436707 2.77869013,127.534691 C2.39386684,126.918583 2.77869013,126.02865 3.29178785,125.549455 C3.42006228,125.480999 3.48419949,125.344086 3.61247393,125.275629 C4.31798329,124.796434 5.40831595,124.933347 5.79313924,125.754824 C8.10207899,130.546774 11.2448025,131.368251 15.5419959,127.876973 C16.0550937,127.466235 16.8247403,127.671604 17.2737008,128.150799 C17.5943868,128.424625 17.7867985,128.835363 17.9150729,129.246102 C18.1074846,129.862209 17.9792101,130.683686 17.4661124,131.025969 C12.8482329,133.969595 12.7199585,137.529328 15.2854471,141.499801 C15.6702704,142.115909 15.3495843,143.005842 14.8364866,143.485037 C14.7082122,143.553493 14.6440749,143.690406 14.5158005,143.758863 C13.6178795,144.238058 12.6558213,143.964232 12.1427235,143.279668 Z" id="Path" fill="#D065A3"></path>
                <path d="M150.136009,15.3429314 C147.801077,12.1013695 145.199297,10.9488141 142.197243,13.1818901 C141.463407,13.7581678 140.329298,13.3979943 140.062448,12.461543 C140.062448,12.461543 140.062448,12.3895083 140.062448,12.3895083 C139.929024,11.8852654 139.995736,11.236953 140.39601,10.9488141 C143.86505,8.35556457 144.265324,5.40214147 142.263955,2.08854482 C141.930393,1.58430185 142.263955,0.863954748 142.664229,0.431746489 C142.730941,0.359711779 142.864366,0.287677069 142.931078,0.215642359 C143.531489,-0.14453119 144.465461,-0.0724964803 144.799023,0.575815908 C146.666968,4.60975966 149.335461,5.33010676 152.937926,2.37668365 C153.3382,2.01651011 154.005323,2.23261423 154.405597,2.59278778 C154.672446,2.80889191 154.872583,3.16906546 154.939295,3.52923901 C155.07272,4.03348198 155.006008,4.75382908 154.539022,5.04196792 C150.736419,7.49114805 150.602995,10.5166059 152.671077,13.9022372 C153.004638,14.4064802 152.737789,15.198862 152.270803,15.5590356 C152.20409,15.6310703 152.070666,15.703105 152.003953,15.7751397 C151.33683,16.2073479 150.536282,15.9912438 150.136009,15.3429314 Z" id="Path" fill="#D065A3"></path>
                <path d="M189.270534,132.073873 C186.011259,127.414542 182.36854,125.72024 178.150655,128.967652 C177.06423,129.814804 175.530453,129.250036 175.083102,127.908713 C175.083102,127.908713 175.083102,127.838118 175.083102,127.838118 C174.89138,127.132158 175.019194,126.214411 175.594361,125.72024 C180.387412,122.049251 181.090393,117.742899 178.214562,113.012972 C177.767211,112.307013 178.150655,111.248074 178.789728,110.61271 C178.917543,110.471519 179.045358,110.400923 179.173172,110.330327 C180.003968,109.765559 181.282115,109.906751 181.729466,110.895094 C184.413575,116.68396 188.120201,117.742899 193.104975,113.507144 C193.680141,113.012972 194.638751,113.295356 195.15001,113.860123 C195.469547,114.213103 195.789084,114.707274 195.916898,115.201446 C196.10862,115.978001 195.980806,116.966344 195.405639,117.319324 C190.037422,120.84912 189.8457,125.226068 192.849345,130.026591 C193.296697,130.732551 192.913253,131.862086 192.274179,132.426853 C192.146365,132.568045 192.01855,132.638641 191.890735,132.709237 C191.05994,133.274004 189.909607,132.99162 189.270534,132.073873 Z" id="Path" fill="#58C3AF"></path>
                <path d="M176.720149,189.599356 C175.17205,187.333063 173.438178,186.577632 171.45661,188.088494 C170.961218,188.500547 170.21813,188.225845 170.032358,187.607765 C170.032358,187.607765 170.032358,187.607765 170.032358,187.539089 C169.970434,187.195712 169.970434,186.783658 170.280054,186.508956 C172.571242,184.723391 172.880862,182.7318 171.518534,180.465506 C171.332762,180.122128 171.518534,179.641399 171.76623,179.298022 C171.828154,179.229346 171.890078,179.160671 171.952002,179.160671 C172.38547,178.885968 172.942786,178.954644 173.190482,179.435373 C174.428962,182.182395 176.224757,182.7318 178.577869,180.671533 C178.887489,180.465506 179.320957,180.602857 179.568653,180.808884 C179.754425,180.946235 179.878273,181.220937 179.940197,181.426964 C180.064045,181.770342 180.002121,182.251071 179.692501,182.457098 C177.153617,184.173987 177.029769,186.234254 178.454021,188.500547 C178.701717,188.843925 178.454021,189.39333 178.206325,189.668032 C178.144401,189.736708 178.082477,189.805383 178.020553,189.805383 C177.525161,190.148761 177.029769,190.01141 176.720149,189.599356 Z" id="Path" fill="#D065A3"></path>
                <path d="M90.1765572,204.428198 C87.8271583,201.137782 85.2167151,200.017641 82.2147054,202.257924 C81.4315725,202.817995 80.3221341,202.46795 80.0610898,201.487827 C80.0610898,201.487827 80.0610898,201.417818 80.0610898,201.417818 C79.9305676,200.927756 79.9958287,200.297676 80.3873952,199.947632 C83.8462324,197.357305 84.30306,194.416934 82.2799665,191.126518 C81.9536611,190.636457 82.2799665,189.866359 82.671533,189.446306 C82.7367941,189.376298 82.8673162,189.306289 82.9325773,189.23628 C83.519927,188.816227 84.4335822,188.956244 84.7598876,189.656333 C86.6524589,193.646837 89.3281632,194.416934 92.9175226,191.476563 C93.309089,191.126518 94.0269609,191.336545 94.4185274,191.686589 C94.6795717,191.966625 94.875355,192.24666 94.940616,192.596704 C95.0711382,193.086766 95.0058771,193.786854 94.5490496,194.06689 C90.6986458,196.517199 90.5681237,199.527579 92.7217393,202.888003 C93.0480447,203.378065 92.7870004,204.148163 92.3301728,204.568216 C92.2649118,204.638224 92.1343896,204.708233 92.0691285,204.778242 C91.4817788,205.198295 90.6333848,204.988269 90.1765572,204.428198 Z" id="Path" fill="#58C3AF"></path>
            </g>
        </g>
    </g>
</svg>